<?xml version="1.0" encoding="UTF-8"?> <svg xmlns="http://www.w3.org/2000/svg" xmlns:xlink="http://www.w3.org/1999/xlink" id="Layer_1" viewBox="0 0 340.5 109"><defs><linearGradient id="linear-gradient" x1="176.8" y1="-7.7" x2="176.8" y2="90.1" gradientUnits="userSpaceOnUse"><stop offset="0" stop-color="#a57f56"></stop><stop offset=".5" stop-color="#f7e699"></stop><stop offset="1" stop-color="#a57f56"></stop></linearGradient><linearGradient id="linear-gradient-2" x1="188.8" y1="-7.7" x2="188.8" y2="90.1" xlink:href="#linear-gradient"></linearGradient><linearGradient id="linear-gradient-3" x1="29.7" y1="85.2" x2="29.7" y2="113.8" gradientUnits="userSpaceOnUse"><stop offset="0" stop-color="#f7e699"></stop><stop offset="1" stop-color="#a57f56"></stop></linearGradient><linearGradient id="linear-gradient-4" x1="50.1" y1="85.2" x2="50.1" y2="113.8" xlink:href="#linear-gradient-3"></linearGradient><linearGradient id="linear-gradient-5" x1="70.9" y1="85.2" x2="70.9" y2="113.8" xlink:href="#linear-gradient-3"></linearGradient><linearGradient id="linear-gradient-6" x1="90.4" y1="85.2" x2="90.4" y2="113.8" xlink:href="#linear-gradient-3"></linearGradient><linearGradient id="linear-gradient-7" x1="111.5" y1="85.2" x2="111.5" y2="113.8" xlink:href="#linear-gradient-3"></linearGradient><linearGradient id="linear-gradient-8" x1="133.8" y1="85.2" x2="133.8" y2="113.8" xlink:href="#linear-gradient-3"></linearGradient><linearGradient id="linear-gradient-9" x1="155.7" y1="85.2" x2="155.7" y2="113.8" xlink:href="#linear-gradient-3"></linearGradient><linearGradient id="linear-gradient-10" x1="176.9" y1="85.2" x2="176.9" y2="113.8" xlink:href="#linear-gradient-3"></linearGradient><linearGradient id="linear-gradient-11" x1="199.4" y1="85.2" x2="199.4" y2="113.8" xlink:href="#linear-gradient-3"></linearGradient><linearGradient id="linear-gradient-12" x1="219.9" y1="85.2" x2="219.9" y2="113.8" xlink:href="#linear-gradient-3"></linearGradient><linearGradient id="linear-gradient-13" x1="276.3" y1="85.2" x2="276.3" y2="113.8" xlink:href="#linear-gradient-3"></linearGradient><linearGradient id="linear-gradient-14" x1="298.8" y1="85.2" x2="298.8" y2="113.8" xlink:href="#linear-gradient-3"></linearGradient><linearGradient id="linear-gradient-15" x1="320.3" y1="85.2" x2="320.3" y2="113.8" xlink:href="#linear-gradient-3"></linearGradient><linearGradient id="linear-gradient-16" x1="248.1" y1="85.2" x2="248.1" y2="113.8" xlink:href="#linear-gradient-3"></linearGradient></defs><g><g><path d="m25.5,40.5c0,0,0,.2,0,.4,0,.1,0,.3,0,.4-.2,0-.4-.3-.6-.6-.2.2-.6.2-.9.1-.4,0-.8,0-1.2.4.1,0,.3.2.5.3.2.1.4.2.7.4h-.4c0,0-.2,0-.4.2-.1.1-.3.2-.5.4-.2.2-.4.4-.6.6-.2,0-.5,0-.9,0-.4,0-.7,0-.9.3l-.4-.2h-.2c-.1,0-.2.3,0,.6l-.2-.2-.5.5c-.2.2-.4.3-.6.3s-.2,0-.1,0c0,0,0,0-.1,0s-.2,0-.4.2c-.2.1-.4.3-.6.4-.2.1-.4.3-.6.4-.2.1-.4.2-.5.2-.1,0-.2,0-.1,0,0,0,0,0-.1,0s-.2,0-.5.2c-.2.2-.4.3-.7.5-.3.2-.5.4-.8.5-.3.2-.5.3-.8.3-.5.4-1,.9-1.6,1.3-.6.4-1.2,1-1.9,1.6,0,.3.3.5.6.5.3,0,.6.2.8.4,0,0,0,.2,0,.3,0,.1,0,.2,0,.4.1,0,.3,0,.4,0,.1,0,.2,0,.2,0,0,0,0,.2.2.4.1.2.2.3.3.4,0,.3,0,.6-.2.9-.2.3,0,.5.4.7.2,0,.3-.1.3-.4,0,0,0,.2.2.2.1,0,.2,0,.3-.1.2.3.4.7.5,1.2s.2.9.2,1.2c0,0,.2.1.2.1,0,0,0,0,.2,0,.2.2.4.6.7,1.1.3.5.4.8.4.9s0,.3-.2.7c-.1.4-.2.6-.3.7.1.1.3.2.5.2h0c0,.2,0,.3-.1.3,0,0,0,.2.1.2,0,0,.2,0,.2.2,0,0,.1,0,0,.2,0,.1-.1.3-.1.5s0,.2,0,.2.1,0,.2.1c.1.2.1.4,0,.6.1.2.2.3.2.4,0,0,0,.2,0,.3v.4c0,.1,0,.4,0,.6,0,.2,0,.4,0,.6.1.2.2.5.2.7,0,1.2,0,2.1.1,2.7,0,.6,0,1.1-.1,1.5,0,.3.1.5.1.7,0,.2,0,.4-.1.7,0,0,.1,0,.3,0h.2c0,.4-.1.7-.1,1,0,.3,0,.6-.1.8,0,.1,0,.3.1.5,0,.4,0,.9-.1,1.4,0,.6-.2,1-.5,1.2,0,0,.2.1.2.1s.1,0,.2.1c0,0-.2.2-.2.3,0,0-.2.2-.2.3,0,.5,0,.8,0,.9,0,.1-.1.5-.2,1-.2,0-.4-.1-.5-.4,0,0-.1,0-.3.2,0,0,.2.2.4.2.1,0,.3,0,.4.1v.8c0,0-.2.1-.5,0-.2,0-.4-.1-.5-.2,0,0-.2.1-.2.1,0,0,0,0,0,.2,0,.3.2.5.6.7.4.2.6.4.7.5-.2,0-.4,0-.5.1,0,0,0,.2.1.3.1.1.3.2.4.1-.2.2-.3.5-.4.8,0,.3-.2.6-.5.8,0,0-.2-.2-.3-.2,0,0-.2-.1-.4-.1s-.2,0-.3.1c0,0-.2.2-.3.2v.4c.1,0,.1-.2.1-.4,0,0,.2.2.3.2,0,0,.2.1.3.2,0,0,.2-.1.4,0,.2,0,.3,0,.4,0,0,.2-.2.4-.5.6-.2.1-.4.3-.7.6,0,0,.1.2.2.4,0,.2.2.4.3.6-.2,0-.4,0-.6.3-.2.2-.3.4-.2.6,0,0-.2,0-.3,0,0,0-.2,0-.3,0v.7c0,0,.1.2.2.2.1,0,.2,0,.3.1,0,.1,0,.2,0,.3,0,0,.2-.1.2-.1,0,0,0,0,.2,0-.2.2-.4.6-.6,1.1,0-.1-.2-.3-.3-.4,0-.1-.2-.3-.2-.5,0,0,0,.2,0,.4-.1,0-.3,0-.4,0-.1,0-.3,0-.5,0,0,0,0,.2,0,.2,0,0,0,.2,0,.4s0,.3.2.5c.1.2.4.4.8.5h-.1c0,.2,0,.3,0,.4,0-.1-.3-.3-.6-.4,0,0-.1,0-.1,0,0,0,0,0,0,.2,0,.2,0,.4.2.5.1.1.2.2.3.3,0,.2-.1.4-.1.5,0-.2-.2-.4-.4-.6-.2-.2-.4-.4-.5-.4h0s0,0-.1,0c.1.3.4.5.6.6v.5s0,0-.1.1c0,0-.1.2-.2.4h-.6c0,0,0,.2.2.2.1,0,.3,0,.4,0-.5.1-.7.5-.7,1.1,0,.6,0,1.1,0,1.4,0-.3-.1-.6-.4-.9,0,0-.2.1-.4.2-.2.1-.2.3,0,.5h-.1s-.1,0-.2-.1c0,0-.2.2-.2.2s-.2.2-.3.2c0,.2.1.3.4.4,0,0,.2,0,.3-.1.1,0,.2-.1.3-.1,0,.2.2.4.4.6.2.1.3.2.5.2-.4.2-.8.4-1.2.6-.4.1-.8.3-1.2.6,0,0,0,.1.2.3.3-.2.7-.2,1.1-.1v1.1c-.4,0-.8.3-1.2.6s-.6.7-.8,1.3c-.4,0-.6,0-.8,0l-.3-.3c-.2,0-.4.2-.6.2-.1,0-.3,0-.6.2,0,0,.1.2.1.6-.1,0-.3-.1-.5-.1s-.3,0-.4-.1,0-.2,0-.3c0,0,.1-.2.1-.4,0,0-.2,0-.2,0s-.1,0-.3,0-.3,0-.3,0,0,0-.1.2c0,0-.2-.2-.4-.3-.2-.1-.4-.2-.6-.4h0s.1,0,.2-.1c0-.1,0-.2-.2-.3-.1,0-.2-.2-.3-.2-.2,0-.4-.3-.6-.6-.2-.3-.3-.6-.4-.8,0-.2-.2-.3-.4-.3-.1,0-.2-.2,0-.5v-.9c0-.2-.3-.4-.6-.5,0,0,.2-.2.3-.4,0-.1.2-.2.4-.3,0,0-.3,0-.6,0,0,0,.2-.2.2-.5,0-.2,0-.4.2-.5,0-.2-.2-.4-.5-.4,0,0,0-.2.1-.4,0-.2.1-.3.1-.5s0-.2-.2-.4c-.1-.2-.3-.3-.4-.4,0,0,.1,0,.3,0s.3,0,.4,0,.2,0,.3,0,.1,0,.2.1c.1,0,.2-.2.2-.4s0-.3,0-.2c0,0,0,0-.1,0,0,0-.1.1-.1.1s0,0-.2,0-.3-.2-.6-.6c-.2-.4-.4-.7-.4-.9,0,0,.2-.1.4-.1.1,0,.3,0,.4-.2,0-.4-.4-.7-.8-.8h.3c0,0,.2-.2.3-.3.1-.1,0-.3-.2-.5,0,0,.2,0,.4,0s.3-.1.4-.2c0-.1-.2-.2-.2-.2,0,0-.1,0-.1-.2,0,0,.1-.2.2-.2s0-.2,0-.3c0,0,0,0,0,0,0,0-.1,0-.2,0-.1-.4-.4-.7-.6-.9-.3-.2-.3-.5,0-.8l.3.3c.2,0,.4-.2.5-.5.2-.2.3-.4.5-.7,0,0-.3,0-.5,0l-.2-.2c0,0-.2.1-.3,0-.1,0-.3,0-.5,0,0-.1-.1-.3,0-.6,0-.2.3-.4.7-.6,0,0-.2-.2-.3-.2,0,0-.2-.1-.4-.2,0,0,.2-.1.3-.2.1,0,.2,0,.4,0v-.2c-.1,0-.3-.1-.4-.1,0,0,0-.2,0-.4,0-.2,0-.3.2-.4-.2-.1-.3-.3-.4-.5,0-.2-.2-.4-.4-.7,0-.1.1-.3.2-.4,0,0,.2-.2.3-.3,0-.2,0-.4-.3-.8,0,0,0-.2,0-.4,0-.2,0-.4,0-.6s.2-.1.6,0c0,0,0-.2,0-.4s0-.2-.2-.3c-.1,0-.3-.1-.4-.3,0,0,0-.2.3-.4,0-.2-.1-.3-.4-.4v-.7c0,0,.2-.1.4-.2.2,0,.3-.2.4-.5,0,0,0,0,.2,0,.2,0,.3,0,.5,0,0,0-.2,0-.4,0,.2-.2.4-.4.5-.7,0,0-.1,0-.1,0s0,0-.2,0-.4.2-.6.6c0-.1,0-.3,0-.4,0-.1.2-.3.2-.4-.2-.1-.4-.3-.5-.4,0-.1-.2-.2-.4-.4.2-.3.4-.7.4-1.1s0-.8-.1-1.1c.2,0,.4-.3.8-.7.3-.4.5-.7.6-.8l-.2-.2s0,0,0,0c0,0,0,.1,0,.2,0,0-.1-.2-.2-.3-.1,0-.2-.2-.2-.3,0,0,0,0,0,0,0,0,0,0,.3,0s.2,0,.3-.2c0-.1.2-.2.3-.3v-.8c-.1-.1-.3-.2-.4-.2,0,0,0,.3.2.5-.2,0-.4-.2-.8-.5,0,0-.2,0-.2.1,0,0-.2.1-.4.1.4-.2.6-.4.6-.6s0-.5-.2-.9c-.1-.4-.2-.8-.3-1.1,0,0,.1,0,.2,0,.1,0,.2,0,.4,0,0,0,0-.3-.1-.5.2,0,.4,0,.5-.2,0,0-.1-.2-.1-.2,0,0,0,0-.1-.1l-.3.2c0,0,0-.2,0-.4,0-.1,0-.3,0-.4.2,0,.4,0,.5-.1-.1,0-.2-.1-.2-.2,0-.1-.2-.2-.4-.3,0,0,0-.2,0-.4s.1-.2.2-.3c0,0,0-.1-.1-.2,0,0-.2,0-.3,0,0-.2.2-.4.2-.5s.1-.2.3-.2c0,0-.2-.2-.2-.4,0-.2-.1-.3-.3-.4,0,0,.2,0,.3,0,.1,0,.2-.1.3-.2,0,0,0-.1-.2-.1-.1,0-.3,0-.4-.1v-.4c.2,0,.5,0,.7-.2.2-.2.4-.4.5-.6,0,0,0,0,0-.1,0,0-.2.1-.2.2,0,0-.2.1-.2.1,0,0,0-.2,0-.4,0-.2-.2-.2-.4-.2.2-.6.4-.9.4-1.2,0-.2,0-.4,0-.4s0-.1-.1-.1-.1-.1-.1-.2,0,0,.2-.1c.2,0,.2-.2,0-.5h0c0-.1.1-.1.2-.1h.2c0-.2,0-.3-.2-.4-.1,0-.2,0-.4,0,0-.1.2-.3.2-.5,0-.2,0-.4,0-.5.2-.3.4-.6.5-1,0-.4.2-.7.2-1.1,0-.2,0-.3-.1-.3,0,0,.2,0,.2-.2,0-.2.2-.3.4-.4,0,0,0-.2-.1-.2,0,0-.2-.2-.3-.2,0,0,.2-.2.3-.2.1,0,.2-.1.3-.2,0-.2-.1-.4-.4-.4,0,0,0-.1.1-.2,0,0,.1-.2.2-.4,0-.2,0-.5,0-.7,0-.2,0-.4.2-.6,0-.2,0-.5.2-.8.1-.3.2-.5.3-.8.2-.4.5-.8.9-1,.4-.3.6-.5.9-.7-.2,0-.4,0-.5,0-.1,0-.2.1-.3.1-.1,0-.3,0-.4-.2-.1-.2-.3-.3-.4-.5h.4c.2,0,.5-.1.8-.4,0,0-.2-.2-.3-.2-.1,0-.2,0-.3-.2v-1.9s0,0,.1,0h.1c0-.5.1-.9.4-1.3.3-.4.3-.8,0-1.2,0-.3.3-.6.6-.9.3-.3.2-.6-.1-.8.1-.1.4-.2.7-.2,0-.7,0-1.2.3-1.7.3-.5.7-.8,1.2-.8,0-.3-.2-.6-.3-.7,0-.1-.2-.3-.2-.5.2,0,.3,0,.4.1,0-.2,0-.4.1-.5,0-.1,0-.3.1-.6,0,0,.2,0,.3.1,0,0,.2,0,.2,0,0,0,0-.2,0-.2s0-.1-.1-.1c-.2,0-.4,0-.6.3,0-.1.2-.3.3-.4.2-.1.3-.2.5-.3-.1-.1-.2-.3-.2-.5,0-.4.2-.8.3-1.2.2-.4.3-.9.4-1.2.2-.2.3-.5.3-.8,0-.4,0-.6.2-.9,0-.2.3-.4.5-.6.3-.2.4-.4.5-.6,0-.1-.1-.3-.4-.4.2-.2.5-.2.8,0,0-.3,0-.6,0-.9,0-.3,0-.6,0-.9.1,0,.3,0,.4-.1.1,0,.2-.1.4-.2,0-.1-.1-.2-.3-.3-.1,0-.3-.1-.4-.2l.4-.4c.1-.1.2-.3.2-.4.7-.2,1.4-.5,2.2-1-.1,0-.3-.3-.4-.6,0,0,.2-.2.5-.4,0,0-.2-.2-.5-.2-.2,0-.4,0-.5,0v-.7c-.2,0-.3,0-.4,0h.4c0,0,0-.5,0-1.1.2,0,.4-.3.6-.5.2-.2.3-.4.5-.4s.2,0,.2,0,0,0,.1,0c0-.3,0-.6,0-.9,0-.3,0-.5,0-.9,0,0,.1,0,.2,0,.1,0,.2,0,.4,0,0,0,0-.2-.1-.2,0,0-.2,0-.3-.1.1,0,.3,0,.4,0s.4,0,.7-.1c0,.2,0,.4-.2.5,0,0,.2.1.3.1s.2,0,.4.1h.4c0,0-.3-.4-.3-.4,0,0-.2.1-.2.1,0,0-.2,0-.2,0,0,0,0-.1.1-.2s.2-.2.3-.3c-.4-.2-.6-.4-.8-.5.3,0,.6,0,.7,0,.2-.1.4-.3.7-.5,0,0-.2-.1-.2-.2,0,0,0-.2-.1-.2.1-.2.1-.6,0-1,.6-.1,1-.4,1.3-.8.3-.4.6-.6.7-.6s.2,0,.2.1,0,.1.2.1.3,0,.2,0c0,0-.1,0-.2-.2.1,0,.3.1.5.1s.3,0,.5.1c0,0-.2.1-.2.1s-.1,0-.2.1h.1c0,.1,0,0,0,0h0s0,0,.1,0c.2,0,.4.1.6.4.2.3.4.5.6.8,0,0,.2-.2.2-.3,0-.2.1-.3.2-.5h.2c0,.4.1.6.4.7,0,0-.2,0-.2,0,0,0-.1,0-.2,0,0,0-.1.2-.1.2,0,0,0,0-.1.2,0,0,.3.1.5.1s.3,0,.4-.1c0,0,.1-.1.3-.1s.3,0,.5.2c.1.1.3.3.5.4,0,0-.2.1-.2.2,0,.1-.2.2-.2.3v.6l.2.2c.1,0,.3,0,.4-.1.1,0,.2-.1.4-.2,0,0,0,.2.1.2,0,0,.1.2.1.4v1c.1.2.4.3.6.3,0,.4,0,.7.2,1,.2.3.3.5.3.8s0,.2-.2.3c-.1,0-.2.1-.4.2,0,.1,0,.4.3.7.2.3.2.7.1,1-.3.2-.6.5-.8.7-.2.2-.5.5-.8.7,0,.3.3.4.6.4v.6c-.2,0-.4.2-.6.4-.2.2-.4.3-.6.4,0,0,0,.2,0,.4,0,.2,0,.3-.1.4s-.2.3-.3.5c-.1.2-.3.4-.5.4s-.2,0,0-.1c.1,0,.1-.1,0-.1s-.3.2-.5.6c-.2.4-.5.7-1,.9,0,0,.2.2.2.3,0,0,.1.2.1.3,0,0-.2.2-.5.2-.2,0-.4,0-.5.2,0,.1,0,.3,0,.5,0,.2,0,.3-.1.5,0,0-.2-.1-.4-.1,0,0,0,.1.1.3,0,0-.2.2-.3.2,0,0-.1,0-.1.2l-.7-.2c.2,0,.4,0,.5-.2l-.2-.2c-.3,0-.4.3-.4.5s0,.3.2.4c.1,0,.2.1.3.2-.1.1-.3.1-.4,0-.3.4-.4.7-.2,1-.2.2-.5.5-.7.8s-.5.6-.7.9c-.2.3-.5.5-.8.7-.3.2-.6.2-1,.2v.5c0,.2,0,.4.1.5-.4.4-1,.9-1.6,1.5-.7.6-1.2,1.2-1.5,1.7-.1.2-.2.4-.2.7s-.1.5-.4.7c0,.2,0,.6-.2,1.2-.2.6-.3,1-.5,1.4l-.2-.3c0,0-.2.1-.2.1,0,0-.2,0-.2.1,0,0,.1,0,.3,0h.2c0,.1,0,.3,0,.5,0,.2,0,.5-.2,1.1,0,0,.2,0,.4.3,0,0,.2-.2.2-.3,0,0,0-.1.1-.1.1.3.2.6.2.8.1.1.2.2.3.2,0,0,.1-.2,0-.3,0,0,0-.2,0-.3.2,0,.4.2.5.4s.3.3.5.4l.3-.3h.7c0,0,0,.2-.1.2s-.2.2-.2.3c.2,0,.4,0,.4-.1s.1,0,.2-.2c0,0,0-.1,0-.2,0,0,0-.3,0-.5h-.6c-.1,0-.3,0-.4-.1,0,0-.2-.2-.3-.3,0,0,.2,0,.4,0,.3-.4.4-.6.5-.6,0,0,.1-.1.3-.5,0,0,.2.2.5.2.2,0,.4.2.5.3,0,0,.2-.2.3-.3.1,0,.2-.2.4-.2h0c0,.1,0,.2-.1.3,0,0,.1.2.1.2s0,0,.3,0,.3,0,.6-.3c.2-.2.5-.4.7-.5,0,0,0-.2,0-.3,0,0-.1-.2-.2-.4h0s.1,0,.2-.1c0,0,.1,0,.1.1s0,.2.1.2h.1c0-.1.2-.1.4-.1,0-.3,0-.5-.3-.6.2,0,.4-.2.6-.2.2,0,.3-.2.4-.6,0,0,.2.1.4.3.2.1.4.2.5.2s.3,0,.4-.2c0-.1.2-.2.4-.2s.3,0,.4.2c.1.2.2.3.4.4.2,0,.4-.2.6-.4.1-.2.3-.2.4-.2s.3,0,.4.1c.1,0,.2.2.4.3,0,0-.2.1-.2.1s-.1,0-.2.1c0,0,.1.1.1.1,0,0,0,0,.2,0s.2,0,.2,0,.2-.2.2-.5c0,0,.1,0,.2,0s.2,0,.2,0c0,0,0-.2,0-.2,0,0,0-.1,0-.2,0,0,.1.2.2.4.1.2.2.4.2.6,0,0-.2,0-.4,0-.1,0-.3.2-.4.4,0,0,.1.1.1.1s0,0,.2,0c.2,0,.4-.1.6-.4.2,0,.4.2.6.3.2.1.5.4.8.7ZM.9,74.6v-.2c0,0-.4.1-.4.1v.2h.4Zm.2-3.8h-.2c0,0-.1.2-.1.2h.1c0,0,.2-.2.2-.2Zm.4,3.9l-.3-.4c-.2.2-.4.4-.5.4h.8Zm0,14.4c-.2.2-.4.3-.6.3,0,0,.2.2.2.3,0,.1,0,.2.2.3,0,0,0-.2.1-.4,0-.2,0-.4.2-.5Zm.1-18.8v-.2c0,0-.4.2-.4.2h0c0,.1.4,0,.4,0Zm0,5h-.2l.2.4v-.4Zm1-5.6v-.2h-.5v.2h.5Zm0-15.6c0,.2-.1.4-.4.4,0,0,.3,0,.7.1-.1-.1-.3-.3-.4-.5Zm0-1.3h-.1c0,0,0,.3-.1.4,0,.1,0,.2,0,.4l.6-.6c-.2,0-.3-.2-.4-.2Zm.5,43.5c0,0,0-.2,0-.3,0,0-.2.2-.3.2s-.2.2-.2.2h.1v.3c0,0,.2-.1.4-.4,0,0-.1,0-.1-.1Zm1.2-49.8c0,0-.1-.2-.1-.2,0,0,0,0,0-.1-.3.2-.5.4-.7.6v.6c.1,0,.3-.2.5-.4.2-.2.3-.3.5-.4Zm-.1,53.6h-.1v-.3c-.1,0,0,0,0,0v.4Zm.4-4.1v-.3h-.4v.3h.4Zm8.2-25.9c0,0,0-.2,0-.2-.1,0-.3,0-.5.1-.2,0-.3.2-.4.4,0,0-.1-.2,0-.3,0,0,0-.1-.2-.1s-.2,0-.2.1,0,.1-.1.1v-.4c.2-.2.4-.4.5-.6,0-.2.1-.4.1-.6v-.6c0-.2,0-.4.1-.6-.3,0-.5-.1-.6-.4.2-.1.4-.2.6,0-.1,0-.3-.2-.4-.3-.1-.1-.2-.2-.2-.4s0-.3,0-.2c0,0,0,0,.1-.1,0,0,.2.1.2.1h.1c-.1-.2-.3-.4-.6-.7-.2-.3-.4-.5-.4-.7s0-.4.2-.6c0,0,.1,0,.3,0h.1c0-.4-.2-.6-.4-.8-.2-.1-.2-.3-.2-.6s0,0,0,0c0,0,0-.2,0-.5.3.1.7.2,1,0,0,0,.1.1.2.2s.2.1.2.1c-.2-.2-.4-.3-.6-.5-.2-.1-.4-.2-.5-.3,0-.2,0-.5-.2-.8v.2s0,0-.3,0-.2,0-.2,0h0c0-.3-.1-.5,0-.6,0-.1,0-.3,0-.4h.4c0-.2-.2-.4-.3-.6-.1-.2-.2-.3-.3-.4h.1c0-.1,0-.1,0-.1l.6.4c0-.3-.2-.6-.2-.9,0-.3-.1-.5-.2-.7,0,0,0-.2.1-.3,0,0,0-.2,0-.2-.2,0-.4-.2-.5-.4,0-.2-.2-.3-.4-.5l-.2.3c-.1-.2-.2-.4-.3-.6,0-.2,0-.4,0-.6s0-.4.2-.6.3-.4.4-.5c0,0,.1,0,.2,0h0c0-.1,0-.3.2-.4,0,0-.2,0-.2,0h-.1c0,.1-.1.3-.4.3-.2-.1-.4-.3-.5-.5,0-.2-.2-.4-.4-.7,0,.2-.1.4,0,.6,0,.2,0,.4,0,.5-.2-.1-.4-.3-.5-.4s-.2-.3-.5-.4c0,.5-.2.8-.5.8-.1-.1-.2-.2-.3-.2,0,0,0,0,0,0s0,0,0,0h0c0,.3.2.5.4.8,0,.3,0,.6,0,.7h.1c0,.3,0,.4-.1.5,0,0-.1.1-.1.2,0,.2,0,.5,0,.9,0,.4,0,.6-.1.9,0,0,0,.1,0,.2,0,0,.1.2,0,.3,0,.5-.3.8-.6,1.1,0,.2.1.5.1.9s-.1.6-.4.7c0,.4-.1.8,0,1.4,0,.5,0,1-.2,1.4,0,.1,0,.3.1.5h-.1c0,.1,0,.2,0,.2,0,.2,0,.6.2,1.1.1.5,0,.9-.1,1.3,0,.4.2.8.2,1.2s0,.7,0,1c0,.3-.3.5-.6.6.1.1.3.3.5.4,0,0-.2.2-.2.3,0,0,0,.2,0,.3.2,0,.4,0,.4.3,0,0-.2.1-.4,0-.2,0-.4,0-.5,0,.2.2.4.4.6.6.1.1.2.3.2.5s0,.4-.2.5c-.2,0-.2.2-.2.3s0,.4.2.6c.2.2.2.4.2.6v.4c0,0,0,.2-.1.3,0,0-.2-.1-.3-.1h-.3c0,.1.2.2.5.3.2,0,.4.2.5.2-.2.6-.4,1.2-.4,1.7,0,.5-.2,1-.4,1.5,0,0,.2,0,.3.1,0,0,.2.2.2.3v.8c0,0-.2.2-.3.2-.1,0-.2,0-.2,0,0,0,0,.2,0,.2,0,0,0,.1,0,.2,0-.2,0-.3.2-.3l.2.2c-.1.4-.2.7-.1.9,0,.2.1.5.3.7-.2.1-.4.2-.6,0,0,.2,0,.4-.1.6,0,.2-.2.3-.2.4,0,0,.2.2.3.2.1,0,.2,0,.3.2-.5.3-.7.6-.8.8.2.2.4.4.6.6.2.2.4.3.6.4,0,.1-.2.2-.4.2-.1,0-.2,0-.3.1,0,.1.2.1.4,0,0,.2,0,.4,0,.6,0,.2,0,.3.1.5h0c0-.1,0-.2,0-.2l.2.2v.3c-.2.1-.4.3-.4.5s0,.3,0,.5c0,.2,0,.4,0,.6s0,.4-.3.6c.2.2.4.5.4.7,0,.2,0,.4,0,.7,0,.2,0,.5,0,.7,0,.2.2.4.4.6-.1,0-.3,0-.4,0-.1,0-.3,0-.4,0,.3,0,.6,0,.8.2,0,0,0,.2,0,.3v.2c0,0,.2-.2.3-.2,0,0,.2,0,.2,0,0-.3.3-.7.5-1.1,0,0,.2,0,.4.3v-.5c0,0-.3,0-.5-.2.1,0,.3-.1.5-.1h.5c0,0,0-.3,0-.5,0-.3.2-.5.2-.7,0,0-.2,0-.3,0,0,0-.1-.1-.1-.2h.8c0-.4,0-.6.1-.6h.4c-.1-.3-.4-.5-.8-.6,0,0,0-.1,0-.1s0,0,0-.2,0-.3,0-.3c0,0,0,0,.2-.1.4,0,.8,0,1.1,0l-.4-.4c.1,0,.3,0,.4,0,0,0,.2,0,.3-.1-.2,0-.3,0-.4,0,0,0-.2,0-.2,0h-.2l-.2-.2c0-.2,0-.4,0-.5,0,0,0-.2,0-.2,0,0,.2,0,.3.1.1,0,.2.2.3.2,0-.2-.2-.4-.2-.5,0,0,0-.3,0-.5,0,0,.1.1,0,.1s0,0,.1,0,.3,0,.3-.2c0-.1,0-.2.1-.3.2,0,.4,0,.6-.2-.3,0-.5-.2-.4-.5,0-.2.1-.3.2-.4,0-.1-.1-.3-.2-.4,0-.1-.2-.3-.2-.4.2,0,.3-.2.4-.3,0,0,0-.2,0-.3,0,0,0-.2,0-.3s0-.2.2-.4.3-.3.5-.4c.2-.1.3-.3.3-.4,0-.2,0-.5-.1-.9,0-.4-.2-.7-.2-.9h-.2c0,0-.1,0-.1-.2s0-.4.3-.9c.2-.4.4-.8.5-.9-.2,0-.4-.1-.4-.2s0-.2.1-.4c0-.1.1-.2.1-.4,0-.1,0-.3-.3-.4.1,0,.3-.2.4-.3.1,0,.3-.2.4-.3-.1,0-.3,0-.4,0,0-.1.2-.3.2-.4,0,0,0-.2-.2-.3,0,0,.2-.1.4,0,.2,0,.4,0,.5,0v-1c-.2-.2-.5-.4-.7-.6-.2-.2-.4-.4-.4-.6,0-.3.2-.6.6-.9.2.2.4.2.5,0v-.4c-.3-.2-.4-.4-.4-.6,0,0,0,0,0-.1s0,0,0,0l.3.3c0,0,0-.2,0-.2Zm-6.6,29.8v-.2h-.4v.2h.4Zm1.3-64.9c0,0-.1,0-.1-.1v-.2c0,0-.2.2-.2.2s-.2.1-.2.1h.6Zm-.2,57.6c0,0-.2,0-.2,0,0,0-.1,0-.1.2v.9c.1-.1.2-.3.2-.5s0-.4.1-.6Zm1.2-58.1c0,0-.2-.2-.3-.2-.1,0-.2,0-.3-.1,0,0,0,.1-.1.3,0,.1-.1.3-.1.4,0,0,.2-.2.4-.2.2,0,.4,0,.5-.2Zm0-.5v-.3h-.4v.3h.4Zm1.2,61.9v-.3h-.4v.3h.4Zm.4-46.2h-.5c0-.1,0,0,0,0l.4.2v-.2Zm.6-23.5c-.1-.1-.3-.2-.4-.3,0,0-.2.2-.2.4,0,.1,0,.2.1.2,0,0,.4,0,.8,0,0,0-.2-.2-.4-.3Zm.8,2.8c0-.1,0-.2-.1,0,0,0-.4-.1-.8-.1,0,0-.1.2-.1.3s0,.1-.1.1c.1,0,.2,0,.3.1,0,0,.2.1.3.1h.4c0-.1.1-.3.1-.4Zm-.5,13.5v-.2h-.6c0-.1,0,0,0,0h.6Zm.4,52.5s0,0,0,.1,0,0,0,.1c-.2-.2-.3-.4-.3-.5,0,0,.3,0,.5.1,0,0,0,0,0,.1Zm.7-34.6c0-.1,0-.3,0-.4,0,0-.2.2-.2.5,0,.2-.1.3-.2.4l.3-.2s.2,0,.4,0c0,0-.2-.2-.2-.4Zm.2,32.7l-.4.3h-.1c0-.1.5-.5.5-.5v.2Zm1.8-27.9h0c0-.1-.1,0-.1,0,0,0,0,.1-.2.1-.3,0-.7,0-1.1-.3,0,.2,0,.4-.2.4,0,0,.2,0,.2,0,0,0,.2,0,.5,0l.3.3c0,0,.2,0,.2-.1s.1,0,.2-.1h.3v-.2Zm-.9-1.5c-.1,0-.3,0-.4,0,0,0,0,.2.1.2s.2.2.2.2c0,0,.3-.3.6-.6-.2,0-.4,0-.6,0Zm1.1-45.2v-.2h-.5v.2h.5Zm.1-.6v-.2c0,0-.4.1-.4.1v.2h.4Zm1.1-.6v-.2h-1v.2h1Zm0,42.2h0c0-.1-.3,0-.3,0v.2l.4-.2Zm.1,24.1v-.2c0,0-.4.1-.4.1v.2h.4Zm.9-57.2c0,0-.2,0-.2-.2,0,.2-.1.3-.4.3s-.4,0-.6.3c0,.1.2.2.3.3.1,0,.2.1.3.1h.1c0-.1.1-.3.1-.3,0-.2,0-.4.5-.4,0,0-.2-.2-.2-.2Zm-.4,54.8c0-.1,0-.2-.1-.3,0,0-.1-.1-.1-.2,0,.2-.2.4-.3.5,0,.2-.2.3-.3.4v.6c.1-.2.3-.4.5-.6.2-.1.3-.3.3-.5Zm-.5-53.7h-.2c0,0,.4.4.4.4v-.4Zm-.2,12.6h-.1c0-.1.6-.4.6-.4l-.5.4Zm0-14.7c.2.4.3.6.3.8,0,0,.2-.2.4-.5,0,0-.3,0-.6-.3Zm.6,43.6l-.2-.4h-.1v.4c.1,0,.4,0,.4,0Zm0,7h-.1c0,0,.3.4.3.4v-.4Zm.1-48.1h-.1c0,0-.2.2-.2.2h.2c0,.1.1-.2.1-.2Zm.1,51.9h-.1c0,0-.3-.2-.3-.2h0c0-.1.4.2.4.2Zm.8-67.7c0,0-.1.2-.2.2-.1,0-.2.1-.2.2,0,0-.2-.2-.3-.2,0,0-.2,0-.3-.2.2,0,.4-.3.4-.6,0,0,.1.2.3.2.1,0,.2.1.3.3Zm-.2,11.1c0,0-.1-.1-.1-.2,0,.1,0,.3-.1.4,0,.1-.1.3-.2.4,0,0,.2-.2.6-.4,0,0-.1-.2-.2-.2Zm4.7-7.4c0-.2,0-.3,0-.4,0,0,0-.2,0-.4,0,0,0-.2,0-.3,0,0,0-.2,0-.3,0,0-.2,0-.2,0,0,0,0,0-.1,0,0,.3,0,.5-.4.5s-.3,0-.3,0,0,0-.1.1c.2,0,.3,0,.4.1-.1,0-.3.2-.4.4,0,.1-.2.3-.3.4-.2.2-.4.6-.7,1.2-.3.6-.5.9-.8,1.1,0,0,.2.2.2.2s.1.2.2.2c-.3.3-.5.6-.7,1-.2.4-.3.7-.4,1.1-.1.4-.3.7-.4,1.1-.2.4-.4.6-.7.8,0,0,.2,0,.2.1,0,0,.1.1.3.1s.3,0,.3,0c0,0,0-.1.1-.2l.3.3c.1-.2.3-.4.5-.5.2,0,.3-.2.4-.3,0,0-.2.2-.4.2-.2,0-.3,0-.4,0l.4-.4s-.1,0-.2-.1,0-.2,0-.2c0,0,.2,0,.2,0,0,0,.1,0,.3,0s.3,0,.4,0h.1c0-.1,0,0,0,0h0c0,0-.1.2-.1.2h0c0,0,.1.2.2.2,0,0,.2,0,.3,0,0-.2.1-.3.4-.3v-.5c0,0-.2,0-.2,0,0,0-.2.1-.4.1s-.2,0-.3,0,0,0-.1,0c0-.3.2-.5.4-.5s.3,0,.4,0c0,0,.2,0,.4,0s.3,0,.4-.2c0-.1.2-.3.3-.4,0,0-.2-.1-.4,0s-.2,0-.3,0c0,0-.2-.2-.3-.2,0,0-.2-.1-.2-.2.2-.1.4-.2.6,0,0-.3,0-.6.2-.8,0,0,.2.1.2.1h0c0-.5.3-.8.7-1.1,0,0-.1,0-.1,0,0,0,0,0-.2,0s-.3,0-.3-.2c0-.2,0-.3,0-.5,0,0,.2,0,.3,0h.3c-.2-.4-.3-.6,0-.7.2-.1.3-.3.3-.5Zm-3.7-4.1h0c0-.1-.3,0-.3,0v.2l.4-.2Zm.8,28.8c0-.1,0-.3-.1-.4,0-.1-.1-.2-.1-.3,0,0,0,.1-.2.1s-.3,0-.3.1c0,0,.2.2.4.2.2,0,.4.1.5.2Zm1.2-.6c-.1-.2-.3-.5-.5-.7-.2-.2-.3-.4-.4-.5,0,0,0,.2-.1.3,0,0-.1.2-.1.4s0,.2.1.3.2.2.2.2c.3-.2.5-.2.7-.1Zm-.6.6h-.1c0,0,.2,0,.3-.1,0,0,0,.1-.1.1Zm1.2-28.6s0,0,0-.1c0,0,0,0,0-.1,0,0,0,0-.1,0s0,0-.1,0c0,0,0,0-.1,0,0,0,.2.2.5.2,0,0,0,0,0-.1Zm-.2,29.3c0,0,.2.2.2.2,0,0,.2,0,.2.2,0,0,.2-.2.4-.4h-.8Zm1.1-1.3c-.2,0-.3,0-.4,0,.3,0,.6,0,1.1-.1-.2,0-.4,0-.6,0Zm-.2-1.3v-.2l.3.2h-.3Zm.8,2.6c-.1,0-.2,0-.2-.1v-.2c0,0-.2,0-.2.2,0,.1-.1.2-.2.2h.6Zm-.3-24.3v.5c.1,0,.4-.1.6-.4h-.6Zm.3-1.1v.2c0,0,.5.1.5.1l-.5-.4Zm3.5,25.8h-.6v-.3h.6v.3Zm1-1.9h-.2v-.3c-.1,0,0,0,0,0v.4Zm1.1.8c0,0-.2-.2-.2-.3,0,0-.2-.2-.2-.3,0,0,.2,0,.2,0,0,0,.2,0,.2,0v.5Z" style="fill:#124c87;"></path><path d="m56.7,55.3c0,.4-.1.6-.4.7-.3.1-.5.3-.8.5v.7c.3-.2.4-.3.6-.2,0,.2-.3.3-.6.3-.3,0-.5.2-.6.5,0,0,0,0,0-.1s0,0-.1-.1h0c0,.2,0,.4.2.5.1.2.2.3.3.4,0,0-.2.1-.4.1s-.4-.1-.4-.4c0,0-.2.2-.3.2,0,0-.2,0-.3.2,0,.3.2.5.4.6,0,0-.2.2-.3.3-.2,0-.3.2-.5.3-.1,0-.2.2-.3.3,0,.1,0,.2.1.4,0,0,0,.1-.1.2,0,0-.1.1-.2.1-.2,0-.4,0-.6-.3-.5.3-.7.6-.6.9s.2.7.1,1.1l-.4-.4c-.1,0-.2.1-.2.1s0,0-.1.3c0,0-.1,0-.2,0,0,0-.2,0-.3,0,0,.1-.1.3,0,.5,0,.2,0,.4-.1.6h0,0c0,0,0,0,0,0,0,0,0,0,0,0s0,0,0,0c-.1,0-.3,0-.4.3-.1.2-.3.3-.6.4v.4c.2,0,.3-.2.6-.3,0,0,0,0,0,0,0,0,.1,0,.2,0,0,0-.2.2-.2.4,0,.1-.2.3-.2.4,0,.2,0,.4,0,.7s0,.6-.2.8c-.2-.2-.3-.4-.3-.4s0-.3,0-.7c0,.1-.2.3-.3.4-.1.1-.2.2-.4.3,0,0,0,.2.2.5-.2,0-.4,0-.4,0,0,0,0,.1-.1.2s0,.2,0,.3c0,.1-.1.2-.2.3,0,0,0,0,0,0,0,0,0,0,.1,0,0,0-.1.2-.1.4,0,0-.2,0-.2-.1s-.1-.1-.3-.1-.2,0-.2,0-.2.1-.2.2l.4.4v.8c-.2,0-.3,0-.4-.1s-.2-.2-.2-.2c-.1,0-.3.2-.4.4-.1.2-.3.3-.4.3s-.2,0-.1,0c0,0,0,0-.1,0s-.2,0-.4.3c-.2.2-.4.3-.6.4.2.2.4.4.6.5,0,0-.2,0-.2,0s-.1,0-.3,0-.2,0-.2,0,0,0,0,0c-.1,0-.2.2-.1.2,0,0,0,0,0,0,0,0,0,0,0,0s0,0,0,0c0,0-.2-.1-.3-.1s-.2,0-.2,0c-.1,0-.2,0-.2.4,0,0-.2,0-.4.1-.2,0-.4.1-.5.1s-.3,0-.6,0c-.2,0-.4,0-.6,0-.3,0-.4,0-.5.2,0,0,0,0,0,0v-.2c-.2-.2-.4-.3-.5-.3,0,0,0,0,.1,0,0,0,0,0,0-.1s0,0-.2,0-.2,0-.3.1c0,0-.1.1-.2.1-.1,0-.5,0-1.1-.2-.6-.1-.9-.2-1.1-.2s-.2,0-.2,0c0,0,0,0-.1.1,0-.2-.3-.3-.8-.3-.4,0-.9-.3-1.3-.6-.4-.3-.7-.6-.9-.8-.2-.2-.4-.4-.6-.6-.2-.2-.3-.5-.2-.9,0,0-.1-.2-.2-.2,0,0-.2-.1-.3-.2-.2-.3-.4-.7-.4-1l-.3-.3c-.1-.1-.2-.3-.2-.5s0-.3.2-.4c.1,0,.2-.2.2-.2.2-.2.2-.5,0-.8l-.2.2c0,0-.1-.2,0-.4,0-.2.2-.4.2-.6l.2.2c0,0,.2-.1.2-.2,0,0,.1-.2.2-.3,0,0-.2,0-.4,0,0,0-.1-.1-.2-.2,0,0-.1-.2-.1-.3.4-.1.9-.2,1.3-.2-.2-.2-.4-.4-.5-.4-.2,0-.3,0-.4,0,0-.2-.2-.4-.4-.5-.2-.1-.3-.2-.4-.1l.4-.5c0,0-.1-.1-.2-.1s-.2,0-.3-.1v-.4c.2,0,.4-.2.4-.3,0-.1,0-.3.1-.5-.1-.1-.2-.3-.1-.4,0-.1.1-.2.3-.3-.1-.1-.3-.2-.4-.2,0-.2.3-.3.6-.3s.2,0,.1.1c0,0,0,.1.1.1h.2c0,0,.2-.1.2-.1,0,0,0,0,.2-.1-.4-.2-.7-.4-1-.4s-.2,0-.1,0,0,0,0,0c0,0-.1-.2,0-.4,0-.2.1-.3.1-.4,0,0,.2,0,.2,0,0,0,0,0,.2,0,0,0,.1-.2.1-.4s0-.3.1-.4c0,0-.2-.1-.4-.1v-.6h.5c.2,0,.4-.2.5-.5-.2,0-.5,0-.8.1.2-.2.5-.4.7-.5.2-.1.5-.2.7-.3-.1-.2-.3-.4-.5-.4s-.4-.1-.6-.4c.2.1.4,0,.4-.3v-1.1c.2-.2.4-.4.5-.5.1-.1.2-.3.2-.5-.3-.1-.5-.3-.5-.5,0-.2,0-.4,0-.5,0,0,.2.1.2.3,0,.1,0,.3.1.4.1-.2.2-.4.2-.6,0,0,0,0,.1,0,0,0,.1,0,.2,0,0,0,.1-.2.1-.4-.2,0-.5,0-.7,0,0,0,0-.1.1-.2,0,0,0-.2.1-.2-.1-.2-.3-.4-.4-.4.1-.1.3-.3.5-.5.2-.2.4-.4.6-.6,0,0-.1-.1-.1-.2,0,0,0-.1-.2-.1s-.2,0-.2,0,0,0-.1.1c0,0,0-.2,0-.3,0-.1,0-.2.1-.3h.8l.2-.2c0,0-.2-.2-.3-.5,0,0,0,.2,0,.4-.2-.2-.3-.3-.3-.4.3-.3.7-.4,1.1-.5,0,0,.2-.2.2-.3,0,0,.2-.2.2-.3,0,0-.2,0-.4,0h-.5c0-.2.2-.4.5-.7,0,0-.1,0-.2,0s-.1,0-.1.1v-.8c0,0,.1-.2.3-.4.2-.1.4-.2.5-.2s.2,0,.2,0,0,0,.1,0v-.5s0,0-.2,0-.3,0-.4-.1c.1,0,.3-.2.4-.4,0-.2.2-.2.4-.2s.2,0,.2,0,0,0,.1,0h.2c0-.2-.1-.3-.1-.4s0,0-.2,0-.2,0-.2,0,0,0,0,0c0,0,0,0,0-.1,0,0-.1-.1-.2-.1s-.1,0-.1-.2,0-.2,0-.1c0,0,0,0,.1,0,0-.2,0-.5.2-.9.2-.4.3-.7.4-.8,0,0,.2.2.3.3.2.1.3.2.5.2s.2,0,.2-.1c0,0,.2-.1.2-.1,0,0,0,.1-.1.2,0,0-.1.2-.1.4.1,0,.3,0,.4,0s.3,0,.5,0c0,0,.1,0,0-.1,0,0,0,0,0-.1.2.1.4.3.5.6.1.3.4.4.7.4s.2,0,.2,0,0,0,.1,0c0,0,0,.2,0,.4,0,0,0,0,.1,0s0,0,.2.1l.2-.2h.4c0,.2.1.4.3.6.2.2.4.3.7.3,0,0,0,.2,0,.4,0,.2,0,.3,0,.5,0,0,.1.2.3.6s.2.5.2.6c0,.1,0,.3,0,.5,0,.2,0,.3,0,.5,0,0,0,0-.1-.1,0,0-.1-.1-.2-.1s-.2,0,0,.1c0,0,0,.1,0,.1s-.2,0-.2-.1c0,0,0-.1-.1-.1h-.1c0,.3.2.4.4.4s.2,0,.2,0,0,0,.1-.1c0,0,0,0,0,.1,0,0,0,0,0,.1,0,0,0,0,0,.1-.3,0-.5,0-.6.3,0,0,.1,0,.3,0,0,0,0,.2.1.2,0,0,0,.4,0,.9,0,0,0-.2-.1-.4,0-.1,0-.3,0-.4,0,0-.1-.1-.1-.1s0,0-.2,0-.3,0-.4.1c0,0-.2.2-.4.5,0,0-.1-.2-.1-.4,0-.1,0-.3-.2-.4h-.3c0,0,0,.1,0,.1s0,0,0,.1c0,.3.1.5.3.6.2,0,.4,0,.7,0,0,.3.1.5.4.8-.1,0-.2,0-.3.2,0,.1,0,.3-.2.5-.1.2-.2.3-.2.4,0,.1,0,.4.1.6,0,.3.2.5.3.8-.2-.1-.4-.1-.6,0,0,0,0,0,.1,0v.4c0,.2,0,.4,0,.5-.3,0-.6,0-.8.2h0c0,.1.2.1.2.1,0,0,.2,0,.2,0s0,0,.2,0c0,0,0,0,.1.1,0,0,0,.1,0,.2s0,.2-.2.2-.2,0-.3.2c0,0,.2.1.4.2-.1.2-.3.5-.5.8-.2.3-.5.5-.8.7.1,0,.2.3.2.6-.1,0-.3,0-.4.1,0,0-.2.1-.2.2,0,0,.2,0,.6,0s.2,0,.2-.1.1-.1.2-.1v.6c-.4.4-.6.7-.7.9-.1.2-.2.5-.3.9h-.2c0,.4,0,.7.2.9.2.2.2.3.2.5v.7c0,0-.2,0-.2,0,0,0-.1,0-.2.1.1,0,.2.2.2.3s0,.3,0,.4c0,.2,0,.4,0,.6s0,.4.3.6c-.2,0-.4.2-.6.4,0,0,.1.2.2.2,0,0,.2,0,.2.2,0,0-.2,0-.3-.1-.1,0-.2-.1-.3-.1-.2,0-.4.1-.6.4l-.2.2c0,.1.2.3.2.5,0,.2.1.4.2.5.2,0,.3-.2.3-.4,0,0,.2.2.4.2.2,0,.2.2.2.4-.1,0-.3.1-.5.2-.2,0-.4.2-.5.2,0,0,.2.2.3.3,0,0,.2.2.2.3,0,0,0,.2,0,.4,0,0-.2,0-.2,0,0,0,0,0-.1,0h-.2c0,.4.2.6.2.7,0,.1,0,.4,0,.6,0,.2.2.3.5.3,0,.2,0,.5,0,.7,0,.2,0,.4.3.7,0,0,.2,0,.4,0s.3,0,.4,0c0,0,.2-.2.4-.3.2,0,.4-.2.5-.3.2,0,.3-.2.5-.4.1-.1.2-.3.2-.6.2,0,.4.1.5.4.3-.2.6-.6.9-1.1.4-.5.7-.7,1.2-.4,0-.1,0-.4-.2-.6.3-.3.6-.5.8-.8.2-.2.5-.4.8-.6h0s0,0,0,0,0,0,0,0c0-.1,0-.3.2-.4.1,0,.3-.2.4-.3.1-.1.3-.2.4-.4,0-.1,0-.2,0-.4.2,0,.4-.2.6-.2.2,0,.4-.2.6-.3-.2-.1-.4-.2-.6-.3.2,0,.4,0,.5.1,0-.1.1-.3.1-.6s.1-.3.4-.6c0,0,0-.1,0-.2s0-.2.1-.3c.2,0,.4-.2.6-.3.2-.1.4-.2.5-.4h0c0,.1,0,.3,0,.3,0,0,.1.2.2.2,0,0,.1,0,.1.1,0-.2,0-.4,0-.5s0-.3-.3-.5h.8s0,0,.1-.2c0-.1,0-.2-.2-.2,0-.2.2-.4.4-.5.1,0,.2.2.3.3,0,0,.2.2.4.4.1,0,.1-.3,0-.5.2,0,.3-.2.4-.4,0-.2.2-.3.2-.4,0,0-.1-.2-.1-.4s0-.4.2-.5c.2.3.3.5.2.6,0,0-.1.2-.1.2,0,.1,0,.3,0,.4,0,.1.1.3.2.5.2-.2.3-.4.2-.6,0-.1,0-.3,0-.6.2-.1.3-.2.3-.3s0-.2-.3-.4c0-.2.1-.3.3-.3.1,0,.1-.2,0-.4,0,0,.1,0,.3,0,0-.3,0-.5,0-.7.2-.2.5-.2.7-.1,0,0,0-.2-.1-.3.1-.1.3-.2.6-.2s.3,0,.6.1c.3,0,.5.2.7.3.1,0,.2.1.2.3,0,.1.1.2.2.2s.2,0,.1,0c0,0,0,0,.1,0s0,0,0,.2c0,.1.1.2.6.3Zm-24.2,7.4l-.3-.3s0,0,0-.1c0,0,0,0,0,0s0,0,0,0c0,0,.1.1.3.3v.3Zm1.7-2.9c0,0,0,.2-.1.2,0,0-.1,0-.2,0-.3,0-.4-.2-.5-.6,0,0,0,0-.1.2,0,.1,0,.2-.1.3,0,0,.2.2.4.3.2.1.4.2.6.2s.3-.1.4-.4c-.2,0-.3,0-.3-.3Zm-.8,3.6v-.2h-.3v.2h.3Zm.6,2.7c-.2-.2-.5-.2-.8-.1.1,0,.4.3.8.6v-.5Zm-.6-8.1c.1-.1.2-.3.2-.4,0,0-.1,0-.2.1,0,0-.2,0-.2.1v.5c.2,0,.5,0,.9,0-.2,0-.5,0-.7-.3Zm-.1-.8c0,0,0,.2,0,.2,0,0,0,.1,0,.2,0,0,0,0,.1,0,0,0,0,0,.1,0h.1c-.2-.2-.4-.3-.4-.4Zm.6,4.3c0,0-.2-.1-.3-.1,0,0-.2,0-.3,0l.3.4.3-.3Zm.4-8.3c-.2,0-.4-.1-.6-.2,0,.1.2.3.3.5.1.2.2.2.4.2s.3-.1.4-.4c0,0-.3,0-.5-.1Zm0,14.2v-.2h-.3v.2h.3Zm.2-13.1c-.1,0-.2,0-.2-.2l-.2.5c.2,0,.3,0,.4-.3Zm-.4-4.1h0c0-.1.3-.1.3-.1h-.3Zm.5,6.1h0c0-.1-.5,0-.5,0v.2h.5Zm.2,9.5h-.4c0-.1,0,0,0,0h.4c0,.1,0,0,0,0Zm.1,1.1h0c0-.1-.4,0-.4,0h0c0,.1.4,0,.4,0Zm0-17.1h0c0-.1-.3,0-.3,0v.2h.4Zm0,11.3c-.2,0-.3,0-.4.1.2,0,.4,0,.8,0,0,0-.2-.2-.4-.2Zm-.1,1.5h-.1v.3c-.1,0,0,0,0,0v-.3Zm.4,2.7h0c0-.1-.4-.1-.4-.1h0c0,.1.4.1.4.1Zm.7-17.5c-.2,0-.4,0-.7.3,0,0,.2,0,.4,0,.2,0,.3,0,.5,0s.3-.1.4-.4c0,0-.3,0-.5,0Zm-.3,6.1c0,0-.1-.1-.1-.2,0,0,0,.3.2.6,0-.2,0-.3-.1-.4Zm.2-5.1h-.1l.3.6v-.6Zm.1,1.1c0-.2,0-.4,0-.5,0,0,0,.2,0,.3,0,.1,0,.3,0,.5,0,0,.2,0,.4,0-.2,0-.3-.2-.3-.5Zm.7,4.2c-.2-.2-.4-.2-.6,0h.6Zm.4,5.8h-.4c0,0,0,0,0,0,0,0-.1,0-.1-.1h-.4c0,0,.2.2.5.2.2,0,.4,0,.5,0Zm-.4-7.6v-.4c0,0-.2.2-.3.2,0,0-.2.1-.2.2h.5Zm0,12.3h0c0-.1-.4,0-.4,0h0c0,.1.4,0,.4,0Zm.6-19.7c-.1-.1-.3-.2-.6-.2h.5c.2.3.2.3,0,.2Zm.8,4.2v-.7c-.1.2-.2.4-.3.4-.1,0-.2,0-.3,0,0,0-.1,0-.2,0,0,0,0-.2,0-.2,0,0,0-.2,0-.2,0,0-.2.2-.4.4-.2.2-.2.3-.2.4,0,.2,0,.3,0,.3,0,0,0,0,.1,0,.1,0,.3-.2.5-.2.2,0,.4,0,.6,0Zm-1.1,3.7h0c0,0,.5.4.5.4l-.4-.4Zm.2.8c0,0-.1.1-.2.1.3,0,.4,0,.4-.2,0,0-.2,0-.2.1Zm.7-5.3h0c0-.1-.2,0-.2,0h0c0,.1.3,0,.3,0Zm.2-4.1v-.2h-.4v.2h.4Zm1.1,1.8c0,0-.2-.2-.2-.4,0-.2-.2-.3-.2-.4-.3.2-.5.2-.6.1h-.3c.2,0,.4.1.7.3.3.1.5.3.7.4Zm-1.4,4.4l.3.3s.2-.1.4-.3h-.6Zm.4,5.4v-.2c0,0-.4.1-.4.1v.2h.4Zm.6-9.5c-.1-.1-.3-.3-.4-.4h-.5c0,.5.2.9.4,1.2,0,0,.2,0,.3,0,0,0,.2,0,.3,0-.1-.1-.2-.3,0-.4,0,0,.1.2.1.2h0c0,0,.2-.2.2-.2-.1,0-.3-.2-.4-.4Zm-.1,20.7c0-.1-.2-.2-.2-.1h-.4c0,0,.1.1,0,.2,0,.1,0,.2,0,.2.3,0,.6,0,.9-.1-.1,0-.2,0-.3-.2Zm-.5-13.5h0c0,.1,0,.1,0,.1h-.1c0,0,0,0,0,0h.6c0-.2-.2-.2-.5-.2Zm.4,6.1c-.1,0-.3,0-.4.2h.8c.1,0,.2-.1,0-.4-.2,0-.4.2-.5.2Zm.2-7.7s0,0-.1,0,0,0-.1,0h0c0,.4.1.6.1.7,0-.2.1-.4.1-.8Zm.2,6.5c0,0-.2,0-.3.1,0,0-.1.2-.1.3.1,0,.2,0,.1.2,0,0,.3-.1.6-.4l-.3-.3Zm.7-4.6h0c0-.1-.4.3-.4.3h.1c0,0,.4-.3.4-.3Zm-.2,6.7h-.1c0,0-.1.2-.1.2h.1c0,0,.1-.2.1-.2Zm.1,2.4s-.1,0-.2-.1c0,0-.1-.1-.2-.2,0,0,.2.2.5.4,0,0,0,0-.1,0Zm.1-7.3c-.2.4-.3.6-.4.6,0,0,.1,0,.3.2.1-.2.2-.5.1-.8Zm0-4.8h-.1l.3.2v-.2Zm.3,2.5c0,0-.2,0-.3.1s-.2.2-.1.3l.4-.4Zm1.1-4.8c0,0-.2-.2-.4-.3-.1-.2-.3-.3-.5-.4-.3.3-.4.5-.5.6.6.2,1.1.2,1.3,0Zm-.8-1.3s0,0-.1,0,0,0-.1,0c0,0,0,0,0,0,0,0-.1,0-.1.2s0,.2,0,.2l.4-.2Zm9-16.8c0,0,0,.3.1.5l-.3-.2c0,0-.2.2-.2.2,0,0,0,.2,0,.5,0,0,0,0-.1-.1s-.1-.1-.2-.2c-.2.2-.4.4-.7.5-.3,0-.4.3-.4.7,0,0-.1,0-.1,0s0,0-.2,0-.3,0-.4.2c0,.1-.2.2-.4.2s-.3,0-.3.2c0,0-.2,0-.3-.2,0-.1-.2-.2-.4-.2s-.2,0-.1.1,0,.1-.1.1-.2,0-.1,0c0,0,0,0,0-.2v.2c-.1,0,0,.2.3.3-.4,0-.7.2-1.1.6-.4.4-.7.7-1.1,1,0,0-.1-.1-.1-.2s0-.2,0-.3c0,0-.2-.1-.3-.1h-.4c-.1,0-.2,0-.2.1,0,0,0,.1,0,.2,0,0-.1-.1-.2-.2,0,0-.2-.1-.3-.1,0,0,0-.2.1-.2,0,0,.1-.2.1-.3s-.1-.2-.4-.6-.6-.5-1-.5c0,0,.2-.1.4-.1s.2,0,.2-.2,0-.3-.2-.6c-.2-.3-.3-.4-.5-.4s-.3,0-.3.1c0-.2,0-.3,0-.4h0c0-.2,0-.4.1-.6,0-.2.2-.4.2-.5,0,0,.1,0,.1.1s0,0,.2,0,.3-.1.5-.4c.2-.3.4-.6.6-.8,0,0,.1.2.2.3,0,.1.2.2.4.2s.2,0,.2-.1c0,0,0-.1.2-.1s.2,0,.1.1,0,.1.1.1h.3l.2-.2c0,0-.2-.1-.2-.3,0-.1-.1-.3-.3-.4.4,0,.6,0,.8.1,0,0-.1,0-.1,0s0,.2,0,.3c.2.1.5.3.7.4.2.1.4.2.6.2s.2,0,.3,0c0,0,0,0,.1,0l.3.2h.4c0-.1.2-.3.2-.4,0-.1.2-.2.2-.4,0,0-.2,0-.2,0,0,0-.2,0-.2,0,0,0-.2,0-.2,0-.3,0-.8-.1-1.3-.4l.2-.6c0,.2,0,.3.2.4,0,0,.2-.1.3-.2s.2-.1.4-.1.2,0,.3.2c.1.1.2.2.2.3,0,0,.2,0,.2,0,0,0,.2,0,.3,0h0v.2s.2,0,.4,0,.2,0,.4-.2c.1-.1.3-.2.4-.3,0,0,0-.2,0-.4,0-.2,0-.3,0-.4,0,0,.2.2.4.3.1,0,.3.1.4,0,.2,0,.3.2.3.4h-.6c-.2,0-.4,0-.5.3,0,0,0,.1,0,.1s0,0,.2,0,.2,0,.3,0c0,0,.1,0,.2,0v.5s0,0-.1,0c0,0-.1,0-.2,0s-.2,0,0-.1c0,0,0-.1,0-.1h-.3c0,0,0,.2,0,.3,0,0,.2,0,.2.1,0,0,.1,0,.3,0s.2,0,.2-.1c0,0,0-.1.2-.1s.2,0,0,.1-.1.1,0,.1.2,0,.3-.1c0,0,.1-.1.2-.1,0,.2,0,.4,0,.6,0,.2,0,.4,0,.6-.1,0-.4-.1-.6-.4h-.1c.2.3.3.5.4.7,0,.2.2.3.6.3v-.5c0-.2,0-.3.2-.3s.3,0,.5.1c0,.1-.1.3-.2.4Zm-8.9,25.5v-.2h-.3v.2h.3Zm-.1-4.6h0c0,.1.4.1.4.1h-.3Zm.3-10.1h-.1v.4c.1,0,.1-.4.1-.4Zm0,3.3h-.1c0,0,0,.2.1.2s.1.2.1.2c0,0,0-.3,0-.6,0,0,0,.1-.1.1Zm.1,8.3h-.2l.2.4v-.4Zm.4-1.6c-.2,0-.4,0-.5,0,.2.2.3.3.2.3,0-.2,0-.3.3-.3Zm0-2c0,0-.2-.1-.4-.1h.4Zm-.3-19.2s.1,0,.2,0c0,0,.2,0,.3.1v-.4c-.1,0-.4.2-.5.4Zm.8,19.4v-.2h-.4v.2h.4Zm.5-19.8c-.1,0-.2,0-.2,0,0,0-.1.2-.1.3,0,0,0,.2,0,.3h.4c0,0,0-.2,0-.2h0c0-.2-.1-.2-.2-.3Zm2.3,2h0c0-.1-.4-.1-.4-.1h0c0,.1.4.1.4.1Zm1.1,36c-.1,0-.3.2-.6.3-.2.1-.4.2-.6.2.2.1.4.3.5.4.1.1.3.3.4.4-.3-.3-.4-.5-.1-.7.3-.2.4-.4.5-.6Zm.4-37.4v-.2h-.5c0,0,0,.1,0,.1h.5Zm.5,1.1h-.4c0,.2.2.2.4,0Zm.1.6c0,0,0-.2,0-.4v.4Zm1.1-1.2h-.2l.2.4v-.4Zm.4-3.4h-.1c0,.1-.2-.1-.2-.1h0c0-.1.3.1.3.1Zm.3,36.5c0,0-.1.2-.1.3,0,.1,0,.2-.1.3.3-.2.4-.4.2-.6Zm-.2,1.3c0,0,.2,0,.4.3v-.4c.1,0-.4.1-.4.1Zm.2-4.3h-.1c0,0,.3.4.3.4v-.4Zm1.6-31.9c-.1,0-.2,0-.3,0h-.1c0,.1.3.5.3.5,0,0,0,.2-.1.4,0,.2,0,.4,0,.5,0,0-.1-.2-.2-.3-.1-.2-.2-.3-.4-.4,0-.2,0-.4-.1-.6.1-.1.3-.3.4-.4,0,0,.2-.1.4-.1s.1,0,.1,0c0,0,0,0,0,.2,0,0,0,0,.1,0,0,0,0,0,.1,0s.1,0,.2,0h0c0,.1,0,.4,0,.4,0,0-.1,0-.2,0Zm-.6,31.6c0,0,0-.2-.1-.3,0,0-.2-.1-.3-.1v.4h.4Zm.2-29.4c0,0,0,.1-.1.2h0c0,0-.1-.1-.1-.1,0,0,.2,0,.5-.2,0,0-.2.1-.2.2Zm.4-.7h-.1c0,0,.3-.3.3-.3v.3Zm.9-1.2c0,0-.1.2-.2.3,0,.1-.1.2-.1.3,0,0-.1,0-.2,0,0,0-.2,0-.4,0,0,0,0,0,0-.1,0,0,0,0,0-.1.4,0,.7-.1,1.1-.4Zm-.6,29.2s0,0,0-.1h0c-.3,0-.4.2-.4.4,0,0,.3-.1.5-.1,0,0,0,0,0-.1Zm-.1.2h-.1v.3c-.1,0,0,0,0,0v-.4Zm.6.5s0,0,0-.1c0,0,0,0,0-.1l-.3.3h.4Zm4.1-2.8c0,0-.2,0-.2-.1,0,0-.2,0-.3,0s-.4,0-.7.3c0,0,.2.1.4.2.2,0,.3.2.4.2,0,0-.1-.1-.1-.1s0,0,.1-.1c0,0,.2.2.2.3,0,0,0,.2.2.3v-.8Zm.6-2.5c-.1,0-.2,0-.2-.1,0,0,0-.1-.2-.2-.1.1-.1.3,0,.4,0,0-.2-.2-.4-.4-.1-.2-.3-.3-.6-.4l.3-.3c.1-.1.2-.2.3-.3,0,.1.2.4.3.7.1.3.3.5.6.5h.6c-.3.2-.5.3-.8.3Zm.6,2.7c-.2,0-.4,0-.6-.1,0,0,0,0,.1,0h.1c0-.1.3.2.3.2Zm0-1.8h0c0-.1.5-.2.5-.2l-.4.2Zm.9.1c-.2.1-.4.3-.5.5,0-.2.2-.5.3-.7,0-.2.1-.5.1-.7,0,0,.2.2.4.4,0,.2,0,.4-.3.6Z" style="fill:#124c87;"></path><path d="m83.6,60.6s0,0-.1,0-.2.2-.2.6c-.1.1-.3.3-.6.4-.2.1-.4.2-.6.2s-.4-.1-.6-.4c-.2-.2-.4-.4-.6-.4s-.3,0-.4.1c0,0-.2.2-.4.4,0,0,.2.1.2.1l.2-.2c0,.1.2.3.4.5.1.2.3.3.4.5-.4,0-.7.1-.9.1,0,.2-.2.4-.2.6,0,.2-.1.5-.2.8,0,0-.1.2-.3.3-.1,0-.2.2-.2.4h.1c0,.1.1,0,.1,0-.6.4-1.1.8-1.6,1.4-.5.5-.9.8-1.1.8s-.2,0-.3-.1c0,0-.1-.2-.2-.3,0,0-.2.1-.2.1,0,0,0,0-.2.1,0,.2,0,.4.3.6v.4c0,.2,0,.4-.1.5-.1.2-.2.3-.4.4-.2,0-.4-.1-.6-.1-.2,0-.4,0-.5.1,0,.1.2.2.4.2.1,0,.3,0,.4.2h.8c0-.1,0,.4,0,.4l-.4-.3h-1c0,.2,0,.2.1.3,0,0,.2.2.3.3-.1,0-.3.1-.6.1-.3,0-.4.1-.3.4h0c0,0-.6,0-.6,0-.2,0-.3-.1-.4-.4l-.4.4c0,0,.2.2.2.2,0,0,.1,0,.3,0s.5,0,1-.1c.5,0,.9-.2,1.3-.4-.3.2-.7.5-1.1.7-.4.3-.7.4-.8.4s-.3,0-.2,0,0,0-.1-.1c0,0-.1.2-.1.3,0,0,0,.2-.1.3-.1,0-.3,0-.4-.2-.1-.2-.3-.3-.4-.5h0s0,0,0,0,0,0,0,0c0,0,.2.3.4.7v.5c-.2-.2-.3-.5-.4-.8,0-.3-.3-.5-.6-.5-.2.4-.2.6-.1.6,0,0,0,.2,0,.6h-.8s0,.3.1.8c0,0-.1,0-.1,0s0,0-.3,0-.4,0-.5-.1c-.2,0-.4-.2-.6-.3,0,0-.1.2-.1.5,0,.2,0,.4,0,.7-.1,0-.3,0-.6,0-.2,0-.4,0-.6,0s-.2,0-.3-.2c0-.1-.2-.2-.4-.2s-.3,0-.3,0,0,0-.3,0-.3,0-.3-.1,0-.2-.1-.3c0,0-.2.2-.2.2,0,0-.2,0-.4,0s-.3,0-.4.1c0,0-.1.1-.2.1,0-.2-.2-.4-.3-.6,0-.1-.2-.3-.3-.6,0,0-.1.2-.2.2-.1,0-.2.1-.2.2,0,0-.4-.1-.8-.1h-.9c0-.2-.1-.4-.2-.7-.1-.3-.3-.5-.5-.6,0,.3-.3.5-.6.6-.2-.2-.4-.3-.6-.3,0,0,.2-.2.4-.3.1,0,.3-.2.4-.3,0,0,0,.2,0,.3,0,0,0,.2,0,.3,0,0,.2,0,.2-.1,0,0,.2-.2.3-.2-.2-.2-.5-.4-.7-.6-.2-.2-.4-.4-.7-.6,0,.1-.2.3-.2.4,0,.1-.2.2-.3.2,0,0,0-.1,0-.2,0,0,0-.2,0-.3-.2,0-.4-.2-.8-.5-.3-.3-.4-.6-.2-1-.1-.1-.4-.2-.7,0,0-.2,0-.4.1-.5,0,0-.2-.1-.2-.1,0,0-.2,0-.3,0,0-.6-.2-1.3-.2-2,0-.7,0-1.3.1-1.7-.3-.9-.7-1.8-1-2.5-.4-.7-.5-1.3-.5-1.8l1.7-1.7c.1-.5.3-1,.5-1.5.2-.6.4-1.1.6-1.7,0,0,0-.2-.1-.5,0,0,0,0,0,0h.3c.1,0,.2,0,.3-.1s.2-.2.3-.2c0,0-.2-.2-.3-.2,0,0-.2,0-.3-.2,0-.2,0-.4.6-.6-.1-.1-.2-.3-.1-.4,0,0,0-.2-.3-.3.2-.2.3-.4.3-.6,0-.2,0-.4,0-.6,0,0,.1-.2.3-.4.1-.2.2-.3.3-.4,0-.1,0-.3.1-.5,0-.2,0-.4,0-.7.1,0,.4,0,.6,0-.1-.3-.3-.4-.5-.4v-.5c0,0,.2-.2.3-.2.1,0,.2-.2.4-.2.1,0,.2.1.1,0,0,0-.2-.1-.4-.2,0-.2.1-.4.3-.5.1,0,0-.3-.1-.5,0,0,.1-.3.1-.5s0-.4.1-.6c0-.2.3-.4.5-.6.2-.2.4-.4.5-.6,0,0-.1-.1-.1-.2-.1-.1,0-.2.3-.2.2-.2.3-.5.4-.9,0-.4.1-.6.2-.9.1-.3.2-.6.3-.8s.2-.5.2-.8v.3c0,0,0,.2.1.3.3-.1.4-.5.4-1,0-.5,0-.9-.2-1.1.4.1.7,0,.8-.3.1-.4.4-.8.9-1.3-.1-.1-.3-.2-.5-.2,0-.3.3-.8.7-1.3.4-.5.8-.9,1.4-.9h0c0,0,0,0-.1-.1,0,0,0,0-.1,0,.1,0,.3-.3.6-.6.2-.3.4-.5.6-.5s.3,0,.2.1c0,0,0,.1.2.1s.3,0,.5-.2c.2-.1.3-.3.5-.4v.4c.1.2.3.3.4.3,0,0,.2,0,.4,0,.2,0,.4,0,.6-.1.2,0,.5,0,.9,0l-.6.6.3.2c.1,0,.3-.2.5-.3.2,0,.2-.2.2-.3,0,.3,0,.7.3,1,.2.4.5.6.8.8.1,0,.2-.2.1-.2,0,0-.1,0-.2-.2,0,0,.2-.2.4-.3.2-.1.3-.2.4-.3,0,.2,0,.5.2.8.1.3.1.5,0,.8,0,0,0,.1-.1.1s0,.1,0,.4l.3-.3c.3.3.7.4,1.1.4s.3,0,.2-.1c0,0,0-.1,0-.1,0,0,0,.2.1.5,0,.2.2.4.4.6h-.2s-.1,0-.2.1c0,0,.2.2.5.2.2,0,.4.1.5.3,0,.2.1.4.1.5s0,.3,0,.5c0,.1.2.4.3.6,0,.3.2.6.2.8,0,0,.2,0,.2-.1,0,0,.2-.1.3-.1-.5.3-.8.7-1,1.1,0,0,.1.2.1.2s0,0,.3,0,.3,0,.3,0,0,0,.1,0c0,.1-.2.3-.3.5-.1.2-.3.4-.5.5,0,0,.1.2.1.2s0,0,.3,0,.2,0,.2-.1c0,0,.2,0,.7,0,0,.1-.2.3-.3.5-.1.2-.2.3-.4.4v.3c0,0,0,.1.3.1s.3,0,.3,0,0,0,.1,0c0,.2-.1.4-.2.6,0,.2-.2.3-.4.4,0,0,.2.2.3.2,0,0,.1.1.1.3s0,.3-.1.2c0,0-.1,0-.1.1,0,.2,0,.3,0,.4-.3,0-.4.2-.5.4,0,.2,0,.4-.2.6-.2,0-.5.2-.8.2-.3,0-.6.1-.9.2-.3,0-.5.2-.7.3-.2.1-.3.3-.2.5,0,.2.2.3.5.2,0,0,0,.3-.2.5-.1.2,0,.5.4.7-.2,0-.4.2-.4.3s0,.2,0,.4c-.1.1-.4.2-.8.2,0,0-.1.2-.1.3s0,.2.1.2h-.7c-.2,0-.5,0-.8-.2v.7c.1,0,.4,0,.7,0,.3,0,.5,0,.9,0,0,0-.2.2-.3.4s-.2.3-.3.5c-.2-.3-.4-.4-.7-.4s-.6.2-.8.7c-.1.5-.1.8,0,1-.2.2-.5.4-.8.6-.3.2-.6.4-.8.7-.1-.2-.3-.4-.6-.4l-.2.3c0,0,.1.2.6.4-.1,0-.3,0-.5.1,0,0-.1.1-.1.2,0,0,0,.2,0,.2-.2.1-.4.3-.6.5-.2.2-.4.3-.6.5-.1,0-.3.2-.5.2-.2,0-.3.1-.4.3,0,0,0,.2.1.4-.4.2-.7.4-.9.6-.2.2-.6.4-1,.5,0,0,0,.1,0,.3-.4.2-.9.4-1.3.7-.5.3-.9.6-1.3,1.1,0,0-.1.3-.1.6s0,.4-.2.4-.3,0-.2,0c0,0,0,0-.1.2v.8c.2,0,.4-.2.4-.2,0,0,.1,0,.2,0,.1.1.2.3.2.6s0,.5-.1.8-.2.5-.4.5-.3,0-.2,0c0,0,0,0-.1,0v2.3c0,0,.2.2.3.2,0,0,.2.1.3.2l-.4.4c0,0,.2.1.3.1.1,0,.2,0,.4,0,0,.2,0,.4-.1.5.2.2.4.4.8.6.3.2.6.3.8.3s.6,0,1.3-.2c.7-.1,1.3-.3,1.8-.6,0,0,.2-.1.3-.3,0-.1.2-.2.4-.2s.3,0,.3,0,0,.1.1.2c.1-.1.3-.3.4-.6.1-.3.3-.5.5-.6.4-.2.8-.4,1.2-.6.4-.2.8-.4,1.2-.7,0-.1.2-.4.3-.7,0-.3.2-.5.4-.5s.2,0,.1,0c0,0,0,.1,0,.2,0-.2.2-.4.4-.6.2-.2.4-.3.6-.3s.3,0,.4,0c0,0,.1,0,.2,0,0-.1.2-.3.2-.5,0-.2,0-.4,0-.5l.4.2h.4c0,0,0-.2,0-.2,0,0,0,0,0-.2,0,0,.2,0,.4.3h.5v-.5c0-.2,0-.4.1-.6h.5s0,0,0,.1c0,0,0,0-.1.1,0,0,0,0-.1.1.4,0,.7-.2.7-.6,0-.4.2-.8.4-1.1.2.2.2.4,0,.5,0,0,.2.2.3.3.1,0,.2.2.4.3-.2,0-.4,0-.6.3,0,0,.2.2.2.2s.2.1.2.3c0-.2,0-.5.2-.8.2-.3.1-.6-.3-1,.3,0,.5,0,.6,0,.1,0,.2,0,.3,0l.2-.2c0-.1-.2-.3-.2-.4,0-.1-.1-.2-.1-.4l.3.3c0,0,.2,0,.3,0,0,0,.2,0,.4,0s.4-.1.7-.4c.3-.2.6-.5.8-.7v-.4c-.3-.1-.5-.1-.8,0,0,0-.1.2,0,.2s.2.1.2.1c-.1,0-.3.1-.6.1-.2,0-.4,0-.6.1v-.5c0,0,.2,0,.2,0,0,0,.2,0,.4,0s.3-.1.4-.4c.1-.2.2-.4.2-.6.4.2.6.5.7.9,0,.4.3.9.5,1.4.2-.1.4-.3.5-.6.1-.2.2-.5.1-.7h0c0,0,0,0-.1-.1,0,0,0,0-.2,0-.2,0-.3,0-.2,0,0,0,0,0-.1,0,.2-.1.4-.4.5-.7,0-.4.1-.6,0-.8.2.2.4.4.4.7,0,.3.2.4.7.5v.8Zm-22.4-8.9v-.2c0,0-.5.2-.5.2h0c0,.1.5,0,.5,0Zm.4,3.9v-.2h-.4v.2h.4Zm.5-2.4l-.6-.8h-.1c0,.1.6.9.6.9h.2Zm.4.4v-.2h-.9v.2h.9Zm-.5-3.9h-.2c0,0-.1.3-.1.3h.1c0,0,.2-.3.2-.3Zm.8-2.9c0,0-.1-.2-.1-.2h0c0-.1-.7-.1-.7-.1v.5c.2,0,.4,0,.5.2l.4-.4Zm.7-.6h-.1l-.3.8h.2l.2-.8Zm0-2.3h-.2c0,0-.2.3-.2.3h.2c0,0,.2-.3.2-.3Zm0,3.6s0,0,0-.1c0,0,0,0-.1,0,0,.3-.1.5,0,.6s0,.2,0,.3c0,0,.2-.3.3-.6,0,0,0,0,0-.1Zm.3-4.4h-.2c0,0,.4.4.4.4v-.4Zm0,15.6v.5s.2,0,.6-.3l-.6-.2Zm1.1-7.3h-.2c0,0-.1.3-.1.3h.2c0,0,.1-.3.1-.3Zm-.2-5.4v.2c0,0,.4,0,.4,0l-.4-.2Zm.8,11.6s0,0,0-.2h-.5s0,0,0,.1,0,0,0,.1c0,0,0,0,0,.1l.4.4c0,0,.2-.2.4-.4,0,0,0-.2,0-.2Zm-.1-6.3h-.2l.2.6v-.6Zm.1,1.4h-.2c0,0-.1.4-.1.4h.2c0,0,.1-.4.1-.4Zm9-10.9h-.3c0,0-.2,0-.3-.1,0-.2.1-.6.2-1.1,0-.5,0-.9-.1-1.1,0-.2-.3-.4-.6-.6-.3-.2-.5-.4-.6-.4h-.6c-.2,0-.4,0-.5,0,0,0-.2.2-.3.4-.1.1-.2.3-.2.4,0,0,.1.2.2.2s0,0,0,.2c0,0-.2,0-.2-.1,0,0-.1-.2-.2-.3,0,0,0,.2,0,.3,0,0,0,.2,0,.3,0,0-.1,0,0,0s0,0-.2,0-.3,0-.3.2c0,.1-.1.2-.2.3,0,.6,0,1-.2,1.3-.1.3-.3.6-.5.8-.2.2-.3.4-.4.7,0,.2-.1.5-.1.7s0,.5-.1.8c0,0-.1,0-.1,0,0,0,0,0-.2,0s-.3,0-.4.1l-.2.2c0,0,.2,0,.3.1,0,0,.1.2.1.3-.3.3-.5.6-.6,1-.1.4-.4.5-.6.5,0,0,.2.2.4.3.1.1.3.2.4.4-.1.2-.3.5-.4.9-.1.4-.4.7-.8.7v.8c0,.4-.1.7-.2.8-.1.2-.1.4,0,.7-.1.4-.4.8-.7,1.1,0,0,.2,0,.3,0,0-.1.2-.2.4-.2s.3,0,.4.1.2,0,.2,0c-.2-.3-.2-.5,0-.6.2-.1.4-.3.7-.4.3-.1.5-.2.7-.4.2-.1.2-.4,0-.6.1,0,.3,0,.4.1.1,0,.2.1.3.1-.1-.3,0-.7.2-1.2.3-.4.6-.8.8-1.1.1,0,.3.2.4.2,0,0,.2,0,.4,0s.3,0,.4-.2c0-.1.2-.2.2-.3,0,0-.2,0-.2-.1,0,0-.2-.2-.2-.3,0,0,0,.2,0,.2s-.1,0-.2,0c0-.2.2-.4.6-.6,0,0,0-.2,0-.2,0,0,0,0,0-.2.2,0,.3,0,.4.1,0-.1,0-.4.1-.8h.4c-.2-.3-.2-.5-.1-.7,0-.2.2-.3.4-.4.2-.1.4-.2.6-.2.2,0,.4,0,.5,0-.3,0-.5,0-.6-.1v-.4c.4-.4.7-.8.9-1.2.3-.4.5-.8.7-1.2Zm-8.1-3.3h-.6c0,0,0,0,0,.1,0,0-.1.2-.1.2h.5l.3-.4Zm.1-.9c0-.2-.3-.4-.8-.6.1.2.3.4.4.4.1,0,.2.1.4.2Zm.3-.7c0,0,0-.2-.3-.2-.3,0-.4,0-.5,0,0,0,.2,0,.3,0,.1,0,.3,0,.5,0Zm0,4.4l-.6-.3v.2c0,0,.6.3.6.3v-.2Zm0-5.3v-.2c0,0-.4.1-.4.1v.2h.4Zm.4,16.5v-.2c0,0-.5.1-.5.1v.2h.5Zm1.4,3.3h-.6c0,0,0,.2-.1.3,0,0-.1.2-.1.3.4-.2.6-.4.8-.6Zm.1-14.3c0,0-.1-.2-.1-.3v-.3c-.1,0-.3.1-.6.4,0,0,.1.2.1.2h0c0,0,.6,0,.6,0Zm.5-3.1v-.2h-.6c0-.1,0,0,0,0h.6Zm1.5,15.2c-.2.1-.5.2-.7.2-.2,0-.4,0-.5,0,0,.1.2.3.3.5.1.2.2.3.3.3,0,0,0-.2,0-.3,0-.1,0-.2,0-.4,0,0,.3,0,.6.1v-.5Zm1.4,14.7h-1.1c0-.1,0,0,0,0,.1,0,.3,0,.5.1.2,0,.3,0,.5,0v-.3Zm0-18.2v-.2c-.1,0-.7.5-.7.5v.2c.1,0,.7-.5.7-.5Zm.5,2.7v-.2h-.4v.2h.4Zm.4,17.5s0-.1-.1-.2c0,0,0,0,0-.1l-.4.4h.6Zm1-26.4c0,0-.2,0-.3.1l-.3.3c0,0,.3,0,.7.1-.2-.2-.3-.4-.1-.6Zm0,23.3v-.3h-.6v.3h.6Zm.3-1.6h0c0-.1-.4,0-.4,0v.2l.4-.2Zm-.3.6s0,0,.1.1c0,0,.2.1.2.2,0,0,0-.2.2-.4h-.6Zm1.3-1.7h-.1c0,0-.2.3-.2.3h.2c0,.1.1-.3.1-.3Zm.7-14.7c-.1,0-.2.1-.3.1,0,0-.2-.2-.2-.4,0-.2-.2-.4-.5-.5,0,0,.2,0,.2,0,0,0,.2,0,.2.1,0,0,0,0,0-.1h0c0,.1,0,.2,0,.2.1,0,.4.3.8.7,0,0-.2-.1-.3,0Zm0-5.2c0,0-.2,0-.2,0,0,0,0,0,0,0-.2,0-.4.2-.4.5s0,.3,0,.3c0,0,.1,0,.2.2,0,0,.2,0,.4-.2v-.6Zm.8,21.2h0c0-.1-.5,0-.5,0v.2l.6-.2Zm.6-21.5h-.2c0,0-.1.3-.1.3h.2c0,0,.1-.3.1-.3Zm.4,19.2s-.1.1-.2.2c0,0,.3-.1.6-.4-.2,0-.3,0-.4.1Zm.9,3.1c-.1,0-.3,0-.5,0-.2,0-.3,0-.5,0s-.1,0,0-.2,0-.3,0-.4c.1,0,.3,0,.5.2.2.1.3.2.5.3Zm.6-6.5h-.3v-.4h.3v.4Zm-.3,6.5l.2-.2c0,0-.1-.2-.1-.2,0,0,0-.2,0-.2,0,0,.2.3.2.7h-.4Zm.3-4.3v.2c0,0,.4,0,.4,0l-.4-.2Zm.9-.9s0,0,0-.1h-.5c0,.1.3.3.7.4,0,0-.1-.2-.1-.2Zm2.6-3.8c-.1,0-.3,0-.4-.2-.1-.1-.3-.2-.5-.2s-.3,0-.3.1c0,0,0,.2-.2.3,0-.2,0-.4.2-.6s.3-.3.5-.4h0c0,.2,0,.3,0,.4,0,0,.1.2,0,.2,0,0,0,0,.1,0,.3,0,.4.1.4.4Zm1-.6c0,0-.1.2,0,.3,0,0,0,.2,0,.3l-.6-.6h.6Z" style="fill:#124c87;"></path><path d="m116.1,60.4c0,.2-.1.4-.3.5l-.3.2c0,0-.1-.2-.1-.2,0,0,0,0-.1-.2l-.5.5h0c0-.1,0-.2-.1-.3,0,0-.2.1-.3.1s-.2,0-.3.2c.2,0,.4.2.7.4.3.2.5.4.5.6,0,0-.2,0-.4,0-.2,0-.5,0-.9,0,0,0-.1.2,0,.3,0,0,0,.2-.3.4,0,.1.2.3.5.4.2,0,.4.2.5.3-.1,0-.3,0-.4,0-.1,0-.2,0-.3,0-.2,0-.3,0-.2-.1,0,0,0-.2-.1-.2-.1.2-.2.4-.3.4,0,0,.2.2.3.2.2,0,.3.2.4.2h0s0,0,0,0,0,0-.1,0c-.1,0-.3,0-.4.1,0,0-.2.2-.3.2,0,.2,0,.3.2.3,0,0-.1.2-.2.3-.1.1-.2.3-.1.6-.2,0-.4-.2-.5-.2s-.2,0-.2.1c0,0,.2.2.2.2,0,0,.1,0,.2,0s.2,0,.2,0c0,0,0,0,.2,0-.1.1,0,.3.2.6,0,0,0,.2,0,.3,0,0-.1.1-.2.1s-.2,0-.2,0,0,0,0,0c-.1,0-.2.2-.2.3s0,.2-.2.3c0-.1-.1-.2-.4-.2v.3c.3,0,.5.1.7,0,0,0-.2.2-.2.3,0,0-.1.2-.2.3-.2,0-.4,0-.6-.2l-.2.2c0,0,0,.2.2.3.1.1.3.2.5.4h-.4c-.2,0-.4,0-.6-.1,0,.3,0,.6.2,1.1,0,0,0-.1-.2-.3-.2,0-.4,0-.6.2-.2.2-.3.4-.4.6-.2,0-.4-.2-.4-.2h-.1c0,.2,0,.3,0,.5,0,.1,0,.2,0,.3-.5,0-.8,0-.9.3-.1.2-.3.3-.4.3s-.2,0-.1,0,0,0-.1,0-.3.2-.4.6c0,0,.2,0,.3.2l.4-.4c.2,0,.4,0,.5-.1.2,0,.3-.1.4-.2,0,0-.2-.2-.2-.2s-.1,0-.1-.2c0,0,.1,0,.1,0s0,0,.2,0,.5,0,.8-.2c0,0-.2.1-.2.2,0,0-.2.2-.4.3,0,.2-.1.4-.1.5,0,.1-.1.3-.4.6,0,0-.1-.1-.3-.4,0,0-.1.2-.3.4-.1.2-.2.3-.1.5,0,0-.2,0-.4.2-.2.1-.3.3-.4.4-.2-.2-.5-.4-.7-.4h-.2c0,0,.2.2.2.3,0,0,.2.2.2.2,0,0-.2,0-.2.1,0,0-.2.1-.4.1h-.3c0,.3-.2.5-.3.6,0,0-.2.2-.4.2,0,0-.2-.1-.2-.2,0-.1,0-.2-.2-.3-.3.2-.6.4-.7.8-.2,0-.4-.1-.6-.2-.2,0-.4-.1-.6-.1s-.2,0-.2,0,0,0-.2,0-.3,0-.5-.2c-.2-.1-.4-.2-.5-.2s-.2,0-.4.1c-.2,0-.4,0-.6,0,0,0,0-.2.2-.4,0-.3-.3-.4-.6-.4s-.3,0-.4.1c0,0-.2.1-.4.1s-.2,0-.3-.1c0,0-.1-.2-.2-.3-.2.2-.2.4,0,.5,0,0-.2.1-.4.1h-.4c.1,0,.3,0,.4-.2-.3-.1-.6-.3-.9-.4-.3,0-.6-.2-.8-.4,0-.1,0-.2,0-.3h-.1c0-.1,0-.1,0-.1h0c0-.1,0-.2,0-.2,0-.1,0-.2-.1-.2,0,0-.1,0-.2-.2-.1,0-.3.2-.4.2,0,0-.2.1-.3.1-.1,0-.2,0-.1,0,0,0,0,0,0-.2-.1.2-.2.3-.2.3,0,0,0,0,0,.2l-.3-.3v-.3c0-.1,0-.2.2-.2.1,0,.2,0,0,0,0,0,.2,0,.3,0,0,0,0-.1,0-.2,0,0,0-.1-.2-.1s-.3,0-.4,0c0,0-.1,0-.2,0,0,0,0-.2,0-.2s0-.1.1-.2h-.3c0-.1-.5.3-.5.3,0-.2,0-.4-.2-.4.2,0,.4,0,.4,0v-.4l-.2-.2c0,0-.1.1-.2.1s-.2,0-.3.1c0,0,0-.1.2-.3l-.4-.5v-.4c0,0,.2,0,.3,0,0,0,.3,0,.5,0-.2,0-.4-.2-.6-.3-.2,0-.4-.2-.7-.3,0-.2,0-.4.1-.6,0-.2,0-.4.1-.5,0,0-.2-.1-.6-.2v-.3c0-.2,0-.4-.2-.6-.1-.2-.2-.4-.3-.8,0,0,0-.1,0-.2,0,0,0-.2.1-.2,0,0,0-.1,0-.2,0,0-.2-.2-.2-.2,0-.2-.1-.5-.1-.8,0-.3,0-.5,0-.8,0,0,0-.1-.1-.2,0,0-.2-.2-.2-.2,0-.1,0-.3,0-.5,0-.2,0-.3,0-.5,0-.3-.3-.6-.5-.9-.3-.3-.3-.6-.1-.8-.2-.2-.5-.5-.7-.9-.2-.4-.3-.6-.3-.7s.2-.3.5-.7c.3-.4.5-.6.6-.8,0-.6,0-1.2,0-1.7,0,0,.2-.2.3-.4.1-.2.2-.4.2-.5s0-.2-.2-.4c-.1-.1-.2-.3-.2-.4s0-.4.2-.8c.2-.4.3-.7.3-.8.2,0,.4.2.4.6.1,0,.3-.1.4-.4,0,0-.1-.2-.2-.4,0-.1-.3-.2-.5,0v-.9c0,0,0-.3.3-.5.2-.2.3-.4.4-.5,0,0,0-.2-.1-.3-.1,0-.2-.2-.3-.4.3-.1.5-.3.6-.4,0-.1,0-.2,0-.4,0-.1,0-.2,0-.4s0-.3.3-.5c0,0-.1-.2-.2-.2,0,0-.2-.1-.2-.2v-.6c0,0,.3,0,.6-.3,0-.2,0-.4-.1-.5,0-.2,0-.3,0-.5.3,0,.5,0,.8-.2,0,0-.1,0-.2,0s-.2,0-.3,0v-1.6c0,0,.2-.1.6-.1,0-.2,0-.4,0-.4,0,0,0-.1,0-.2,0-.1,0-.3.3-.4.2,0,.3-.2.4-.3h-.1c0,0-.2,0-.4,0v-.4c.1,0,.3,0,.6-.2,0,0-.1-.1-.2-.1,0,0-.2,0-.2,0,0,0,.2-.2.3-.4,0-.1.2-.2.4-.2,0,0,0-.1,0-.2,0-.1,0-.2.1-.3,0,0-.1,0-.2,0s-.2,0-.3-.1c.2,0,.4-.2.5-.4.2-.1.3-.3.5-.4,0,0-.2-.2-.2-.3,0-.1-.1-.2-.2-.2s-.2,0-.3.1-.1.1-.2.2c.1-.2.3-.5.4-.7,0-.3.2-.5.4-.7,0-.2-.2-.3-.4-.4,0,0,.4-.3.8-.7.4-.4.6-.7.6-1s0-.4-.3-.6c0-.2,0-.4-.2-.5.2,0,.3-.2.4-.3s.2-.1.4-.1c0,0,0-.1,0-.2,0,0,0-.2,0-.3,0-.1,0-.2-.2-.3-.1,0-.2-.1-.4-.2,0,0,0-.2.2-.4,0-.2,0-.4.3-.7h-.2v-.5c0,0,0-.2,0-.4,0-.1,0-.3,0-.4.2,0,.4,0,.5.1.1,0,.3.1.4.1v-.4c0,0-.2-.1-.3-.1-.2,0-.3,0-.4,0,0-.2.2-.5.4-.7.2-.3.3-.5.2-.7,0,0,0-.2.2-.4.1-.2.3-.3.4-.5,0-.1,0-.4,0-.8.1-.4.3-.6.6-.6,0,0,0-.2-.1-.3,0,0-.1-.2-.1-.4h.7s0-.2,0-.4c0-.2,0-.3-.3-.4v-.6h.4c0,0,0-.2,0-.2,0,0,0-.1,0-.2,0-.2.2-.4.2-.5s0-.2,0-.4c0,0,.2-.2.4-.3s.3-.1.4-.1c0-.2.2-.5.4-.7.2-.2.3-.4.5-.6h1.1c0-.2,0-.4.3-.8,0,0-.2-.1-.4-.3,0,0,0-.1.2-.4,0,0-.1-.1-.2-.1s-.2,0-.3,0v-.5h0s.1,0,.2.1c0,0,0,0,0,0s0,0,0-.1c0,0,0-.2,0-.2,0,0,0-.2,0-.2,0,0,.2,0,.2,0,0,0,.1,0,.2,0,0,0,0-.2-.1-.3,0-.1,0-.2-.2-.3,0,0,.1,0,.2,0,.1,0,.2,0,.2.2.1,0,.3,0,.4-.2,0,0-.2-.2-.4-.2-.2,0-.3-.2-.4-.4,0,0,.1-.2.2-.4,0-.2.1-.4.1-.5.5-.2.8-.3,1.1-.4,0-.2,0-.4.1-.6s0-.4,0-.6c0,0,.2.2.4.2.2,0,.3,0,.3.2.1-.1.2-.3.3-.4,0-.1.1-.3.3-.4,0,0-.2-.1-.2-.1s-.2,0-.2-.1c0,0,.2,0,.2,0,0,0,.1,0,.2,0s.4-.2.6-.7c.2-.5.3-.8.3-1.1,0,0,0,0,.1-.1,0,0,0-.1,0-.3,0,0,.2,0,.4,0,.2,0,.3,0,.3,0,.3,0,.6,0,.7.1.1,0,.2.2.3.4,0,.2.1.3.2.5,0,.2.1.4.3.5.3-.2.4-.2.4,0,0,.1.1.3.3.4.1-.1.3-.4.4-.7.1-.3.3-.4.6-.2,0,0,.1.3.5.6-.2,0-.4,0-.4,0v.4s0,0,0,.1c0,0,0,0,.2,0,.2,0,.4,0,.5-.2,0-.1.2-.1.5,0,0,0,0,.1,0,.2,0,.1,0,.2-.2.2s-.2,0-.2,0,0,0,0,.2c0,.3.3.4.5.5.3,0,.3.2.2.6h-.2s-.1.2-.3.4c-.1.2-.3.4-.6.5v.3c0,0,.2.1.3.2.1,0,.1.2,0,.4,0,0,.2,0,.3.1.1,0,.2,0,.1-.2v.3s0,0-.3.2c0,0,.2.1.2,0,0,0,.2,0,.2,0v.4c-.1.1-.3.3-.5.6-.2.2-.2.4-.2.6s.1.3.3.5c.2.2.4.3.5.5,0,0,0,.2,0,.4,0,.1-.1.3-.1.4.2.2.4.5.4.9s-.2.4-.5.6h.1c0,.1.1.3.1.3v1.1c0,0-.2,0-.2,0,0,0-.2,0-.2.1,0,0,.2.1.4.2,0,.3-.2.6-.4,1,0,0,0,.2,0,.2,0,0,0,.2,0,.2,0,.2-.2.4-.3.5,0,.1-.3.2-.5.3,0,0,.1.2.1.2,0,0,0,0,.2,0s.2,0,.1,0c0,0,0-.1,0-.2,0,0,0,0,0,.1,0,0,0,.1.2.1s.2,0,.2,0c0,0,0,0,.1,0-.2.5-.4.7-.6.8-.1,0-.4.3-.7.6,0,.2.2.3.3.4l.3-.2s0,.2,0,.5c0,.3-.2.4-.5.4h-.4s0,0-.2.1c0,0,.2.2.4.4.2.1.3.3.4.4,0,.3-.2.6-.3.9-.2.3-.3.6-.5.9-.2.3-.3.6-.5.9-.1.3-.2.6-.2.9-.1.2-.3.5-.4.8-.1.3-.2.5-.2.7,0,0-.2.2-.4.3-.2.1-.3.2-.4.3.1.1.3.2.4.3,0,0,0,.2-.1.2s-.1.1-.2.2c0,0,0,.3.2.7,0,0-.1.1-.1.2s0,.2-.2.2-.2,0-.2,0,0,0-.1,0c-.1,0-.1.2,0,.6-.2,0-.3.1-.4.4,0,0,0,.1.2.1,0,.2-.1.4-.4.4,0,.5,0,1-.4,1.3-.4.4-.6.7-.8,1h0c0,.2,0,.2,0,.2-.1.3-.3.7-.5,1.1-.2.5-.4.9-.6,1.3-.2.4-.4.8-.5,1.1-.2.3-.3.5-.4.5h-.6s0,0,.2.1c.1,0,.2,0,.3.2-.3.4-.6.7-.9,1-.3.3-.7.6-1.1.9,0,0,0,.1.1.1,0,0,0,0,.1.1,0,0,.1,0,.1.2,0,.2,0,.3,0,.5-.3.4-.6.8-.9,1.3-.4.5-.6,1-.7,1.4-.5.2-.8.5-.9.9-.1.4-.3.7-.6,1,0,0-.1,0-.3,0,0,0,.2,0,.2.1,0,0,0,.1,0,.3s0,.2-.2.2c-.1,0-.2.1-.3.2,0,.6,0,1,0,1.4-.2,0-.4,0-.5,0,0,0-.2,0-.3,0,0,0,.2.1.2.2,0,0,0,.1.1.1,0,0,0,.1,0,.3s.2.3.4.4c0,.1-.2.3-.5.4.2.2.3.3.4.4,0,0,0,.2-.1.2,0,0-.2.1-.3.2v.4c0,0,0,0,0,0,0,0,0,0,0-.1,0,0,.1.2.1.2,0,0,0,.2.1.2,0,0,.1,0,0,.1,0,.1-.1.3-.1.4,0,0,0,.3,0,.5s0,.4-.1.5c.2.1.4.3.5.4.1,0,.2.2.2.4s0,.4-.3.6c-.2.3-.3.5-.3.6s0,.2.1.2c0,0,.1.1.1.2,0,0,.2,0,.2-.1,0,0,0-.2.2-.2.2.3.3.5.3.8l-.3.3c-.2,0-.3.1-.4.4,0,0,.2.1.6.1,0,.2,0,.4,0,.6,0,.2.2.4.5.6,0,.2,0,.6,0,1,.2.2.5.5.7.9.2.4.2.7,0,1,.3.2.4.4.4.7,0,.3,0,.6.3.8.2.1.5.3.9.6s.6.5.7.7h.4c.2-.4.5-.7.7-.7.3,0,.5-.2.7-.4.6-.6,1.1-1.1,1.5-1.5.4-.4.8-.8,1.1-1.3.4-.2.6-.5.7-.9.1-.4.3-.4.7-.2,0-.2.2-.5.2-.7,0-.2.1-.3.2-.3l.4.3c0,0,.1-.2,0-.4,0-.2,0-.3,0-.5,0,0,0,.2.1.4h.4c.1-.5.2-.9.1-1.3.1-.2.2-.4.3-.6,0-.2.2-.4.3-.5-.1-.2-.1-.6,0-1,.2-.4.5-.8,1.1-1,0-.1,0-.2-.2-.2,0,0,.3-.3.8-.5.5-.3.9-.5,1.3-.6v-1.1c0,0-.3,0-.6,0v-.6c.1,0,.2-.2.3-.5,0-.2.2-.3.3-.3s.3,0,.2,0,0,0,.1,0,.2,0,.2-.1c0,0,0-.1.2-.1s.2,0,.1,0c0,0,0,0,.1,0,.2,0,.4-.1.5-.4,0,0,.2,0,.2,0,0,0,.1,0,.2,0,0,0,0,.2,0,.2,0,0,0,.2,0,.2.2,0,.3-.1.3-.4,0,0,.2,0,.3,0,.1,0,.2,0,.3,0,0,0,0,.2,0,.4,0,.2,0,.3,0,.5.2.1.4.2.6.1,0,0,0,0-.1.2,0,.1,0,.2,0,.2-.1-.1-.3-.2-.4-.2h0c0,.5,0,.7.3.7s.4,0,.8,0c0,.2-.2.5-.2.7Zm-21.8,6h-.8c.1,0,.2,0,.3.1,0,0,.2.1.2.1,0-.2,0-.3.3-.3Zm.3-20.1h-.1c0,0-.3.2-.3.2h0c0,0,.4-.2.4-.2Zm1,.5c0-.2-.1-.3-.1-.4h-.5c-.2.3-.3.4-.4.4s0,0-.1,0c0,0,0,0-.1,0h0c0,.1,0,.3,0,.5v.4c.3,0,.5,0,.6.2,0,0,0,0,.1,0,0,0,.1,0,.2,0s.3-.2.6-.6c0,0-.2-.2-.3-.4Zm-.4,6.5v-.2h-.6c0-.1,0,0,0,0h.6Zm.4-9.5h0c0,0-.2,0-.2,0s-.1,0-.2.1c0,0,.2,0,.6,0,0,0-.1,0-.1-.1Zm.2,20.8v-.2h-.3v.2h.3Zm0-24.1h-.2l.2.3v-.3Zm.1,26.7v-.4s0,0-.2,0h-.1l.4.3Zm.1-26.2v-.2h-.4v.2h.4Zm.1,9.3c0,0-.2,0-.2,0,0,0,0,0,0-.1,0,0-.2,0-.2.1,0,0-.1.2-.1.3.2,0,.4,0,.5-.2Zm0,19.6c-.1,0-.3,0-.4-.2,0,.1.4.3.8.4-.2,0-.4-.2-.5-.2Zm.9-9.3c0-.2,0-.3,0-.4,0,0-.2,0-.3.1,0,0-.2.1-.2.2,0,0-.1,0-.1-.1h0c0,0-.3.2-.3.2.2,0,.5.2,1,.5,0,0,0-.2,0-.4Zm0-22.4c0,0-.2.2-.3.3-.1,0-.2.1-.3.1,0,0,.2.1.3.2,0,0,.2.2.3.2v-.4c0,0,0-.5,0-.5Zm-.2,25.9c-.2,0-.4,0-.5,0,0,0,0,.2.1.3,0,.1.2.2.2.3h.6c0,0,0-.3,0-.6,0,0-.2,0-.5,0Zm.1,7.6l-.3.2s0,0-.1,0c0,0,0,0-.1,0h0c0,0,.3.2.6.4v-.5Zm0-36.2h-.2l.2.4v-.4Zm.2,6.9h-.4c0-.1,0,0,0,0h.3c0,.1,0,0,0,0Zm0,8.8v-.2h-.3v.2h.3Zm0,22.2h-.1v-.3c-.1,0,0,0,0,0v.4Zm.6-33.8h-.4c-.1.2-.2.5-.2.7,0,0,.2-.2.2-.4,0-.1.2-.3.4-.4Zm0,9.9v-.2h-.6v.2h.6Zm-.4,15.2h-.2c0,0,.4-.3.4-.3v.3Zm.4-22.2c-.2,0-.2,0-.2-.2,0,0,0,.1-.1.1h-.1c.3,0,.5.2.5.4h.4c0-.2-.2-.3-.4-.3Zm-.4-7.7c0,0,0,.2,0,.4,0,.1.1.3.1.4,0,0,.2-.2.4-.3-.2-.3-.4-.4-.6-.4Zm1.1-1.2c-.2,0-.4-.1-.6-.2-.1,0-.3-.1-.4-.2,0,.2,0,.4,0,.5,0,0,0,.2-.1.3.3.1.5.2.8.2s.2,0,.2,0h0v-.6Zm-.9,10h-.1l.3.6v-.6Zm.4-7.8c-.1,0-.2,0-.3,0,0,0,0,.1,0,.2,0,.1,0,.2,0,.2,0,0,.2-.1.4-.4,0,0-.1,0-.2,0Zm.4,6.6c-.1,0-.2.1-.2.4h.4c0,0-.2-.4-.2-.4Zm-.1,7.4v.2c0,0,.3,0,.3,0l-.3-.2Zm.4,4.3h-.1c0,0-.3.2-.3.2h.1c0,.1.3-.2.3-.2Zm-.1-10.5c0,.2,0,.3,0,.4h0c.2,0,.1-.2-.1-.4Zm.8-14.7s0,0-.2.1-.3,0-.4,0c0,0,.1.2.1.4v.3h.6v-.8Zm-.3,10.4s-.1,0-.2,0c0,0-.2,0-.2,0,0,0,.3.2.7.3,0,0,0-.2-.3-.4Zm0,12.3c0,0,0,.1-.1.1,0,0-.2,0-.3,0,.3.1.4.1.4,0Zm.4-21.1c-.1,0-.3.2-.5.4-.2.1-.2.3-.2.4h.6c0,0,0-.2-.1-.2,0,0,0-.1,0-.2.2,0,.3,0,.3-.3Zm-.4,6.9v-.2c0,0-.4.1-.4.1v.2h.4Zm0,3.8c0,0-.1.2-.1.2h0c0,.1.1,0,.3,0h-.1Zm.4-8c-.3,0-.4.1-.4.4.1,0,.4,0,.8,0,0-.2-.1-.4-.4-.4Zm.7-5.3h-.6c0,.4.2.6.4.6,0,0,0-.2,0-.2s0-.2,0-.4Zm-.3,17.7v-.2h-.3v.2h.3Zm1.1-20.6c-.3,0-.5,0-.6-.3.2-.2.4-.4.4-.4h-.6c0,0,0,.2,0,.3,0,0-.1.1-.2.1,0,0,.2.1.2.2,0,.1.2.2.2.3-.2.2-.4.4-.4.5.3,0,.7-.3,1.1-.8Zm-.7,3.5c0,0-.2,0-.2.2,0,.1-.2.2-.2.2,0,0,.2,0,.4,0,.1,0,.3,0,.4,0,0,0,0-.4,0-.8l-.3.2Zm-.1,14.4c-.1,0-.2,0-.2,0s0,0-.1,0c0,.2,0,.4.1.4.1,0,.4,0,.8,0,0-.3-.3-.4-.6-.4Zm-.2,1.1h0c0,.1.4.1.4.1h-.4Zm7.2-23.1c0-.4,0-.7-.1-.9-.4.6-.7,1.2-1,1.7-.3.5-.4,1.1-.4,1.6l-.3-.2c0,0,0,.2,0,.3,0,.1,0,.2,0,.3,0,.2-.2.4-.3.5,0,.2-.2.3-.3.4,0,.3-.2.6-.2.9,0,.4-.1.7-.2.9,0,.2-.3.5-.5.7-.2.2-.5.5-.7.8v.6s.1,0,.2,0c0,0,.1,0,.1.1-.1.2-.3.5-.4.8,0,.3-.2.6-.2.8h-.4c0,0,0,.2.1.2,0,0,.1.1.1.2-.3,0-.4.2-.5.3,0,0,0,.2,0,.3,0,0,0,.2.1.3,0,0,.1.2.1.4-.1.2-.3.4-.4.5-.1.1-.2.3-.1.6,0,0-.2.3-.3.5-.1.2-.2.5-.3.7.2.2.3.4.3.6,0,.2-.1.4-.1.5s0,.3-.1.5h-.4c-.1,0-.2,0-.2,0s0,0-.1,0c0,0,.2.1.2.1s.2,0,.2.1c0,0-.2.1-.3.1.2,0,.3,0,.4,0,0,0-.2.2-.2.2,0,0-.1.1-.2.2,0,0-.3-.1-.5,0-.3,0-.4,0-.4.1.2,0,.5.2.7.2.2,0,.4.2.4.5v.2h-.1c0,.1-.2,0-.2,0-.2,0-.3.1-.4.1.2,0,.3.2.4.2,0,0,0,.2,0,.4s0,.2-.1.5c0,.2-.1.4-.1.7h1.1c0-.4,0-.5.1-.6.1,0,.2-.2.3-.2-.1-.2-.2-.4-.1-.6,0-.2.1-.4.2-.6,0,0-.2.2-.2.2,0,0,0,.2-.2.2,0-.2,0-.4,0-.5,0-.1,0-.3,0-.4.6,0,1.1-.2,1.4-.4-.1-.1-.3-.2-.4,0l-.2-.2h0c0,.1,0,.2,0,.2v-.3c0-.2.3-.5.4-.8.1-.3.3-.4.4-.4s.4,0,.8,0c.4,0,.7,0,.9,0,0,0-.1-.1-.2,0,0,0-.2,0-.2,0,.2-.1.3-.3.3-.5,0-.2,0-.4,0-.5,0,0-.2.1-.2.2,0,0-.1.1-.2.1s-.2,0-.2,0,0,0,0,.2l-.3-.3c.2-.2.4-.3.6-.5.2-.1.4-.2.7-.4,0,0-.2-.2-.2-.2,0,0-.1,0-.2,0s-.2,0-.2-.1c0,0,0-.2-.2-.2v-.3c0,0,.2,0,.2,0s.2,0,.2-.1c0,0-.2-.2-.2-.3,0-.1-.2-.2-.2-.2.2-.2.4-.4.5-.6.1-.2.3-.3.7-.4,0-.1-.2-.3-.2-.5,0-.2,0-.3,0-.4,0,0-.1,0-.2,0,0,0-.1,0-.1-.1s0-.4.2-.6c.2,0,.5,0,.8-.2.3-.1.5-.3.5-.5s0-.4-.2-.8c-.1-.4-.3-.7-.4-1,0-.2.2-.4.4-.4,0,0,0,0,0-.3,0-.2-.2-.4-.2-.7,0-.3,0-.5.3-.6-.1-.1-.2-.2,0-.3,0,0,.2,0,.4,0,.1,0,.3,0,.4,0,0,0,0-.2-.1-.3,0-.1,0-.2,0-.2,0,0-.1,0-.1,0s0,0-.2,0-.2,0-.2,0v-.2c0-.2.2-.4.2-.5,0-.2.2-.2.2-.2.1,0,.2,0,.1,0,0,0,0,0,.2,0s.2,0,.2-.2v-.4c0,0,0,.1-.1.1s-.1,0-.2.1l-.2-.2v-.3c.2-.1.5-.4.7-.6-.3,0-.5-.3-.4-.7Zm-6.6,19c0,.1,0,.3-.1.5,0,.2,0,.3,0,.4h.4c0,0,.3-.2.5-.4-.3-.4-.5-.6-.7-.6Zm0-17.6h-.1c0,0,.3-.3.3-.3v.3Zm.5,9.3s0,0-.1-.1c0,0,0-.2-.2-.3v.4h-.1.4Zm.4-4.8l-.3-.4c0,0,0,.2,0,.3,0,0-.1.1-.2.1,0,0,.1.2.2.2s.1.2.1.2c0-.3,0-.5.3-.6Zm-.1,5.8c0,0-.2.1-.2.2,0,.1,0,.2,0,.3,0,0,.2-.2.2-.2s0-.2,0-.4Zm.2,13.6v-.2h-.4v.2h.4Zm-.3-25v-.2h.4l-.4.2Zm.3,4.3c-.1,0-.2,0-.3,0,0,0,0,.2.2.3.1,0,.2.2.3.3,0,0,.2-.3.3-.7-.2,0-.3,0-.5,0Zm.5,6.1c0,0,0,.1-.1.1,0,0-.2,0-.2,0,0,0,.1.2.4.4v-.4Zm1.1,13.4l-.3-.3c-.1,0-.2.2-.3.4,0,.1-.2.3-.4.4,0,0,0-.1,0-.4-.2.2-.3.4-.4.6v.4c.1-.3.3-.5.5-.5,0,0,0,.1.1.1h.1c0-.3.3-.6.6-.8Zm-.7-5.2c-.2,0-.3-.1-.4-.2,0,0,.1.2.2.3,0,0,.2.2.3.3,0,0,0,0,.1,0s0,0,.1,0h0c0-.1-.2-.2-.4-.2Zm0,5.1h0c0-.1-.3,0-.3,0h0c0,.1.4,0,.4,0Zm0-5.6c0,0,.1.2.1.2s0,.1.1.2c0,0,.2-.2.4-.4h-.6Zm.5,3.2l-.3-.4c0,0-.1.2-.1.3v.3c0-.2.2-.3.4-.3Zm.6-23.7c-.1-.1-.3-.2-.4-.3,0,0,0,.2-.1.2,0,0-.1.2-.1.2,0,0,.2,0,.2,0,0,0,.1,0,.2,0s.3.1.5.4c0-.1-.1-.3-.3-.4Zm-.2,25.7v-.2h-.4v.2h.4Zm1.1-8.1c0,0-.1-.1-.3-.1s-.3,0-.4,0c-.1,0-.2,0-.3,0,0,.2,0,.5,0,.7,0,.2,0,.4,0,.6,0,0,.3-.1.6-.3.3-.1.5-.2.6-.2,0-.2,0-.4,0-.5,0,0-.2-.2-.2-.3Zm-.6-18.8v.4c-.1,0,.4-.1.4-.1,0,0-.1-.1-.4-.3Zm.4,23.6h-.2l.2.4v-.4Zm1.1-3c-.1,0-.2-.2-.3-.2s-.2-.1-.4-.1-.2,0-.3.3c-.1.2-.2.3-.2.4.2,0,.4-.1.6-.2.2,0,.4-.1.6-.1Zm-.4-18.8v-.2h-.3v.2h.3Zm1.2-3.6c-.2,0-.3,0-.4.2,0,0-.1-.2,0-.2,0,0,0,0-.1,0h-.6c0,.2,0,.4,0,.6,0,.2,0,.4,0,.6.3-.2.4-.5.4-.8.2,0,.4,0,.7.3v-.6Zm-.1,20.7l-.5-.2v.2l.4.2v-.2Zm.4,33h-.4c0,0,0,.2,0,.2,0,0,0,0,0,.1l.3-.4Zm-.1-30.6v-.5c-.1.1-.1.3,0,.5Zm1-7.8c0,0-.1-.2-.1-.2h0c-.2-.1-.3-.1-.4,0,0,0-.2.1-.3.1h.1c0,.2,0,.2,0,.3h.6Zm-.3.3c0,0-.2-.1-.3-.1,0,0,0,.2-.1.3,0,.1,0,.2,0,.3,0-.1.3-.2.6-.3,0,0,0-.2-.1-.2Zm1.4-5.7c-.2,0-.4,0-.5-.1,0,.1-.2.3-.3.5,0,.2-.2.4-.3.5-.4,0-.6,0-.6,0,0,0,.2,0,.4.1.2,0,.3.1.4.2,0-.2.2-.4.4-.5.1-.2.3-.2.5-.2s.2,0,.3,0c0,0,.1,0,.2,0,0,0,0-.3.2-.6-.2,0-.4,0-.6,0Zm-.7,4.2c-.3.2-.5.3-.7.2,0,0,.2.1.3.3,0,.1.2.2.4.2s.3-.1.5-.4c0,0-.2,0-.4-.3Zm-.2-5.5c0,0-.2.1-.3.2,0,0-.1.2-.1.2h.4c0,.1,0-.4,0-.4Zm.1,1.2v-.2h-.6v.3h.6Zm0,41.9c-.2-.3-.4-.5-.4-.5v.5h.4Zm.8-33.7v-1c0,0-.2-.2-.3-.4-.3.1-.5.1-.8,0,0,0,0,.2,0,.3,0,0,0,.2,0,.3.1,0,.3.2.4.2.1,0,.2.1.3.2v.4h.5Zm-.5-10.1c-.2-.2-.3-.3-.3-.4,0,0,0,.1-.1.2,0,0,0,.2-.2.2h.6Zm.6,5.6c-.3-.1-.4-.4-.5-.7,0,0-.2,0-.2.2,0,.1,0,.3-.1.4-.2,0-.3,0-.4,0,.2,0,.4.2.5.2.2,0,.3,0,.5.1,0,0,.2.2.2.3,0,0,0,.2.2.2h.3c0-.4-.1-.6-.4-.7Zm-.1-9.6c0,0,0-.2-.2-.2-.1,0-.2-.1-.2-.2,0,0,0,0,0,0s0,0,0,0c0,0,0,0,0,.1h.6Zm-.1,3.4v-.2h-.4v.2h.4Zm1.3,5.3c0,0,0-.2-.2-.3,0,.1-.2.3-.3.4-.1.1-.2.2-.2.3v.4c0,0,.4-.3.8-.6,0,0,0,0-.1-.1Zm.6-6.5v-.2h-.7c0-.1,0,0,0,0h.7Zm1.9,40.2c-.1,0-.3-.2-.5-.3-.2,0-.3-.2-.4-.3-.5.6-1,1.1-1.5,1.4.2,0,.5-.1.7-.1s.5,0,.7,0c-.2-.3-.2-.5,0-.6h1.1Zm-1.4-34.9h-.1c0-.1-.7.5-.7.5h0c0,.1.8-.5.8-.5Zm-.1-1.1h0c0-.1-.4.1-.4.1h0c0,.1.4-.1.4-.1Zm0,40.7h-.2l.2.8v-.8Zm.2-44.4h-.2l.2.4v-.4Zm.4,2c-.1,0-.2,0-.2,0,0,0,0,.2,0,.4,0,.2,0,.4,0,.6,0-.1.3-.4.6-.9,0,0-.2,0-.3,0Zm.5-6.3h0c0,.1-.4,0-.4,0h0c0-.1.5,0,.5,0Zm0,45.2c-.2,0-.3,0-.4,0,0,.2,0,.4.3.6.2-.2.3-.4.1-.6Zm.6-2.5s0,0-.1,0c0,0,0,0-.1,0,0,0,0,0-.1,0,0,0,0,0,0,0s0,0,0,0,0,0,0,.1c0-.1,0-.3.2-.4Zm0,8.3h-.1v-.6c-.1,0,0,0,0,0v.6Zm.9-7.4c0,0-.1.2-.1.3s0,.2-.1.3h-.5c.2.2.4.4.6.4,0,0,.1-.3.4-.5v-.4Zm-.6,1.3c0,.1,0,.3,0,.4,0,.1,0,.2.2.3,0,0,0-.3.2-.7h-.4Zm.6-2.1c0,0,0,.1-.1,0,0,0-.2,0-.3,0v.5c.2,0,.3,0,.3.2,0-.3.1-.5.1-.7Zm1.3-2.4c-.3-.1-.5-.3-.5-.5.2-.1.3-.3.1-.4,0,0-.2.1-.4.1,0,.1,0,.3,0,.4,0,0,0-.2,0-.2,0,0,0,0-.1,0s-.2,0-.3.2c0,.1-.2.2-.2.3h1.3Zm.8,1.3c-.4-.1-.7-.3-.9-.5,0-.1,0-.2,0-.3,0,0,0,0,0,0s0,0,0,0h0c-.1,0-.3.2-.5.2-.2,0-.3.2-.3.2,0,.2.2.4.5.5.2.2.3.3.4.4,0,0,.1-.2.1-.2s0,0,.1-.2c0,.1.1.3.2.4,0,0,.1.1.2,0,0,0,0,0,0-.1s0,0,.2,0,.2,0,.1.1c0,0,0,.1.2.1s.2,0,.1,0c0,0,0,0,.1,0s.2,0,.2.1,0,.2,0,.2l.4-.3c-.1-.3-.4-.5-.8-.6Zm-1.7.3h-.2l.2.4v-.4Zm.3-3.6h-.1c0,0,.3-.4.3-.4v.4Zm0,.5h0c0-.1.3-.1.3-.1h-.3Zm2,.6c-.2,0-.4,0-.6,0-.2,0-.3,0-.4,0,0,0-.2-.2-.2-.4,0-.1,0-.3.2-.4v-.3h-.2c0,.1-.3-.2-.3-.2.4,0,.7.1.8.2,0,0,.2.1.3.1.1,0,.2,0,.1,0s0,0,0-.1c0,0,0,.3,0,.6s.1.5.3.6Zm1.8-1.1c0,0-.2,0-.4,0-.2,0-.2.1,0,.3-.2,0-.4.2-.5.4-.1.2-.2.4,0,.6-.2,0-.3,0-.4.1l-.3-.4s0-.1.1-.2c0-.2.1-.3.1-.4.2,0,.4,0,.6-.1-.1-.2-.4-.3-.6-.4,0,0,.2,0,.4-.2,0,0-.2-.1-.3-.1s-.2,0-.3,0c0,0,.1-.2.4-.5,0,0-.2-.2-.2-.2,0,0-.1,0-.2,0s-.2,0-.2.2c0,.1,0,.2-.1.2,0-.1,0-.3,0-.4,0-.1,0-.3,0-.4.2,0,.4.1.6.1h.6c0,.2,0,.3-.1.3,0,0,.2.2.3.2.2,0,.1,0-.1.2.3.2.6.5.7.8Zm-.8-2.9c-.1,0-.3.2-.4.2,0,0,0-.2,0-.3,0,0,0-.2,0-.3,0,0,.3.2.6.2,0,0-.1,0-.3.1Zm.1,1.2h-.2l.3-.4v.4Zm.2,1.3h-.2l.2.4v-.4Zm.7-1.1h0c0,.1-.6-.2-.6-.2v-.2c0,0,.7.4.7.4Z" style="fill:#124c87;"></path><path d="m159.5,57.5c0,0-.2.1-.3.1,0,0-.1.2,0,.3,0,0,0,.2,0,.3,0-.2-.3-.4-.6-.7,0,.1-.2.2-.3.3,0,0-.2.1-.4.2.2,0,.4.2.6.2.1,0,.3.2.4.4v.6h-.1s-.1,0-.2-.1c-.1,0-.3.2-.4.3-.1.2-.2.3-.4.5,0,0,.2,0,.4,0v.9c0,.2,0,.4-.2.6-.1.2-.3.4-.5.7-.2.2-.3.4-.4.6-.1.2-.2.4-.2.5h-.1s-.1,0-.2-.1c-.2,0-.3.2-.4.6,0,0,0,.2.1.2,0,0,.2,0,.2.2,0,0,0,.2-.1.3,0,.1,0,.2,0,.4.3-.1.5-.3.8-.6,0,0,.2,0,.3.1s.1.1,0,.1c0,.6-.2,1.1-.7,1.5-.5.4-1,.7-1.6,1.1.3.1.5.3.7.6,0,.2-.3.5-.7.9s-.6.7-.9.9c0,0,0,0,0,0h.1v.7h0s-.1,0-.2-.1c0,.1-.2.3-.2.5,0,.2-.2.4-.4.5,0,.2,0,.5,0,.8s0,.5,0,.8c0,.2-.2.4-.4.6-.2.2-.3.4-.4.6,0,0-.1,0-.3,0-.1,0-.3,0-.6,0,0,.1,0,.2.2.3.2,0,.3.2.4.3,0,0,0,0-.1,0,0,0,0,0-.1,0s0,0-.1,0c0,0-.2,0-.2-.1,0,0-.1-.2-.2-.3,0,.1-.1.3-.1.4s0,.3-.1.5c0,0,0,0,0,0s0,0,.1,0c-.1,0-.3,0-.6,0-.2-.1-.4-.2-.6-.4-.2,0-.3.2-.4.2l-.3.3c-.1,0-.3-.2-.4-.3-.1,0-.2-.1-.4-.1s-.3,0-.2,0c0,0,.1,0,.2.2,0,0-.2,0-.2-.1,0,0-.2-.1-.4-.1-.4,0-.7,0-.7-.1,0,0-.1-.2-.1-.4,0-.1,0-.3-.1-.4,0,0-.3-.1-.7-.1s-.3,0-.2,0,0,0-.1.1c0,0,0-.1-.1-.2,0,0,0-.3,0-.6-1.1-.7-2.1-1.3-2.9-2,0,0-.2-.1-.3-.3,0-.1-.2-.2-.3-.3,0-.1-.2-.4-.5-.8-.2-.4-.4-.6-.7-.7,0-.5-.1-1-.2-1.5,0-.5-.4-1-.8-1.5.2-.2.3-.6.1-1.1-.1-.5-.2-.9,0-1.3h.6c.2,0,.3,0,.2.1,0,0,0,.1.2.1s.4,0,.6,0c.2,0,.4,0,.6,0,0-.2.1-.4,0-.6,0-.2-.1-.4-.2-.6-.2,0-.4.2-.4.6-.2,0-.4,0-.6-.1-.1,0-.3-.1-.5-.1s-.3,0-.4,0-.2,0-.4,0c-.3,0-.6,0-1-.3,0,0-.1,0-.1.3s0,.3-.3.3-.2,0-.3,0c0,0-.1,0-.2,0,0,.4-.2.8-.4,1.2-.2.4-.5.8-.8,1.3s-.6.8-.9,1.2-.5.6-.6.9c-.4,0-.6.2-.6.4s0,.4-.2.6c-.2.2-.4.4-.6.5-.2.2-.4.2-.6.2-.4,0-.7,0-.9,0-.3,0-.5.1-.8.5,0-.2,0-.4-.3-.6,0,0-.1.2-.1.3,0,0,0,.2,0,.3-.3,0-.7.2-1,.5,0,0,.1.1.3.1s.3,0,.4.1c-.1,0-.3,0-.5.2-.2.2-.4.2-.6.2s-.3,0-.2-.1c0,0,0-.2,0-.3,0,0,0,0,0,0v.2c-.1,0-.3,0-.5-.2-.2-.1-.4-.2-.6-.2s-.3,0-.4.2c0,.1-.2.2-.4.2s-.3,0-.4-.1c0,0-.2-.1-.3-.1,0,0,.2-.1.2-.1s.1,0,.2-.1c-.1-.1-.4-.2-.6-.2s-.2,0,0-.1c.1,0,.1-.1,0-.1s-.3,0-.2.1c0,0,0,.2,0,.3,0,0-.1-.2-.1-.2,0,0,0,0-.2,0-.3,0-.5,0-.6-.2,0-.1-.2-.3-.2-.4,0-.2,0-.3-.2-.5,0-.1-.3-.2-.6-.2,0-.1,0-.3,0-.4,0,0,0-.3,0-.5,0,0-.1.1-.1.1s0,0-.2,0c-.3,0-.5-.1-.7-.4-.2-.2-.3-.5-.4-.8s-.1-.7-.1-1.2h0c0,0,0,0,0,0,0,0,0,0,0,0s0,0,0,0c-.2,0-.3,0-.2,0,0,0,0,0,0,.1,0,0,0-.1,0-.2,0,0,0,0-.1,0,.2-.3.3-.7.2-1.1-.1-.1-.3,0-.6.1,0,0,0-.2,0-.4s.1-.4.4-.5v-.4c-.1,0-.3,0-.4.1s-.2.1-.4.1c0,0-.1-.2-.1-.3s0-.2-.3-.3c0,0,0-.2.1-.5.1-.2.2-.4.4-.7,0-.2-.3-.4-.6-.4s-.2,0-.1,0,0,0,0,.1l-.4-.4c.2-.4.5-.6.7-.5.2,0,.4,0,.6-.5l-.4-.2c0,0-.2,0-.2,0,0,0,.2,0,.4,0l.4-.4c0,0-.2-.1-.4-.1v-.9c.4-.2.5-.5.3-1.1v-1.1c0,0,.2,0,.2,0,0,0,.2,0,.2-.1,0,0-.2-.2-.2-.3,0,0,0-.2-.2-.3,0,0,.2,0,.3.1.2,0,.3.2.4.2.1-.1.2-.3.2-.5-.1-.2-.3-.4-.5-.5-.2,0-.4-.2-.6-.2h0c0,0,.2,0,.2,0,0,0,.2,0,.2-.1,0,0,0-.2,0-.2,0,0,.3-.2.5-.2.2,0,.5,0,.8,0,0,0,0-.2.2-.4,0,0-.2-.1-.2,0s-.2.1-.2.1c0,0,0-.2.1-.3,0,0,.2-.2.2-.4,0,0-.1-.1-.1-.1,0,0,0,0-.2,0s-.4.1-.4.4c0,0-.3-.1-.5-.1v-.7c.1,0,.1,0,.1,0,0,0,0,0,.3,0,.3,0,.6-.2,1.1-.6h0c0-.1,0-.2,0-.2-.1,0-.3.2-.4.2,0,0-.2.1-.4.2,0-.4.3-.7.6-.9.4-.2.7-.4,1-.7-.3-.1-.6-.3-.9-.4-.3,0-.6-.2-.8-.4.3,0,.8,0,1.3.2.5.2,1,.2,1.4,0-.1,0-.2-.2-.3-.4,0-.2-.2-.4-.3-.6-.1,0-.3,0-.5,0-.2,0-.4,0-.7,0,0-.1.2-.3.4-.6.2-.2.3-.4.4-.6,0,0,.1.2.2.5,0,.2.3.4.5.5,0-.3.2-.7.5-1,0,0,0,0,0,0h0c0,0,0,0-.1-.1-.2,0-.5,0-.7,0-.2,0-.5,0-.7-.1.3,0,.5,0,.6-.2.1-.2.1-.4,0-.6h.6c0,0,.2-.1.2-.1,0,0-.1,0-.3-.1-.1,0-.3-.1-.4-.3h.6c0,0,.1-.2,0-.3,0,0-.2-.2-.2-.2,0,0,.2-.2.3-.4,0-.2.2-.4.2-.7h0c0,.1,0,.1.3.1s.2,0,.2-.1c0,0,0-.1.2-.1h.6c0-.2.1-.5.1-.8.1.1.3.2.5.3.2,0,.4.2.6.2l.4-.4c-.1-.2-.3-.4-.6-.6-.2-.1-.5-.3-.7-.6.2,0,.5-.1.7,0,.2,0,.5,0,.8,0,0-.1-.1-.2-.3-.3-.1,0-.3-.1-.4-.2v-.9h.6c.2,0,.2,0,.1,0,0,0,0,.1,0,.2,0-.2.1-.5,0-.7,0-.2,0-.4.1-.7l-.2-.2c-.3.2-.6.2-.9,0,0,0,.2-.2.5-.5.2-.2.4-.3.5-.4,0,0-.3-.1-.7-.1,0,0,.2-.2.2-.2s.2-.1.4-.1.4,0,.7-.2c.3-.1.6-.2.8-.2,0-.1.1-.3.1-.6v-.6s0-.2.2-.5c.1-.3.3-.5.5-.7,0,0-.1-.2-.1-.3,0,0,0-.2-.2-.3.2-.2.3-.4.4-.6,0-.2.1-.4.2-.6,0-.2.2-.3.3-.5.1-.1.4-.2.8-.2s.4,0,.7,0c.3,0,.6.1.8.2,0,0,.1.2,0,.3s0,.2,0,.4c.3,0,.6,0,.9.2.3.2.6.3.9.4-.2,0-.3,0-.4.1,0,.2.2.4.2.5,0,0,.2.3.2.7,0,0,.2-.1.4-.1,0,.2,0,.3.2.2.1,0,.3,0,.4.3,0,0,.3.4.6.9.3.5.5.9.5,1.1,0,.5.1.9.4,1.3.3.4.4.7.4,1.1s0,.3-.1.5c0,.2-.2.3-.2.4,0,0,0,.2,0,.3,0,0,0,.2.1.2,0,.7-.2,1.4-.2,2,0,.6,0,1.2-.1,1.7,0,1.1-.2,2-.4,2.7s-.3,1.7-.4,2.9c-.2,0-.4,0-.6,0-.2,0-.4,0-.6-.3-.6-.7-1.1-1.3-1.6-2-.1-.3-.2-.6-.1-.9,0-.3.1-.6.2-.9-.2-.4-.3-.7-.3-1.1s0-.7-.1-1.1c0,0,.2.2.3.2.1,0,.1.1,0,.2.1.2.3.3.4.3l.2-.2c-.3-.3-.5-.6-.7-1-.2-.4-.4-.7-.5-1.1.3-.4.8-.7,1.4-1v-.4c0,0-.2-.3-.4-.6-.2-.3-.3-.4-.4-.4-.1-.2-.4-.4-.7-.6-.3-.1-.6,0-.8.1-.3.5-.7,1-1,1.5-.3.5-.6.8-.8,1,0,.1,0,.3,0,.6,0,0-.1.1-.2.1s-.2,0-.2.1c-.2.7-.5,1.4-.7,2.1-.2.8-.6,1.3-1.1,1.5,0,0,0,.2,0,.2,0,0,0,.1,0,.2-.2.2-.3.4-.4.5s-.2.3-.4.5c0,.2,0,.6,0,1,0,.4-.2.9-.4,1.3-.1.4-.3.9-.4,1.3-.1.4-.2.7-.2,1h-.7c.3.4.4.7.3,1.1s-.2.7-.3,1.2h-.2c-.1.4-.3.8-.5,1.4-.2.5-.3,1.1-.5,1.6-.2.5-.3,1-.5,1.3-.1.4-.2.6-.2.7,0,.2,0,.3.1.2,0,0,.2,0,.2.1,0,0,0,.2,0,.3,0,0,0,.2-.1.3,0,.2.2.4.2.5,0,.1.2.3.4.6h-.1s-.1,0-.2-.1c0,0,0,0,0,0v.3c0,.5,0,.9.2,1.2.2.3.5.8,1,1.6,0,0,.1,0,.1-.1s0-.1.3-.1.2,0,.1.1c-.1,0,0,.1.1.1s.3,0,.5-.3c.2-.2.4-.4.6-.6.2-.2.4-.5.6-.7.2-.2.4-.4.5-.5s.2-.2.5-.3c.2,0,.4-.2.5-.3,0,0,0,.1-.1.2s-.2.2-.4.2l.4.4h.8l.2-.3c-.1-.2-.2-.5-.2-.9s0-.8,0-1.1c0,0,0,0,0,.1,0,0,0,.1.2.1.4,0,.8-.2,1.2-.5-.1-.1-.3-.3-.5-.4-.2-.1-.3-.2-.4-.4.2-.1.5-.2.7-.3.2,0,.5-.2.7-.2,0-.2,0-.2-.3,0,0-.2.3-.3.8-.1,0,0,.1-.2,0-.4,0-.2-.1-.4-.2-.6.1,0,.3,0,.4,0,.1,0,.3,0,.4,0,0-.2,0-.4,0-.6,0-.2,0-.4.2-.6,0,0,.1,0,.2,0s.2,0,.3,0c.1-.1.3-.4.4-.6.1-.3.4-.5.7-.8l-.2-.2-.2.2s-.1,0-.3,0v-.6h.6c-.2.1-.2,0-.2-.2,0-.2,0-.4,0-.5.3-.2.4-.6.1-1h.6c0,.1.2.3.3.5.2.2.4.2.7.2,0,0,0-.2,0-.3,0,0,0-.2,0-.4-.1-.5-.5-.9-1-1.3,0,0,.1,0,.1,0,0,0,0,.1.2.1s.2,0,.3,0c0,0,.2,0,.4,0l.6-.6c.2-.1.4-.2.4-.3s0,0,0-.1,0,0,0-.1c0,0,.1-.1.2-.3l-.2-.2c0,0-.2,0-.4-.2-.1-.1-.3-.2-.4-.3.4,0,.7-.1,1-.4.3-.3.5-.4.5-.5,0,0,0-.2-.3-.4-.2-.1-.3-.3-.2-.4v-1.5c.2,0,.5,0,.9-.3,0,0-.1-.2-.2-.2,0,0-.2-.2-.3-.3.1,0,.3.1.4,0,.1,0,.2-.1.4-.2-.1-.1-.2-.3-.2-.6h.4c0,0-.1-.2-.2-.2-.1,0-.2,0-.4-.2,0-.5,0-.7-.1-.7,0,0-.1,0-.1-.1s0-.4.2-.6c.1-.2.3-.4.4-.5,0,0,0,0,0,0,0,0,0,0,0,0s0,0,0,0c0,0,0-.2,0-.3,0-.1,0-.2,0-.3.1,0,.3,0,.5,0,.2,0,.4,0,.5,0h0c0-.1,0-.2,0-.2l-.2-.2c0,0-.2,0-.4.1-.1,0-.3.1-.4.1,0,0,.2-.2.2-.3,0,0,.1-.2.2-.3-.1-.1-.3-.2-.4-.2-.1,0-.2-.1-.2-.3s.1-.4.4-.8.5-.8.7-1c0,0-.2-.1-.2-.1s-.1,0-.2-.1c0,0,.2-.2.2-.3,0-.1.2-.2.3-.3-.2.2-.2.3,0,.3s.3,0,.5-.3c.1-.2.3-.3.5-.3s.3,0,.4.1c0,0,.2.1.4.1s.5-.1.8-.4c0,0,0-.1-.1-.1s-.2,0-.4-.1h-.4c-.1.1-.1.3,0,.4-.2,0-.5-.2-.8-.6,0,0-.2.1-.3.1s-.2,0-.2,0v-.6s0,0,.1,0,.2,0,.3-.1c0,0-.2-.1-.3-.1h-.3c.1,0,.2-.1.3-.3,0-.1.1-.3.3-.4,0,0,0-.2-.1-.2,0,0-.2,0-.3,0,.2,0,.4-.2.5-.2.2,0,.3-.2.5-.4,0,0-.2-.1-.3-.1-.1,0-.2,0-.4-.1.4-.1,1-.2,1.6-.2.1,0,.1-.2,0-.6-.4.1-1,.2-1.8.2.5-.1.8-.4.9-.6,0-.3.2-.6.4-.9,0,0,0-.2-.1-.2s-.2-.2-.2-.2c0,0-.2.2-.3.2,0,0-.2.2-.3.3,0,0-.2-.1-.2-.1s0,0,0-.3,0-.3.2-.4c.2-.1.3-.3.5-.5,0,.1,0,.3.2.4l.4.4c.1-.1.3-.3.4-.4.1-.1.2-.3.4-.5,0-.1-.2-.2-.3-.3-.1,0-.2-.2-.2-.3.2.1.4.2.5.3s.2.2.2.4c.2,0,.3-.1.4-.2,0,0,.1-.2.3-.3,0,0-.1-.2-.3-.2-.1,0-.3-.1-.4-.2,0,0,.2-.2.4-.3.2,0,.3-.2.5-.4-.2,0-.4-.2-.5-.4-.1-.1-.3-.2-.5-.2s-.3,0-.3,0c0,0,0,0-.2,0v-.3c-.2,0-.3-.2-.4-.2s-.2-.1-.2-.2c.4-.3.6-.7.8-1.1-.1.1-.1.2,0,.3,0-.3.2-.5.4-.6.2-.1.4-.2.5-.4.1-.1.3-.3.4-.4,0-.2.1-.5,0-.9-.1-.1-.3-.3-.5-.5-.2-.2-.3-.3-.4-.5,0,0,0,0,.1,0,0,0,.1,0,.2,0,0,0,.1-.2.1-.2,0,0,0,0,.1-.2-.1-.1-.3-.3-.5-.4-.2-.1-.2-.3-.2-.4l.3-.2c-.2,0-.4-.3-.6-.7.4-.3.5-.5.5-.7,0-.2,0-.4-.2-.6.1.2.3.3.6.3.3,0,.3.2,0,.4.2,0,.4.2.5.2,0,0,.1.2.1.3s0,.2,0,.4c0,.1,0,.3.1.5.2,0,.3-.1.4-.2s.2-.3.3-.5c.4,0,.7.4.8,1.3.3-.2.4-.4.3-.6,0-.2-.1-.4-.1-.6,0,0,0,.2,0,.3,0,0,.2.2.4.4,0,0,.1-.2.1-.2s0-.1.1-.2c.1.1.4.3.8.4.1.4.4.7.8.9,0,.2,0,.4-.3.6v.8l.2.3h0s0,0,0-.1c0,.3,0,.5-.2.7.4.3.6.7.8,1,.1.3.3.4.6.3,0,.2,0,.5-.4.8,0,0,.2.1.2,0,0,0,.2,0,.2,0,0,0,0,.2,0,.3,0,.1,0,.2,0,.3,0,0-.2,0-.2,0,0,0-.1.2-.3.3,0,.1.2.2.6.2-.2.1-.4.3-.5.6-.1.2-.2.5-.3.7,0,0,.2.1.3.1,0,0,.1,0,.1.2s0,.4-.1.6c0,.2-.2.4-.2.5,0-.2,0-.3-.3-.3l-.2.2c0,0,.2.2.3.2s.2.1.3.2c0,.2,0,.4-.3.5-.1-.2-.2-.3-.3-.3,0,0-.1-.2-.1-.5,0,0-.1.3-.1.5v.5c0,0-.2,0-.4.1-.2,0-.3.1-.5.2,0,0,.2.1.2,0s.2-.1.2-.1c0,0,0,.2.1.4,0,.2.2.4.5.5-.2.1-.4.3-.4.6,0,.2-.2.5-.4.7,0,.1,0,.2.3.2,0,.1-.2.4-.3.7s0,.6,0,.8c0,0-.2,0-.3,0,0,0-.2,0-.3.1,0,.3.1.5.3.6.2,0,.4.2.5.4-.2.2-.5.4-.7.6-.2.2-.4.3-.6.3s-.3,0-.3,0c0,0,0,0-.2,0l-.2.2c0,0,.1.2.1.3,0,.1,0,.2.2.2s.3,0,.4-.1.2-.2.4-.3c0,0,.2.2.2.2,0,0,0,.2.2.2-.2.2-.3.4-.3.6h-.4c-.2,0-.2,0-.2,0s0-.1,0-.2c0,0,0,.1,0,.2,0,0,0,.2.2.4,0,0-.2.2-.4.3-.2.1-.3.2-.5.3,0,0,.2.1.4.1s.3,0,.5.1c0,.1-.2.3-.4.4-.2.1-.3.3-.4.5,0,.1,0,.3,0,.5s0,.3-.3.3-.2,0-.1,0c0,0,0,0-.1,0s-.3.2-.6.5c-.2.3-.4.6-.6.7,0,0,0,.1,0,.2,0,.1-.1.2-.1.4,0,.2.3.5.8.8,0-.2.1-.5.3-.7.2-.2.4-.4.5-.7v.6c0,.1,0,.3-.2.5-.1.2-.2.4-.2.6h0c0,.3,0,.4,0,.4,0,0,0,0-.2.1-.5,0-.8.2-.9.4-.1.2-.4.4-.7.6,0,0,0,.2.1.3.1,0,.3.2.4.2,0,0-.2,0-.4,0-.2,0-.3,0-.4,0,0,.2.2.4.4.6.2.2.3.4.3.6s0,.5-.2.8c-.2.4-.3.7-.4,1.1,0,.1,0,.3,0,.5,0,.2.2.4.2.5-.2.4-.3.9-.2,1.3,0,.4,0,.9-.2,1.3l-.3-.3h0c0,.2,0,.3,0,.4,0,0,.2.2.2.4,0,0,0,.2-.1.4,0,.1,0,.3-.2.4l.3.6c0,.1,0,.3,0,.4,0,.1-.1.2-.3.3,0,0,0,.2.2.2.1,0,.2.2.3.3,0,.1,0,.3,0,.6,0,.2.1.5.1.7,0,.3,0,.5,0,.7,0,.2-.1.4-.3.5,0,.2.2.4.2.7,0,.3.1.5.1.7v1.8c.4.1.6.4.6.7,0,.4,0,.7,0,1.1s0,.7.1,1c0,.3.4.4.9.4,0,.1,0,.3,0,.5,0,.2,0,.4.1.5,0,0,.2,0,.4,0,.2-.1.4-.2.6-.4h0s0,0-.1,0c0,0,0,0-.1,0,.2-.6.5-.9.7-1.1.2-.2.5-.4,1-.8,0,0-.2-.1-.2-.1s-.1,0-.2-.1c0,0,.2-.2.4-.5s.2-.4,0-.6l.6-.3c0-.1.2-.3.4-.6.2-.2.4-.5.6-.7.2-.2.3-.5.4-.8,0-.3,0-.5-.2-.8,0-.1.2-.3.4-.4.1-.1.2-.3.3-.4h.4c0,0,0-.1-.2-.4v-.5c.2,0,.3,0,.4-.1,0,0,0-.2-.1-.2,0,0-.1-.1-.1-.2.2,0,.5-.2.7-.2.3,0,.5-.2.8-.5,0-.2-.2-.5-.6-.7.5,0,.9,0,1.1-.4.2-.3.4-.6.6-.8,0,0,0-.2,0-.2s0,0-.2,0-.3,0-.3,0,0,0-.1,0c.2-.3.5-.5.7-.6,0,0,0-.1-.1-.2,0,0-.1-.2-.1-.4.1,0,.2,0,.3.2,0,.1.2.2.4.4,0,0,.1-.2.2-.4,0-.1,0-.1-.2,0,0,0,.2-.2.4-.4.1-.2.2-.4,0-.6,0,0-.2.2-.3.2-.1,0-.2.1-.3.1,0-.1.2-.3.4-.5.2-.2.3-.4.4-.7.2,0,.4,0,.6,0,.2,0,.4.2.5.2.1,0,.2-.2.3-.3,0,0,.2-.2.4-.4,0-.1,0-.2-.3-.2v-1c.1,0,.3.2.5.3.2,0,.3.1.5.1s.3,0,.4,0c0,0,.1,0,.2,0,0,0,0,.2-.1.4,0,.1-.2.2-.3.3.1.1.3.3.4.4,0,.1.2.3.4.4,0,0-.2,0-.4.1-.2,0-.4.2-.6.3.2.1.4.2.6.3.2,0,.4.2.5.2-.3,0-.5-.1-.7-.1-.2,0-.3,0-.5-.1,0,0-.1.2,0,.2,0,0,0,.2,0,.3h.6c.1,0,.4.2.7.4,0,0-.2,0-.3.1Zm-35.5-.1c0-.2,0-.4-.2-.5-.1-.1-.3-.3-.4-.4v2.1c.4-.6.6-1,.6-1.2Zm.9-1.8c0,0,0,.2,0,.4s0,.3,0,.4c.1,0,.4-.3.6-.7h-.6Zm.5-2.9c-.2,0-.4,0-.6,0l.8.2c0,0,.2-.3.4-.5-.2,0-.5.2-.7.2Zm-.5-4.7v-.2l.4.2h-.4Zm.6,5.5l-.5-.2v.2l.4.2v-.2Zm0,3.2v-.2c0,0-.4.2-.4.2v.2l.4-.2Zm.6-1.7c0,0,0-.2,0-.4,0-.1,0-.3,0-.4-.3,0-.5,0-.6-.1v.6c.3,0,.6,0,.8.3Zm.8-3.6c0,0,0-.2-.1-.2,0,0,0-.2,0-.2h-.5l-.5.5h1.1Zm-.3,2.1v-.2c0,0-.4.2-.4.2v.2l.4-.2Zm.4-5.8v-.2h-.6v.2h.6Zm1.2-4.2c0,.3-.2.6-.4.7-.2.2-.2.4,0,.6-.4-.2-.8-.3-1.2-.3.2-.1.4-.3.6-.5.2-.2.4-.3.6-.4,0,0,0-.2,0-.2,0,0-.2,0-.3-.2,0,0,.2.2.2.2,0,0,.2.1.4.1s.3,0,.2,0,0,0,0-.1Zm-1.3,25.8h-.1c0,.1.5.4.5.4l-.4-.4Zm1.1-26.2h-.1c0,.1-.4-.2-.4-.2h.1c0-.1.4.2.4.2Zm0,2.8c0,.4-.2.6-.2.6,0,0-.2,0-.2.2h.6c.1-.1.3-.4.4-.8h-.5Zm0,1.7s0,0-.1,0,0,0-.1,0c0,0,0,0-.1,0,0,0,0,0,0,.1s0,0,0,.1c0,0,0,0,0,.1,0,0,.2,0,.4-.2-.1,0-.2,0-.2-.3Zm-.3,23.1v-.2c-.1,0,.4-.1.4-.1l-.4.4Zm1.5-25.2h-.2c0,0-.2.3-.2.3h.2c0,.1.2-.3.2-.3Zm.9-1.8v-.2h-.6v.2h.6Zm2.2,22v-.7c-.2.2-.5.3-.9.3-.4,0-.6,0-.9.4.1,0,.4.1.8,0,.4,0,.7,0,.9,0Zm-1.2-26v-.3h-.4v.3h.4Zm1.2-.1h-.2c0,0-.2.3-.2.3h.2c0,0,.2-.3.2-.3Zm1.2-3.6l-.6-.2v.2l.5.2v-.2Zm1.2,24.6c-.1-.1-.2-.2-.4-.2,0,0,.4,0,.8.4-.1,0-.3,0-.4-.2Zm.1,1.7v-.2h-.5v.2h.5Zm1.1-21.7c0,0-.2-.1-.2-.1s-.2,0-.2-.1c0,.2,0,.4.5.6.4.2.6.4.7.6.2,0,.3,0,.2-.4l-.8-.5Zm.6,21c0,0,0-.2,0-.2s0-.2,0-.2c-.2.1-.4.1-.5,0v.5c-.1,0,.6,0,.6,0Zm.5-4.4l-.6.5v-.2c-.1,0,.5-.5.5-.5v.2Zm-.4,8.6c0,.1,0,.3,0,.4,0,0,.1.2.1.3,0-.1.2-.4.4-.6h-.5Zm3.4-9.5c0,0,0,.1-.1.1s-.4,0-.5-.2c-.1-.1-.3-.2-.5-.2s-.4,0-.5.2c-.1.1-.3.2-.4.2.2,0,.5.2.7.4.2.2.4.3.5.2,0,0,.1-.2.1-.3s0-.1.3-.1.1,0,.1,0,0,0,0,0c0,0,0,0,0,0,0,0,.1-.3.1-.6,0,0-.1,0,0,.1Zm1.9,5.1c0-.2-.2-.4-.5-.4s-.4,0-.8,0c-.3,0-.6.1-.8.2,0,0,.2.2.3.2,0,0,.2.1.2.2-.1.1-.2.3-.2.5h.5c.2-.4.4-.6.6-.6.1,0,.4-.1.7-.2Zm0-1.3c-.1,0-.3.2-.6.3-.2.1-.4.2-.4.4,0,0,0-.1,0,0s0,0,.3,0,.3,0,.4-.3c0-.2.2-.3.3-.4Zm-.2-9.8h-.1c0-.1-.3,0-.3,0v.2l.4-.2Zm.2,1.8v-.2h-.6v.4h.6Zm.1,6.4v-.2h-.6c0-.1,0,0,0,0h.6Zm.7,6.2v-.2h-.9c0-.1,0,0,0,0h.9Zm.2-20.3h-.2c0-.1-.1.3-.1.3h.1c0,0,.2-.3.2-.3Zm.4-5.3h-.6v-.3h.6v.3Zm0,3.6v-.2h-.6v.4h.6Zm-.3-2.1h-.1c0,0,.4.4.4.4l-.2-.4Zm.1,24.3h-.1c0,.1.5.4.5.4l-.4-.4Zm.3-16.4v-.2c0,0-.4.1-.4.1v.2h.4Zm0-11.5h-.2v-.6h.2v.6Zm.4,4.3c0-.2,0-.4-.2-.5-.2.2-.3.4-.3.5h.5Zm-.3,5.6h-.1c0,.1.5.4.5.4l-.4-.4Zm.6-3.4c0,0,0-.2-.1-.2s-.2-.2-.2-.2c0,0,0,.2-.1.2,0,0-.1.2-.1.2h.6Zm-.4-1.5h-.1c0,0,.4.4.4.4l-.2-.4Zm.5,25.8l-.5-.3h-.1c0,.1.5.5.5.5v-.2Zm0-10.4c-.1,0-.2,0-.3,0v.7c.2,0,.4-.2.6-.5,0,0-.2-.2-.3-.2Zm.6-12.2c0,0,0-.2-.2-.2-.1,0-.2-.2-.2-.2l-.2.5h.6Zm0,1s0-.1-.1-.2c0,0,0,0,0-.1,0,0-.2.1-.2.1h-.1c.1.1.3.2.6.2Zm1.1-5c-.1,0-.2-.1-.3,0l-.2.2c0-.1-.1-.3-.1-.4s0-.2-.1-.3c0,0-.2.2-.4.2-.2,0-.3,0-.4.1.2.2.4.3.6.4.2,0,.4.2.6.2,0,0-.2.2-.2.2,0,0,0,.1.1.1s.2,0,.4-.2v-.5Zm-.7,2.7v-.5c0,0-.3-.1-.5-.1,0,.2,0,.4.2.4-.3.1-.5.2-.6.2h.8Zm1.4-5.3c-.1,0-.3-.1-.4-.1s-.3,0-.4-.1c0-.2.1-.4.1-.5,0-.1-.2-.2-.5-.4h-.5c0,0,.1.2.1.2s0,.2.1.2c-.1,0-.3.2-.4.3-.1,0-.2.2-.3.3.1,0,.3.2.5.2.2,0,.3.1.3.3,0,0,0-.2.1-.3,0,0,.2-.1.4-.1s.2,0,.3,0c.1,0,.3,0,.5,0Zm-2,15.1h-.1c0,.1.5.4.5.4l-.4-.4Zm.2-21.8c0,.1-.2.2-.3.4,0-.2,0-.5.3-.8,0,0,.2.2.3.4,0,0-.2,0-.3,0Zm.1,37.1h-.2v.4c-.1,0,0,0,0,0l.2-.5Zm.4-27v-.2c0,0-.5.1-.5.1v.2h.5Zm.6,10.9v-.3h-1.1v.3h1.1Zm.9-24.8s0,.1,0,.2c-.1,0-.3,0-.5-.1-.2,0-.3,0-.5.3,0,0-.2-.2-.3-.3-.1-.1-.2-.2-.2-.4.1,0,.4,0,.8.3.1-.1.2-.3,0-.4,0,0,.3,0,.7.3,0,0,0,0,0,.1Zm-.4-1.1v.2c0,0-1.1-.4-1.1-.4v-.2l1.1.4Zm-.8,7.5c0,0-.2-.2-.2-.2,0,.1.1.4.1.8.1-.3.2-.5,0-.6Zm1.7-3.9c-.3-.1-.6-.2-.9-.3-.3,0-.6-.2-.9-.3.3.4.6.6.9.6.3,0,.6,0,.9,0Zm-1.6,12.6c-.2,0-.2.2-.2.2.2.2.4.3.6.3,0-.1,0-.4.1-.8-.1,0-.3.2-.5.2Zm-.2-11.5v-.2l.5.2h-.5Zm1.5,4.8v-.2c-.1,0-.6.4-.6.4v.2c0,0,.6-.4.6-.4Zm.2-11.6l-.4.4c0,0,.2.1.3.1h.1c0,0,0-.5,0-.5Zm.1,4.3v-.2c0,0-.4.1-.4.1v.2h.4Zm.1,2.2h-.6c0-.1,0,0,0,0h.5c0,.1,0,0,0,0Zm1.1-1.9s0,0-.3,0-.2,0-.2,0c0,0-.2,0-.5,0,0,0,.1.3.4.5.1,0,.4-.2.8-.4,0,0-.1-.1-.1,0Zm-.2-4v-.4h-.3v.4h.3Zm.2,16h-.2c0,0,.4.4.4.4l-.2-.4Zm.7-14.4v-.2h-.8c0,0,0,.1,0,.1h.8Zm0,10.1c-.1-.2-.3-.3-.4-.3,0,.2,0,.4,0,.6,0,.2,0,.4,0,.5,0,0,.3-.1.7-.4,0-.1-.2-.3-.4-.5Zm.9-1.1c0,0-.2.2-.2.3-.1-.1-.2-.2-.3-.3,0,0,0-.2,0-.4s0-.3.2-.4c.1,0,.2-.2.2-.2-.1,0-.3,0-.5.1-.2,0-.4.1-.5.1.2.3.4.6.7.9.3.3.4.5.5.7,0-.1,0-.5.2-1,0,0-.2,0-.2.1Zm-1.2,2.4c0,.1.2.3.3.5,0,.2.2.2.3.2,0-.1,0-.3,0-.6h-.6Zm1.4.2v-.3h-.4v.3h.4Zm.6-6c0,0,0-.2,0-.2,0,0,0-.2,0-.2,0,0,0,0-.1,0,0,0,0,0-.1,0h-.1c0,0-.1-.2,0-.2,0,0,.1,0,.1-.2h-.6c0,0-.1.2,0,.4,0,.2,0,.3,0,.4,0,0,.2,0,.4,0,.1,0,.3,0,.6,0Zm.6,2.8h-.3v-.6h.3v.6Zm.6-5.7v-.2c0,0-.4.1-.4.1v.2h.4Zm0,.4h-.1c0,0-.2.3-.2.3h.2c0,.1.1-.3.1-.3Zm2,32.4v-.2h-.9c0-.1,0,0,0,0h.9Zm-.4.1h-.1c0,0-.2.3-.2.3h.2c0,.1.1-.3.1-.3Zm.7-1.9l-.7-.4v.4h.7Zm0,2.9v-.2c0,0-.4.1-.4.1v.2h.4Zm.5,1.8c0,0,0-.2,0-.3,0,0,0-.2,0-.3,0,.1-.2.2-.3.3-.1,0-.2.2-.2.2h.6Zm0,3.2h-.2v.4c-.1,0,0,0,0,0v-.5Zm.2-8.6c0-.1,0-.2-.3-.2,0,.2,0,.3,0,.4h0c0,0,.2,0,.2-.1Zm.4,1.1h-.2l.2.5v-.5Zm.6-.8v-.2h-.6v.2h.6Zm.7,1.5c0,0,0-.2,0-.2,0,0,0-.2,0-.2,0,0-.2,0-.2.2,0,.1-.1.2-.1.3h.5Zm.3-2.7v-.2h-.6v.4h.6Zm0-2.3h-.2c0,0-.2.4-.2.4h.2c0,0,.2-.4.2-.4Zm-.3,9.6v-.2c-.1,0,.4-.1.4-.1l-.4.4Zm.3-5.3s.1,0,.2.1c0,0,0,0,.1,0,0,0,.1-.3.1-.7l-.5.5Zm1.8-4.5c0,0-.1-.2-.1-.2h0c-.2,0-.5.3-.9.7-.4.4-.5.7-.4.9,0,0,.2,0,.3.1,0,0,.1.2.1.3,0-.1.2-.2.4-.3.2,0,.4-.1.5-.2,0,0-.1-.2,0-.2s0-.2,0-.2c-.1.1-.3.2-.4.3-.1,0-.2.2-.3.2l-.3-.3v-.5c.2,0,.4-.2.6-.4.2-.1.4-.3.5-.4Zm-.7-.8c0,0-.1,0-.1.1,0,0,0,.2-.1.3,0,.2,0,.2,0,.1.1,0,.2-.3.1-.6Zm.7-.8c-.1.1-.3.3-.4.4-.1.1-.2.2-.2.3,0,0,.3,0,.6-.1v-.6Zm.6-2.5c0,0-.2.2-.2.3,0,.1-.2.2-.2.2h0c0,0,0,0-.1-.1,0,0,0,0-.1,0,0-.1.2-.3.3-.6.1-.2.2-.4.3-.6,0,.2,0,.5.1.8Z" style="fill:#124c87;"></path></g><g><path d="m220.1,12.3h.8v18.8h4.5v.9h-4.5v35.9c0,2.6,0,4.3.2,5.1.2.8.5,1.2.9,1.2s1.1-.8,1.5-2.3c.3-1,.6-3.1.8-6,.2-2.8.3-5.2.3-7.2v-1h.8v1c0,2.4,0,4.9-.2,7.5-.2,2.4-.5,4.4-.8,5.8-.4,2.1-1.3,3.2-2.7,3.2s-2.5-.8-3.5-2.3c-.9-1.5-1.7-3.7-2.2-6.7-.6-3-.8-6.4-.8-10v-24.3h-2.7v-.8c2.6-.5,4.5-2,5.6-4.6,1.1-2.6,1.8-7.1,2-13.5v-.7Z" style="fill:#124c87;"></path><path d="m238.5,31.2h8.3v42.8h2.7v.9h-11v-.9h2.7v-41.8h-2.7v-.9Zm8.9-19.9c0,1.1-.3,2-.9,2.6-.6.7-1.4,1-2.5,1s-1.8-.4-2.4-1.1c-.7-.7-1-1.6-1-2.6s.3-1.9,1-2.6c.7-.7,1.4-1,2.4-1s1.9.3,2.5,1c.6.7.9,1.6.9,2.7Z" style="fill:#124c87;"></path><path d="m271.6,8.3h8.4v65.6h2.6v.9h-8v-9.6c-.5,3.9-1,6.6-1.5,8-.7,1.5-1.5,2.3-2.6,2.3s-2.7-1-4-3c-1.3-2-2.3-4.7-3-7.9-.7-3.3-1.1-6.8-1.1-10.3s.4-7.9,1.2-11.7c.8-3.8,1.8-6.8,3.1-8.9,1.3-2.2,2.6-3.3,4-3.3s1.6.4,2.1,1.1c.5.7,1,1.9,1.4,3.8V9.2h-2.7v-.9Zm2.7,42.9v-2.8c0-6.7-.4-11.5-1.3-14.3-.6-1.9-1.3-2.8-2-2.8s-1.6,1.2-1.9,3.7c-.3,3.4-.4,6.4-.5,9.1-.1,2.7-.2,6.2-.2,10.4,0,9.1.2,15.1.5,17.8.3,1.7.8,2.5,1.6,2.5s1.8-1.3,2.3-3.9c.5-2.1.8-4.9,1.1-8.3.3-3.8.4-7.6.4-11.3Z" style="fill:#124c87;"></path><path d="m312.3,51h-10.7v3.9c0,3.8,0,8,.3,12.7.1,2.7.4,4.6.8,5.7.4,1,1,1.5,2,1.5,1.7,0,3.1-1.6,4.2-4.8,1.1-3.2,1.8-7.5,1.9-12.7h1c0,4-.5,7.9-1.4,11.5-1.2,4.7-3.2,7.1-5.9,7.1s-3.2-1-4.5-2.9c-1.4-1.9-2.4-4.6-3.2-7.9-.8-3.4-1.2-7.1-1.2-11.1s.3-7.2,1-10.9c.6-3.6,1.5-6.5,2.6-8.5,1.4-2.6,3-3.9,4.8-3.9s4.3,1.8,5.8,5.4c1.5,3.7,2.3,8.7,2.5,15Zm-10.7-1h5.1v-2.1c0-3.6,0-7.2-.2-10.8,0-1.9-.3-3.4-.7-4.3-.4-.9-1-1.4-1.7-1.4-1.1,0-1.8,1-2,3-.1,1-.2,3.2-.3,6.5,0,3.1-.1,5.6-.1,7.8v1.4Z" style="fill:#124c87;"></path><path d="m338.6,31.2h.9v15.6h-.8v-.9c-1-5.4-1.9-9.2-2.6-11.2-.8-2.2-1.9-3.4-3.3-3.4s-1.6.4-2.1,1.3c-.6.9-.9,2-.9,3.3s.3,2.6,1,4.2c.6,1.6,1.8,3.9,3.5,7,2.1,3.9,3.5,6.6,4.1,8.2,1.4,3.5,2.1,6.8,2.1,9.8s-.6,5.4-1.7,7.3c-1.1,1.9-2.6,2.9-4.4,2.9s-1.5-.2-2-.6c-.6-.3-1.3-1-2.2-2.1-.7-.9-1.3-1.3-1.7-1.3s-.6,0-.7.3c-.2.2-.4.6-.4,1.1,0,.5-.1,1.3-.1,2.2h-.8v-16.6h.8c.6,4.7,1.5,8.5,2.9,11.6s2.7,4.5,4.2,4.5,1.7-.5,2.2-1.4c.6-.9.8-2.1.8-3.5,0-2.6-1.2-6.2-3.6-10.9l-1.9-3.6c-3.4-6.5-5.1-11.6-5.1-15.3s.6-4.9,1.8-6.7c1.1-1.8,2.6-2.6,4.3-2.6s2.7.8,3.9,2.5c.4.6.7.8,1.1.8.6,0,.9-.9,1-2.6Z" style="fill:#124c87;"></path></g><g><path d="m186,50.1c.6.2,1.2.4,1.9.7.2.6-.1,1.6-.9,1.9-.6.2-1.5-.1-1.7-.7-.3-.6.1-1.6.8-1.9Z" style="fill:#fff;"></path><path d="m203,79.4c-5.8-8.9-14.4-22.1-14.7-22.5-.1,0-.2,0-.3,0-1-1.7-1.9-3.4-2.9-5-1.1-1.9-2.2-3.7-3.3-5.6-2-3.4-4.1-6.7-6.1-10.1-.7-1.2-1.6-2.3-2.8-3.2-.3-.2-.4-.2-.7,0-1.8,1.1-3.7,2.1-5.5,3.1-1.2.7-3.1.7-4.2-.9-4.4-6.3-8.9-12.6-13.3-18.9-.3-.5-.6-1-1-1.4-.5-.6-.5-1.2-.5-1.9,1.1,1.4,2.1,2.9,3.2,4.3,0,0,0,0,.1,0-.9-1.4-1.8-2.7-2.8-4.1,0,0,0,0,.1-.1.3.3.7.5.9.8,2.5,3.6,5.1,7.1,7.6,10.7,2.1,2.9,4.1,5.8,6.2,8.7,1,1.4,2.3,1.7,3.8.9.4-.2.9-.5,1.3-.8.9-.8,1-2,.3-3-1.9-2.8-3.8-5.6-5.6-8.4-2.5-3.8-5.1-7.6-7.6-11.4-.2-.2-.2-.5-.3-.8,0,0,0,0,.1,0,1.2,1.7,2.4,3.3,3.7,5,0,0,0,0,.1,0-1.4-2-2.7-4-4.1-6,0,0,0,0,0-.1.5.4,1.2.8,1.6,1.4,2.2,3.2,4.4,6.4,6.6,9.7,2.3,3.4,4.6,6.7,6.9,10.1.9,1.3,2.2,1.6,3.5.8.3-.2.6-.3.8-.5,1-.7,1.3-1.8.7-2.9-1.9-3.1-3.8-6.1-5.7-9.2-2.3-3.8-4.7-7.5-7-11.3-.4-.6-.4-1.3-.6-2,0,0,0,0,.1,0,1.2,1.9,2.4,3.9,3.6,5.8,0,0,.1,0,.2,0-.9-1.6-1.9-3.2-2.8-4.8,0,0,0,0,0,0,.2.2.5.4.6.7,3.2,5.1,6.4,10.1,9.6,15.2,1,1.6,2,3.2,3,4.8.8,1.3,2.3,1.7,3.7.9.3-.2.7-.4,1-.6,1.1-.7,1.5-1.9.8-3-.9-1.7-1.9-3.3-2.9-5-2.5-4.2-5-8.5-7.5-12.7-.6-1-1.2-2-1.8-3.1-.2-.3-.2-.8-.4-1.1,0,0,0,0,.1,0,.9,1.4,1.8,2.8,2.7,4.3,0,0,0,0,.1,0-.9-1.6-1.9-3.2-2.7-4.9.4.4,1,.7,1.3,1.2,3.1,5,6.1,10.1,9.2,15.2,1.3,2.1,2.5,4.3,3.9,6.4.9,1.5.3,3-1,3.8-1.7,1-3.5,2-5.2,3-.3.2-.6.3-.9.5.3,1.2.5,2.3,1.2,3.3,3.4,4.8,6.7,9.6,10.1,14.4,1.4,2,2.9,4.1,4.4,6.1,0,.1.3.3,0,.5,0,0,0,.2.1.3,3,4.6,6,9.2,9,13.8,2.2,3.3-1-1.6,1.2,1.8,2,3.1,4,5.8,4.6,6.5,1,.8-3.1,3.7-4,2.4Z" style="fill:#004987;"></path><path d="m197.8,49.7c-.3-.3-.8-.3-1.2-.5,0,.4-.2.7-.2,1.1,0,2.2,0,4.4-1,6.4-.5,1-1.2,1.8-1.9,2.9.6,0,1.2,0,2.1.1-.2.8-.3,1.6-.7,2.3-1.2,2.5-3.2,4.4-6.1,5.1-3.4.8-6.3-.6-7.5-3.7-1.5-4-1.4-8,.4-11.8,1.7-3.5,3.7-6.8,5.7-10.1.2-.3.8-.5,1.2-.6.6,0,.9-.2,1-.8,0-.3.3-.5.4-.8,0-.3,0-.6,0-1,.7-.1.9-.5.3-1.2.8-.2,1.2-.5.7-1.3-.1-.2,0-.6.2-.8.8-1.3,1.7-2.2,2.5-3.5.2-.2.6-.8.7-1.1-.6.7,1.6-2,1.9-2.4.3-.5.2-.9-.4-1.1-.3,0-.5-.2-.9-.4,1.4-.4,2-1.4,2.1-2.6.1-1.2-.1-2.2-.9-3.1-.1-.1-.2-.3-.3-.5-.2-.6-.4-1.2-.6-1.8-.5,0-1-.2-1.5-.2-.4.5-.8,1-1.2,1.5-.1.1-.2.3-.4.4-2.3,1.3-2.7,3.4-1.1,5.5,0,0,0,.2.1.4-.7,0-1.3,0-2,0-.9,0-1.3.4-1.3,1.2,0,.7.3,1.5.3,2.2,0,.9,0,1.9-.3,2.7-.2.7-.8,1.2-1.6,1.5-.4.1-.6.6-.8,1,0,.1,0,.3-.1.4-.2.3-.4.6-.7,1.1-.5,0-.7.5-.2,1.2-.8.3-1,.7-.6,1.5.1.3,0,.9-.2,1.2-1.7,3.3-3.6,6.6-5,10-1.9,4.4-2.6,9.1-.9,13.8,1.3,3.6,3.7,6.3,7.9,6.8,3.3.4,6.2-.7,8.5-2.8,1.4-1.3,2.6-2.8,3.7-4.3.9-1.1,1.3-1.2,2.1,0,.4.5.7.5.9,0,1.7-4.4,1.5-10.1-3.1-14Zm-5.1-27.7c.8.2,1.5.4,2.3.6.4.8.2,2-.6,2.4-.6.3-1.7,0-2.1-.5-.5-.7-.2-2,.4-2.5Z" style="fill:#004987;"></path><path d="m193.9,66.9c1.6-1.2,2.7-2.7,3.8-4.3.3-.5.7-.9,1.1-1.3,0,0,.2,0,.3.1-.2-.4-.4-.7-.6-1.1h-.2c-.8,2.6-2.4,4.6-4.3,6.6Z" style="fill:#004987;"></path><path d="m202.5,78.9c-5.8-8.9-14.4-22.1-14.7-22.5-.1,0-.2,0-.3,0-1-1.7-1.9-3.4-2.9-5-1.1-1.9-2.2-3.7-3.3-5.6-2-3.4-4.1-6.7-6.1-10.1-.7-1.2-1.6-2.3-2.8-3.2-.3-.2-.4-.2-.7,0-1.8,1.1-3.7,2.1-5.5,3.1-1.2.7-3.1.7-4.2-.9-4.4-6.3-8.9-12.6-13.3-18.9-.3-.5-.6-1-1-1.4-.5-.6-.5-1.2-.5-1.9,1.1,1.4,2.1,2.9,3.2,4.3,0,0,0,0,.1,0-.9-1.4-1.8-2.7-2.8-4.1,0,0,0,0,.1-.1.3.3.7.5.9.8,2.5,3.6,5.1,7.1,7.6,10.7,2.1,2.9,4.1,5.8,6.2,8.7,1,1.4,2.3,1.7,3.8.9.4-.2.9-.5,1.3-.8.9-.8,1-2,.3-3-1.9-2.8-3.8-5.6-5.6-8.4-2.5-3.8-5.1-7.6-7.6-11.4-.2-.2-.2-.5-.3-.8,0,0,0,0,.1,0,1.2,1.7,2.4,3.3,3.7,5,0,0,0,0,.1,0-1.4-2-2.7-4-4.1-6,0,0,0,0,0-.1.5.4,1.2.8,1.6,1.4,2.2,3.2,4.4,6.4,6.6,9.7,2.3,3.4,4.6,6.7,6.9,10.1.9,1.3,2.2,1.6,3.5.8.3-.2.6-.3.8-.5,1-.7,1.3-1.8.7-2.9-1.9-3.1-3.8-6.1-5.7-9.2-2.3-3.8-4.7-7.5-7-11.3-.4-.6-.4-1.3-.6-2,0,0,0,0,.1,0,1.2,1.9,2.4,3.9,3.6,5.8,0,0,.1,0,.2,0-.9-1.6-1.9-3.2-2.8-4.8,0,0,0,0,0,0,.2.2.5.4.6.7,3.2,5.1,6.4,10.1,9.6,15.2,1,1.6,2,3.2,3,4.8.8,1.3,2.3,1.7,3.7.9.3-.2.7-.4,1-.6,1.1-.7,1.5-1.9.8-3-.9-1.7-1.9-3.3-2.9-5-2.5-4.2-5-8.5-7.5-12.7-.6-1-1.2-2-1.8-3.1-.2-.3-.2-.8-.4-1.1,0,0,0,0,.1,0,.9,1.4,1.8,2.8,2.7,4.3,0,0,0,0,.1,0-.9-1.6-1.9-3.2-2.7-4.9.4.4,1,.7,1.3,1.2,3.1,5,6.1,10.1,9.2,15.2,1.3,2.1,2.5,4.3,3.9,6.4.9,1.5.3,3-1,3.8-1.7,1-3.5,2-5.2,3-.3.2-.6.3-.9.5.3,1.2.5,2.3,1.2,3.3,3.4,4.8,6.7,9.6,10.1,14.4,1.4,2,2.9,4.1,4.4,6.1,0,.1.3.3,0,.5,0,0,0,.2.1.3,3,4.6,6,9.2,9,13.8,2.2,3.3-1-1.6,1.2,1.8,2,3.1,4,5.8,4.6,6.5,1,.8-3.1,3.7-4,2.4Z" style="fill:url(#linear-gradient);"></path><path d="m197.3,49.2c-.3-.3-.8-.3-1.2-.5,0,.4-.2.7-.2,1.1,0,2.2,0,4.4-1,6.4-.5,1-1.2,1.8-1.9,2.9.6,0,1,.3,1.8.3-.2.8,0,1.4-.4,2.1-1.2,2.5-3.2,4.4-6.1,5.1-3.4.8-6.3-.6-7.5-3.7-1.5-4-1.4-8,.4-11.8,1.7-3.5,3.7-6.8,5.7-10.1.2-.3.8-.5,1.2-.6.6,0,.9-.2,1-.8,0-.3.3-.5.4-.8,0-.3,0-.6,0-1,.7-.1.9-.5.3-1.2.8-.2,1.2-.5.7-1.3-.1-.2,0-.6.2-.8.8-1.3,1.7-2.2,2.5-3.5.2-.2.6-.8.7-1.1-.6.7,1.6-2,1.9-2.4.3-.5.2-.9-.4-1.1-.3,0-.5-.2-.9-.4,1.4-.4,2-1.4,2.1-2.6.1-1.2-.1-2.2-.9-3.1-.1-.1-.2-.3-.3-.5-.2-.6-.4-1.2-.6-1.8-.5,0-1-.2-1.5-.2-.4.5-.8,1-1.2,1.5-.1.1-.2.3-.4.4-2.3,1.3-2.7,3.4-1.1,5.5,0,0,0,.2.1.4-.7,0-1.3,0-2,0-.9,0-1.3.4-1.3,1.2,0,.7.3,1.5.3,2.2,0,.9,0,1.9-.3,2.7-.2.7-.8,1.2-1.6,1.5-.4.1-.6.6-.8,1,0,.1,0,.3-.1.4-.2.3-.4.6-.7,1.1-.5,0-.7.5-.2,1.2-.8.3-1,.7-.6,1.5.1.3,0,.9-.2,1.2-1.7,3.3-3.6,6.6-5,10-1.9,4.4-2.6,9.1-.9,13.8,1.3,3.6,3.7,6.3,7.9,6.8,3.3.4,6.2-.7,8.5-2.8,1.4-1.3,2.6-2.8,3.7-4.3.9-1.1,1.3-1.2,2.1,0,.4.5.7.5.9,0,1.7-4.4,1.5-10.1-3.1-14Zm-5.1-27.7c.8.2,1.5.4,2.3.6.4.8.2,2-.6,2.4-.6.3-1.7,0-2.1-.5-.5-.7-.2-2,.4-2.5Zm7.8,40.6h-.2c1.1-4.4-.9-7.5-.9-7.5l.3-.2,1.2.5h-.4c1.2,3.2,0,7.2,0,7.2Z" style="fill:url(#linear-gradient-2);"></path></g></g><g><g><path d="m26.2,90.9h3.2v3.8c.3-1.6.5-2.6.8-3.2.3-.6.7-.9,1.2-.9s1,.3,1.3.8c.3.6.4,1.3.4,2.3s-.1,1.9-.4,2.5c-.3.6-.6.9-1,.9s-.5-.1-.7-.3c-.2-.2-.3-.5-.3-.8s.2-1.1.6-2.2c.4-1.1.6-1.8.6-2.2s-.2-.7-.5-.7c-.5,0-.9.7-1.3,2.2-.1.7-.2,1.4-.3,1.9,0,.6-.1,1.3-.2,2.1,0,1.1,0,1.9,0,2.5v8.6h1.8v.4h-5.1v-.4h1v-16.9h-1v-.4Z" style="fill:url(#linear-gradient-3);"></path><path d="m53.5,98.9h-4.3v1.6c0,1.5,0,3.3.1,5.1,0,1.1.2,1.9.3,2.3.1.4.4.6.8.6.7,0,1.3-.7,1.7-2,.5-1.3.7-3,.8-5.2h.4c0,1.6-.2,3.2-.6,4.6-.5,1.9-1.3,2.9-2.4,2.9s-1.3-.4-1.8-1.2c-.6-.8-1-1.8-1.3-3.2-.3-1.4-.5-2.9-.5-4.5s.1-2.9.4-4.4c.3-1.5.6-2.6,1.1-3.5.6-1.1,1.2-1.6,2-1.6s1.7.7,2.3,2.2c.6,1.5.9,3.5,1,6.1Zm-4.3-.4h2.1v-.8c0-1.4,0-2.9,0-4.4,0-.8-.1-1.4-.3-1.8-.2-.4-.4-.6-.7-.6-.4,0-.7.4-.8,1.2,0,.4,0,1.3-.1,2.6,0,1.2,0,2.3,0,3.1v.6Z" style="fill:url(#linear-gradient-4);"></path><path d="m73.1,90.9h.4v6.3h-.3v-.4c-.4-2.2-.8-3.7-1.1-4.5-.3-.9-.8-1.4-1.3-1.4s-.6.2-.9.5c-.3.4-.4.8-.4,1.3s.1,1.1.4,1.7c.3.6.7,1.6,1.4,2.8.9,1.6,1.4,2.7,1.7,3.3.6,1.4.8,2.7.8,4s-.2,2.2-.7,2.9c-.5.8-1.1,1.2-1.8,1.2s-.6,0-.8-.2c-.2-.1-.5-.4-.9-.8-.3-.4-.5-.5-.7-.5s-.2,0-.3.1c0,0-.1.2-.2.4,0,.2,0,.5,0,.9h-.3v-6.7h.3c.2,1.9.6,3.5,1.2,4.7.5,1.2,1.1,1.8,1.7,1.8s.7-.2.9-.6c.2-.4.3-.9.3-1.4,0-1.1-.5-2.5-1.5-4.4l-.8-1.4c-1.4-2.6-2.1-4.7-2.1-6.2s.2-2,.7-2.7c.5-.7,1-1.1,1.7-1.1s1.1.3,1.6,1c.2.2.3.3.4.3.3,0,.4-.4.4-1.1Z" style="fill:url(#linear-gradient-5);"></path><path d="m90.9,83.3h.3v7.6h1.8v.4h-1.8v14.5c0,1,0,1.7,0,2.1,0,.3.2.5.4.5s.4-.3.6-.9c.1-.4.2-1.2.3-2.4,0-1.1.1-2.1.1-2.9v-.4h.3v.3h0c0,1.1,0,2.1,0,3.2,0,1-.2,1.8-.3,2.4-.2.9-.5,1.3-1.1,1.3s-1-.3-1.4-.9c-.4-.6-.7-1.5-.9-2.7-.2-1.2-.3-2.6-.3-4v-9.8h-1.1v-.3c1.1-.2,1.8-.8,2.3-1.9.4-1.1.7-2.9.8-5.5v-.3Z" style="fill:url(#linear-gradient-6);"></path><path d="m115.4,101.7h.4v.4c0,2.5-.2,4.4-.5,5.6-.2.8-.6,1.1-1.2,1.1-1.3,0-2-1.3-2.2-3.8-.2,1.4-.4,2.4-.6,2.9-.2.5-.6.8-1,.8-.8,0-1.5-.5-2.1-1.6-.6-1.1-.9-2.3-.9-3.6,0-2.1.8-3.7,2.3-5l1.3-1.1c.2-.2.4-.4.6-.7.1-.2.2-.5.2-.8,0-.4,0-1,0-1.7,0-1.3,0-2.2-.2-2.6-.1-.4-.4-.6-.7-.6s-.5.2-.7.5c-.2.3-.3.7-.3,1.2s0,1.3.2,2.3c0,.3,0,.5,0,.8s0,.6-.3.8c-.2.2-.4.3-.7.3-.8,0-1.1-.6-1.1-1.8s.3-2.2.9-3.1c.6-.9,1.3-1.4,2.1-1.4s1,.2,1.4.6c.4.4.7,1,.9,1.7.4,1.1.6,2.6.7,4.4,0,.6,0,1.4,0,2.2v6.4c0,1.1,0,1.8,0,2.1,0,.3.2.5.3.5.7,0,1-2.1,1.1-6.3v-.4Zm-3.8,1.4v-5.9c-.1.2-.4.5-.8.9-.4.4-.6.7-.7.9-.1.2-.2.6-.3,1.1-.1,1-.2,2.7-.2,5.2s0,2.1.1,2.5c0,.4.3.6.5.6s.5-.2.7-.7c.1-.3.3-.7.4-1.4.1-.6.2-1.1.2-1.5v-1.4c0,0,0-.3,0-.3Z" style="fill:url(#linear-gradient-7);"></path><path d="m138.2,108.6h-3.4v-3.7c-.2,1.1-.3,1.9-.5,2.4-.2.5-.3.9-.5,1.1-.2.2-.4.4-.7.4-.7,0-1.3-.5-1.7-1.6-.6-1.4-.9-3.5-.9-6.3v-9.7h-1.1v-.4h3.4v14.7c0,1.1,0,1.8,0,2.2,0,.5.2.7.4.7s.6-.5.8-1.5c.5-2.1.8-4.5.8-7.2v-8.4h-.8v-.4h3.1v17.3h1.1v.4Z" style="fill:url(#linear-gradient-8);"></path><path d="m152.2,90.9h3.2v3.8c.3-1.6.5-2.6.8-3.2.3-.6.7-.9,1.2-.9s1,.3,1.3.8c.3.6.4,1.3.4,2.3s-.1,1.9-.4,2.5c-.3.6-.6.9-1,.9s-.5-.1-.7-.3c-.2-.2-.3-.5-.3-.8s.2-1.1.6-2.2c.4-1.1.6-1.8.6-2.2s-.2-.7-.5-.7c-.5,0-.9.7-1.3,2.2-.1.7-.2,1.4-.3,1.9,0,.6-.1,1.3-.2,2.1,0,1.1,0,1.9,0,2.5v8.6h1.8v.4h-5.1v-.4h1v-16.9h-1v-.4Z" style="fill:url(#linear-gradient-9);"></path><path d="m180.8,101.7h.4v.4c0,2.5-.2,4.4-.5,5.6-.2.8-.6,1.1-1.2,1.1-1.3,0-2-1.3-2.2-3.8-.2,1.4-.4,2.4-.6,2.9-.2.5-.6.8-1,.8-.8,0-1.5-.5-2.1-1.6-.6-1.1-.9-2.3-.9-3.6,0-2.1.8-3.7,2.3-5l1.3-1.1c.2-.2.4-.4.6-.7.1-.2.2-.5.2-.8,0-.4,0-1,0-1.7,0-1.3,0-2.2-.2-2.6-.1-.4-.4-.6-.7-.6s-.5.2-.7.5c-.2.3-.3.7-.3,1.2s0,1.3.2,2.3c0,.3,0,.5,0,.8s0,.6-.3.8c-.2.2-.4.3-.7.3-.8,0-1.1-.6-1.1-1.8s.3-2.2.9-3.1c.6-.9,1.3-1.4,2.1-1.4s1,.2,1.4.6c.4.4.7,1,.9,1.7.4,1.1.6,2.6.7,4.4,0,.6,0,1.4,0,2.2v6.4c0,1.1,0,1.8,0,2.1,0,.3.2.5.3.5.7,0,1-2.1,1.1-6.3v-.4Zm-3.8,1.4v-5.9c-.1.2-.4.5-.8.9-.4.4-.6.7-.7.9-.1.2-.2.6-.3,1.1-.1,1-.2,2.7-.2,5.2s0,2.1.1,2.5c0,.4.3.6.5.6s.5-.2.7-.7c.1-.3.3-.7.4-1.4.1-.6.2-1.1.2-1.5v-1.4c0,0,0-.3,0-.3Z" style="fill:url(#linear-gradient-10);"></path><path d="m194.9,90.9h3.4v3.6c.2-1.5.4-2.5.7-3s.6-.8,1.1-.8.6.2,1,.5c.3.3.6.7.8,1.2.6,1.4.9,3.5.9,6.3v9.7h1.1v.4h-4.2v-.4h.8v-14.8c0-.9,0-1.5,0-1.9,0-.3-.2-.5-.4-.5-.3,0-.6.5-.9,1.5-.3,1.1-.4,2.2-.6,3.4-.1,1.3-.2,2.6-.2,3.8v8.4h.7v.4h-4.1v-.4h1.1v-16.9h-1.1v-.4Z" style="fill:url(#linear-gradient-11);"></path><path d="m220.4,83.3h.3v7.6h1.8v.4h-1.8v14.5c0,1,0,1.7,0,2.1,0,.3.2.5.4.5s.4-.3.6-.9c.1-.4.2-1.2.3-2.4,0-1.1.1-2.1.1-2.9v-.4h.3v.3h0c0,1.1,0,2.1,0,3.2,0,1-.2,1.8-.3,2.4-.2.9-.5,1.3-1.1,1.3s-1-.3-1.4-.9c-.4-.6-.7-1.5-.9-2.7-.2-1.2-.3-2.6-.3-4v-9.8h-1.1v-.3c1.1-.2,1.8-.8,2.3-1.9.4-1.1.7-2.9.8-5.5v-.3Z" style="fill:url(#linear-gradient-12);"></path><path d="m273.3,108.6v-26.6h-1.1v-.4h3.4v12.6c.2-1.3.3-2.2.6-2.8.2-.5.5-.8.9-.8s1.1.4,1.6,1.2c.5.8.9,1.9,1.2,3.3.3,1.4.5,2.8.5,4.2s-.2,3.2-.5,4.6c-.3,1.5-.8,2.7-1.3,3.6-.5.9-1.1,1.4-1.7,1.4s-.5,0-.7-.3c-.2-.2-.4-.6-.7-1.1-.3-.6-.5-.9-.8-.9-.6,0-.9.7-.9,2h-.4Zm2.2-7.2c0,2.5.2,4.4.5,5.7.2.9.5,1.3.9,1.3s.4,0,.5-.3c.1-.2.2-.5.3-.9,0-.5.2-1.6.2-3.4,0-1.4,0-2.9,0-4.4s0-1.1,0-1.6c0-2.4,0-3.8,0-4.3,0-1-.1-1.7-.2-2,0-.4-.3-.5-.5-.5-.4,0-.8.8-1.1,2.5-.2,1.1-.3,2.4-.4,3.9,0,1.4-.1,2.7-.1,3.9Z" style="fill:url(#linear-gradient-13);"></path><path d="m302.6,101.7h.4v.4c0,2.5-.2,4.4-.5,5.6-.2.8-.6,1.1-1.2,1.1-1.3,0-2-1.3-2.2-3.8-.2,1.4-.4,2.4-.6,2.9-.2.5-.6.8-1,.8-.8,0-1.5-.5-2.1-1.6-.6-1.1-.9-2.3-.9-3.6,0-2.1.8-3.7,2.3-5l1.3-1.1c.2-.2.4-.4.6-.7.1-.2.2-.5.2-.8,0-.4,0-1,0-1.7,0-1.3,0-2.2-.2-2.6-.1-.4-.4-.6-.7-.6s-.5.2-.7.5c-.2.3-.3.7-.3,1.2s0,1.3.2,2.3c0,.3,0,.5,0,.8s0,.6-.3.8c-.2.2-.4.3-.7.3-.8,0-1.1-.6-1.1-1.8s.3-2.2.9-3.1c.6-.9,1.3-1.4,2.1-1.4s1,.2,1.4.6c.4.4.7,1,.9,1.7.4,1.1.6,2.6.7,4.4,0,.6,0,1.4,0,2.2v6.4c0,1.1,0,1.8,0,2.1,0,.3.2.5.3.5.7,0,1-2.1,1.1-6.3v-.4Zm-3.8,1.4v-5.9c-.1.2-.4.5-.8.9-.4.4-.6.7-.7.9-.1.2-.2.6-.3,1.1-.1,1-.2,2.7-.2,5.2s0,2.1.1,2.5c0,.4.3.6.5.6s.5-.2.7-.7c.1-.3.3-.7.4-1.4.1-.6.2-1.1.2-1.5v-1.4c0,0,0-.3,0-.3Z" style="fill:url(#linear-gradient-14);"></path><path d="m316.8,90.9h3.2v3.8c.3-1.6.5-2.6.8-3.2.3-.6.7-.9,1.2-.9s1,.3,1.3.8c.3.6.4,1.3.4,2.3s-.1,1.9-.4,2.5c-.3.6-.6.9-1,.9s-.5-.1-.7-.3c-.2-.2-.3-.5-.3-.8s.2-1.1.6-2.2c.4-1.1.6-1.8.6-2.2s-.2-.7-.5-.7c-.5,0-.9.7-1.3,2.2-.1.7-.2,1.4-.3,1.9,0,.6-.1,1.3-.2,2.1,0,1.1,0,1.9,0,2.5v8.6h1.8v.4h-5.1v-.4h1v-16.9h-1v-.4Z" style="fill:url(#linear-gradient-15);"></path></g><path d="m248.9,91.5v5.4h5.2v1.4h-5.2v5.5h-1.5v-5.5h-5.2v-1.4h5.2v-5.4h1.5Z" style="fill:url(#linear-gradient-16);"></path></g></svg> 