<?xml version="1.0" encoding="UTF-8"?> <svg xmlns="http://www.w3.org/2000/svg" viewBox="0 0 3000 2000"><g id="Background"><rect width="3000" height="2000" style="fill:#10508b;"></rect></g><g id="_ÎÓÈ_1"><g><g><path d="m291.7,83.3c-12.1,12.1-71.3,71.3-83.3,83.3l-41.7-41.7,41.7-41.7-41.7-41.7L208.3,0c12.1,12.1,71.3,71.3,83.3,83.3Z" style="fill:#005c92;"></path><polygon points="458.3 0 375 0 291.7 0 375 83.3 458.3 0" style="fill:#005c92;"></polygon><polygon points="541.7 83.3 583.3 125 541.7 166.7 458.3 83.3 541.7 0 583.3 41.7 541.7 83.3" style="fill:#005c92;"></polygon></g><g><path d="m291.7,333.3c-12.1,12.1-71.3,71.3-83.3,83.3l-41.7-41.7,41.7-41.7-41.7-41.7,41.7-41.7c12.1,12.1,71.3,71.3,83.3,83.3Z" style="fill:#005c92;"></path><rect x="345.5" y="95.5" width="58.9" height="58.9" transform="translate(21.4 301.8) rotate(-45)" style="fill:#005c92;"></rect><polygon points="500 208.3 375 333.3 250 208.3 291.7 166.7 375 250 458.3 166.7 500 208.3" style="fill:#005c92;"></polygon><polygon points="541.7 333.3 583.3 375 541.7 416.7 458.3 333.3 541.7 250 583.3 291.7 541.7 333.3" style="fill:#005c92;"></polygon></g><g><path d="m291.7,583.3c-12.1,12.1-71.3,71.3-83.3,83.3l-41.7-41.7,41.7-41.7-41.7-41.7,41.7-41.7c12.1,12.1,71.3,71.3,83.3,83.3Z" style="fill:#005c92;"></path><rect x="345.5" y="345.5" width="58.9" height="58.9" transform="translate(-155.3 375) rotate(-45)" style="fill:#005c92;"></rect><polygon points="500 458.3 375 583.3 250 458.3 291.7 416.7 375 500 458.3 416.7 500 458.3" style="fill:#005c92;"></polygon><polygon points="541.7 583.3 583.3 625 541.7 666.7 458.3 583.3 541.7 500 583.3 541.7 541.7 583.3" style="fill:#005c92;"></polygon></g><g><path d="m291.7,833.3c-12.1,12.1-71.3,71.3-83.3,83.3l-41.7-41.7,41.7-41.7-41.7-41.7,41.7-41.7c12.1,12.1,71.3,71.3,83.3,83.3Z" style="fill:#005c92;"></path><rect x="345.5" y="595.5" width="58.9" height="58.9" transform="translate(-332.1 448.2) rotate(-45)" style="fill:#005c92;"></rect><polygon points="500 708.3 375 833.3 250 708.3 291.7 666.7 375 750 458.3 666.7 500 708.3" style="fill:#005c92;"></polygon><polygon points="541.7 833.3 583.3 875 541.7 916.7 458.3 833.3 541.7 750 583.3 791.7 541.7 833.3" style="fill:#005c92;"></polygon></g><g><path d="m291.7,1083.3c-12.1,12.1-71.3,71.3-83.3,83.3l-41.7-41.7,41.7-41.7-41.7-41.7,41.7-41.7c12.1,12.1,71.3,71.3,83.3,83.3Z" style="fill:#005c92;"></path><rect x="345.5" y="845.5" width="58.9" height="58.9" transform="translate(-508.9 521.4) rotate(-45)" style="fill:#005c92;"></rect><polygon points="500 958.3 375 1083.3 250 958.3 291.7 916.7 375 1000 458.3 916.7 500 958.3" style="fill:#005c92;"></polygon><polygon points="541.7 1083.3 583.3 1125 541.7 1166.7 458.3 1083.3 541.7 1000 583.3 1041.7 541.7 1083.3" style="fill:#005c92;"></polygon></g><g><path d="m291.7,1333.3c-12.1,12.1-71.3,71.3-83.3,83.3l-41.7-41.7,41.7-41.7-41.7-41.7,41.7-41.7c12.1,12.1,71.3,71.3,83.3,83.3Z" style="fill:#005c92;"></path><rect x="345.5" y="1095.5" width="58.9" height="58.9" transform="translate(-685.7 594.7) rotate(-45)" style="fill:#005c92;"></rect><polygon points="500 1208.3 375 1333.3 250 1208.3 291.7 1166.7 375 1250 458.3 1166.7 500 1208.3" style="fill:#005c92;"></polygon><polygon points="541.7 1333.3 583.3 1375 541.7 1416.7 458.3 1333.3 541.7 1250 583.3 1291.7 541.7 1333.3" style="fill:#005c92;"></polygon></g><g><path d="m291.7,1583.3c-12.1,12.1-71.3,71.3-83.3,83.3l-41.7-41.7,41.7-41.7-41.7-41.7,41.7-41.7c12.1,12.1,71.3,71.3,83.3,83.3Z" style="fill:#005c92;"></path><rect x="345.5" y="1345.5" width="58.9" height="58.9" transform="translate(-862.4 667.9) rotate(-45)" style="fill:#005c92;"></rect><polygon points="500 1458.3 375 1583.3 250 1458.3 291.7 1416.7 375 1500 458.3 1416.7 500 1458.3" style="fill:#005c92;"></polygon><polygon points="541.7 1583.3 583.3 1625 541.7 1666.7 458.3 1583.3 541.7 1500 583.3 1541.7 541.7 1583.3" style="fill:#005c92;"></polygon></g><g><path d="m291.7,1833.3c-12.1,12.1-71.3,71.3-83.3,83.3l-41.7-41.7,41.7-41.7-41.7-41.7,41.7-41.7c12.1,12.1,71.3,71.3,83.3,83.3Z" style="fill:#005c92;"></path><rect x="345.5" y="1595.5" width="58.9" height="58.9" transform="translate(-1039.2 741.1) rotate(-45)" style="fill:#005c92;"></rect><polygon points="500 1708.3 375 1833.3 250 1708.3 291.7 1666.7 375 1750 458.3 1666.7 500 1708.3" style="fill:#005c92;"></polygon><polygon points="541.7 1833.3 583.3 1875 541.7 1916.7 458.3 1833.3 541.7 1750 583.3 1791.7 541.7 1833.3" style="fill:#005c92;"></polygon></g><g><rect x="345.5" y="1845.5" width="58.9" height="58.9" transform="translate(-1216 814.3) rotate(-45)" style="fill:#005c92;"></rect><polygon points="291.7 1916.7 250 1958.3 291.7 2000 375 2000 291.7 1916.7" style="fill:#005c92;"></polygon><polygon points="458.3 1916.7 375 2000 458.3 2000 500 1958.3 458.3 1916.7" style="fill:#005c92;"></polygon></g><g><path d="m1041.7,83.3c-12.1,12.1-71.3,71.3-83.3,83.3l-41.7-41.7,41.7-41.7-41.7-41.7L958.3,0c12.1,12.1,71.3,71.3,83.3,83.3Z" style="fill:#005c92;"></path><polygon points="1208.3 0 1125 0 1041.7 0 1125 83.3 1208.3 0" style="fill:#005c92;"></polygon><polygon points="1291.7 83.3 1333.3 125 1291.7 166.7 1208.3 83.3 1291.7 0 1333.3 41.7 1291.7 83.3" style="fill:#005c92;"></polygon></g><g><path d="m1041.7,333.3c-12.1,12.1-71.3,71.3-83.3,83.3l-41.7-41.7,41.7-41.7-41.7-41.7,41.7-41.7c12.1,12.1,71.3,71.3,83.3,83.3Z" style="fill:#005c92;"></path><rect x="1095.5" y="95.5" width="58.9" height="58.9" transform="translate(241.1 832.1) rotate(-45)" style="fill:#005c92;"></rect><polygon points="1250 208.3 1125 333.3 1000 208.3 1041.7 166.7 1125 250 1208.3 166.7 1250 208.3" style="fill:#005c92;"></polygon><polygon points="1291.7 333.3 1333.3 375 1291.7 416.7 1208.3 333.3 1291.7 250 1333.3 291.7 1291.7 333.3" style="fill:#005c92;"></polygon></g><g><path d="m1041.7,583.3c-12.1,12.1-71.3,71.3-83.3,83.3l-41.7-41.7,41.7-41.7-41.7-41.7,41.7-41.7c12.1,12.1,71.3,71.3,83.3,83.3Z" style="fill:#005c92;"></path><rect x="1095.5" y="345.5" width="58.9" height="58.9" transform="translate(64.3 905.3) rotate(-45)" style="fill:#005c92;"></rect><polygon points="1250 458.3 1125 583.3 1000 458.3 1041.7 416.7 1125 500 1208.3 416.7 1250 458.3" style="fill:#005c92;"></polygon><polygon points="1291.7 583.3 1333.3 625 1291.7 666.7 1208.3 583.3 1291.7 500 1333.3 541.7 1291.7 583.3" style="fill:#005c92;"></polygon></g><g><path d="m1041.7,833.3c-12.1,12.1-71.3,71.3-83.3,83.3l-41.7-41.7,41.7-41.7-41.7-41.7,41.7-41.7c12.1,12.1,71.3,71.3,83.3,83.3Z" style="fill:#005c92;"></path><rect x="1095.5" y="595.5" width="58.9" height="58.9" transform="translate(-112.4 978.6) rotate(-45)" style="fill:#005c92;"></rect><polygon points="1250 708.3 1125 833.3 1000 708.3 1041.7 666.7 1125 750 1208.3 666.7 1250 708.3" style="fill:#005c92;"></polygon><polygon points="1291.7 833.3 1333.3 875 1291.7 916.7 1208.3 833.3 1291.7 750 1333.3 791.7 1291.7 833.3" style="fill:#005c92;"></polygon></g><g><path d="m1041.7,1083.3c-12.1,12.1-71.3,71.3-83.3,83.3l-41.7-41.7,41.7-41.7-41.7-41.7,41.7-41.7c12.1,12.1,71.3,71.3,83.3,83.3Z" style="fill:#005c92;"></path><rect x="1095.5" y="845.5" width="58.9" height="58.9" transform="translate(-289.2 1051.8) rotate(-45)" style="fill:#005c92;"></rect><polygon points="1250 958.3 1125 1083.3 1000 958.3 1041.7 916.7 1125 1000 1208.3 916.7 1250 958.3" style="fill:#005c92;"></polygon><polygon points="1291.7 1083.3 1333.3 1125 1291.7 1166.7 1208.3 1083.3 1291.7 1000 1333.3 1041.7 1291.7 1083.3" style="fill:#005c92;"></polygon></g><g><path d="m1041.7,1333.3c-12.1,12.1-71.3,71.3-83.3,83.3l-41.7-41.7,41.7-41.7-41.7-41.7,41.7-41.7c12.1,12.1,71.3,71.3,83.3,83.3Z" style="fill:#005c92;"></path><rect x="1095.5" y="1095.5" width="58.9" height="58.9" transform="translate(-466 1125) rotate(-45)" style="fill:#005c92;"></rect><polygon points="1250 1208.3 1125 1333.3 1000 1208.3 1041.7 1166.7 1125 1250 1208.3 1166.7 1250 1208.3" style="fill:#005c92;"></polygon><polygon points="1291.7 1333.3 1333.3 1375 1291.7 1416.7 1208.3 1333.3 1291.7 1250 1333.3 1291.7 1291.7 1333.3" style="fill:#005c92;"></polygon></g><g><path d="m1041.7,1583.3c-12.1,12.1-71.3,71.3-83.3,83.3l-41.7-41.7,41.7-41.7-41.7-41.7,41.7-41.7c12.1,12.1,71.3,71.3,83.3,83.3Z" style="fill:#005c92;"></path><rect x="1095.5" y="1345.5" width="58.9" height="58.9" transform="translate(-642.8 1198.2) rotate(-45)" style="fill:#005c92;"></rect><polygon points="1250 1458.3 1125 1583.3 1000 1458.3 1041.7 1416.7 1125 1500 1208.3 1416.7 1250 1458.3" style="fill:#005c92;"></polygon><polygon points="1291.7 1583.3 1333.3 1625 1291.7 1666.7 1208.3 1583.3 1291.7 1500 1333.3 1541.7 1291.7 1583.3" style="fill:#005c92;"></polygon></g><g><path d="m1041.7,1833.3c-12.1,12.1-71.3,71.3-83.3,83.3l-41.7-41.7,41.7-41.7-41.7-41.7,41.7-41.7c12.1,12.1,71.3,71.3,83.3,83.3Z" style="fill:#005c92;"></path><rect x="1095.5" y="1595.5" width="58.9" height="58.9" transform="translate(-819.5 1271.4) rotate(-45)" style="fill:#005c92;"></rect><polygon points="1250 1708.3 1125 1833.3 1000 1708.3 1041.7 1666.7 1125 1750 1208.3 1666.7 1250 1708.3" style="fill:#005c92;"></polygon><polygon points="1291.7 1833.3 1333.3 1875 1291.7 1916.7 1208.3 1833.3 1291.7 1750 1333.3 1791.7 1291.7 1833.3" style="fill:#005c92;"></polygon></g><g><rect x="1095.5" y="1845.5" width="58.9" height="58.9" transform="translate(-996.3 1344.7) rotate(-45)" style="fill:#005c92;"></rect><polygon points="1041.7 1916.7 1000 1958.3 1041.7 2000 1125 2000 1041.7 1916.7" style="fill:#005c92;"></polygon><polygon points="1208.3 1916.7 1125 2000 1208.3 2000 1250 1958.3 1208.3 1916.7" style="fill:#005c92;"></polygon></g><g><path d="m1791.7,83.3c-12.1,12.1-71.3,71.3-83.3,83.3l-41.7-41.7,41.7-41.7-41.7-41.7L1708.3,0c12.1,12.1,71.3,71.3,83.3,83.3Z" style="fill:#005c92;"></path><polygon points="1958.3 0 1875 0 1791.7 0 1875 83.3 1958.3 0" style="fill:#005c92;"></polygon><polygon points="2041.7 83.3 2083.3 125 2041.7 166.7 1958.3 83.3 2041.7 0 2083.3 41.7 2041.7 83.3" style="fill:#005c92;"></polygon></g><g><path d="m1791.7,333.3c-12.1,12.1-71.3,71.3-83.3,83.3l-41.7-41.7,41.7-41.7-41.7-41.7,41.7-41.7c12.1,12.1,71.3,71.3,83.3,83.3Z" style="fill:#005c92;"></path><rect x="1845.5" y="95.5" width="58.9" height="58.9" transform="translate(460.8 1362.4) rotate(-45)" style="fill:#005c92;"></rect><polygon points="2000 208.3 1875 333.3 1750 208.3 1791.7 166.7 1875 250 1958.3 166.7 2000 208.3" style="fill:#005c92;"></polygon><polygon points="2041.7 333.3 2083.3 375 2041.7 416.7 1958.3 333.3 2041.7 250 2083.3 291.7 2041.7 333.3" style="fill:#005c92;"></polygon></g><g><path d="m1791.7,583.3c-12.1,12.1-71.3,71.3-83.3,83.3l-41.7-41.7,41.7-41.7-41.7-41.7,41.7-41.7c12.1,12.1,71.3,71.3,83.3,83.3Z" style="fill:#005c92;"></path><rect x="1845.5" y="345.5" width="58.9" height="58.9" transform="translate(284 1435.7) rotate(-45)" style="fill:#005c92;"></rect><polygon points="2000 458.3 1875 583.3 1750 458.3 1791.7 416.7 1875 500 1958.3 416.7 2000 458.3" style="fill:#005c92;"></polygon><polygon points="2041.7 583.3 2083.3 625 2041.7 666.7 1958.3 583.3 2041.7 500 2083.3 541.7 2041.7 583.3" style="fill:#005c92;"></polygon></g><g><path d="m1791.7,833.3c-12.1,12.1-71.3,71.3-83.3,83.3l-41.7-41.7,41.7-41.7-41.7-41.7,41.7-41.7c12.1,12.1,71.3,71.3,83.3,83.3Z" style="fill:#005c92;"></path><rect x="1845.5" y="595.5" width="58.9" height="58.9" transform="translate(107.2 1508.9) rotate(-45)" style="fill:#005c92;"></rect><polygon points="2000 708.3 1875 833.3 1750 708.3 1791.7 666.7 1875 750 1958.3 666.7 2000 708.3" style="fill:#005c92;"></polygon><polygon points="2041.7 833.3 2083.3 875 2041.7 916.7 1958.3 833.3 2041.7 750 2083.3 791.7 2041.7 833.3" style="fill:#005c92;"></polygon></g><g><path d="m1791.7,1083.3c-12.1,12.1-71.3,71.3-83.3,83.3l-41.7-41.7,41.7-41.7-41.7-41.7,41.7-41.7c12.1,12.1,71.3,71.3,83.3,83.3Z" style="fill:#005c92;"></path><rect x="1845.5" y="845.5" width="58.9" height="58.9" transform="translate(-69.5 1582.1) rotate(-45)" style="fill:#005c92;"></rect><polygon points="2000 958.3 1875 1083.3 1750 958.3 1791.7 916.7 1875 1000 1958.3 916.7 2000 958.3" style="fill:#005c92;"></polygon><polygon points="2041.7 1083.3 2083.3 1125 2041.7 1166.7 1958.3 1083.3 2041.7 1000 2083.3 1041.7 2041.7 1083.3" style="fill:#005c92;"></polygon></g><g><path d="m1791.7,1333.3c-12.1,12.1-71.3,71.3-83.3,83.3l-41.7-41.7,41.7-41.7-41.7-41.7,41.7-41.7c12.1,12.1,71.3,71.3,83.3,83.3Z" style="fill:#005c92;"></path><rect x="1845.5" y="1095.5" width="58.9" height="58.9" transform="translate(-246.3 1655.3) rotate(-45)" style="fill:#005c92;"></rect><polygon points="2000 1208.3 1875 1333.3 1750 1208.3 1791.7 1166.7 1875 1250 1958.3 1166.7 2000 1208.3" style="fill:#005c92;"></polygon><polygon points="2041.7 1333.3 2083.3 1375 2041.7 1416.7 1958.3 1333.3 2041.7 1250 2083.3 1291.7 2041.7 1333.3" style="fill:#005c92;"></polygon></g><g><path d="m1791.7,1583.3c-12.1,12.1-71.3,71.3-83.3,83.3l-41.7-41.7,41.7-41.7-41.7-41.7,41.7-41.7c12.1,12.1,71.3,71.3,83.3,83.3Z" style="fill:#005c92;"></path><rect x="1845.5" y="1345.5" width="58.9" height="58.9" transform="translate(-423.1 1728.6) rotate(-45)" style="fill:#005c92;"></rect><polygon points="2000 1458.3 1875 1583.3 1750 1458.3 1791.7 1416.7 1875 1500 1958.3 1416.7 2000 1458.3" style="fill:#005c92;"></polygon><polygon points="2041.7 1583.3 2083.3 1625 2041.7 1666.7 1958.3 1583.3 2041.7 1500 2083.3 1541.7 2041.7 1583.3" style="fill:#005c92;"></polygon></g><g><path d="m1791.7,1833.3c-12.1,12.1-71.3,71.3-83.3,83.3l-41.7-41.7,41.7-41.7-41.7-41.7,41.7-41.7c12.1,12.1,71.3,71.3,83.3,83.3Z" style="fill:#005c92;"></path><rect x="1845.5" y="1595.5" width="58.9" height="58.9" transform="translate(-599.9 1801.8) rotate(-45)" style="fill:#005c92;"></rect><polygon points="2000 1708.3 1875 1833.3 1750 1708.3 1791.7 1666.7 1875 1750 1958.3 1666.7 2000 1708.3" style="fill:#005c92;"></polygon><polygon points="2041.7 1833.3 2083.3 1875 2041.7 1916.7 1958.3 1833.3 2041.7 1750 2083.3 1791.7 2041.7 1833.3" style="fill:#005c92;"></polygon></g><g><rect x="1845.5" y="1845.5" width="58.9" height="58.9" transform="translate(-776.7 1875) rotate(-45)" style="fill:#005c92;"></rect><polygon points="1791.7 1916.7 1750 1958.3 1791.7 2000 1875 2000 1791.7 1916.7" style="fill:#005c92;"></polygon><polygon points="1958.3 1916.7 1875 2000 1958.3 2000 2000 1958.3 1958.3 1916.7" style="fill:#005c92;"></polygon></g><g><path d="m2541.7,83.3c-12.1,12.1-71.3,71.3-83.3,83.3l-41.7-41.7,41.7-41.7-41.7-41.7,41.7-41.7c12.1,12.1,71.3,71.3,83.3,83.3Z" style="fill:#005c92;"></path><polygon points="2708.3 0 2625 0 2541.7 0 2625 83.3 2708.3 0" style="fill:#005c92;"></polygon><polygon points="2791.7 83.3 2833.3 125 2791.7 166.7 2708.3 83.3 2791.7 0 2833.3 41.7 2791.7 83.3" style="fill:#005c92;"></polygon></g><g><path d="m2541.7,333.3c-12.1,12.1-71.3,71.3-83.3,83.3l-41.7-41.7,41.7-41.7-41.7-41.7,41.7-41.7c12.1,12.1,71.3,71.3,83.3,83.3Z" style="fill:#005c92;"></path><rect x="2595.5" y="95.5" width="58.9" height="58.9" transform="translate(680.5 1892.8) rotate(-45)" style="fill:#005c92;"></rect><polygon points="2750 208.3 2625 333.3 2500 208.3 2541.7 166.7 2625 250 2708.3 166.7 2750 208.3" style="fill:#005c92;"></polygon><polygon points="2791.7 333.3 2833.3 375 2791.7 416.7 2708.3 333.3 2791.7 250 2833.3 291.7 2791.7 333.3" style="fill:#005c92;"></polygon></g><g><path d="m2541.7,583.3c-12.1,12.1-71.3,71.3-83.3,83.3l-41.7-41.7,41.7-41.7-41.7-41.7,41.7-41.7c12.1,12.1,71.3,71.3,83.3,83.3Z" style="fill:#005c92;"></path><rect x="2595.5" y="345.5" width="58.9" height="58.9" transform="translate(503.7 1966) rotate(-45)" style="fill:#005c92;"></rect><polygon points="2750 458.3 2625 583.3 2500 458.3 2541.7 416.7 2625 500 2708.3 416.7 2750 458.3" style="fill:#005c92;"></polygon><polygon points="2791.7 583.3 2833.3 625 2791.7 666.7 2708.3 583.3 2791.7 500 2833.3 541.7 2791.7 583.3" style="fill:#005c92;"></polygon></g><g><path d="m2541.7,833.3c-12.1,12.1-71.3,71.3-83.3,83.3l-41.7-41.7,41.7-41.7-41.7-41.7,41.7-41.7c12.1,12.1,71.3,71.3,83.3,83.3Z" style="fill:#005c92;"></path><rect x="2595.5" y="595.5" width="58.9" height="58.9" transform="translate(326.9 2039.2) rotate(-45)" style="fill:#005c92;"></rect><polygon points="2750 708.3 2625 833.3 2500 708.3 2541.7 666.7 2625 750 2708.3 666.7 2750 708.3" style="fill:#005c92;"></polygon><polygon points="2791.7 833.3 2833.3 875 2791.7 916.7 2708.3 833.3 2791.7 750 2833.3 791.7 2791.7 833.3" style="fill:#005c92;"></polygon></g><g><path d="m2541.7,1083.3c-12.1,12.1-71.3,71.3-83.3,83.3l-41.7-41.7,41.7-41.7-41.7-41.7,41.7-41.7c12.1,12.1,71.3,71.3,83.3,83.3Z" style="fill:#005c92;"></path><rect x="2595.5" y="845.5" width="58.9" height="58.9" transform="translate(150.1 2112.4) rotate(-45)" style="fill:#005c92;"></rect><polygon points="2750 958.3 2625 1083.3 2500 958.3 2541.7 916.7 2625 1000 2708.3 916.7 2750 958.3" style="fill:#005c92;"></polygon><polygon points="2791.7 1083.3 2833.3 1125 2791.7 1166.7 2708.3 1083.3 2791.7 1000 2833.3 1041.7 2791.7 1083.3" style="fill:#005c92;"></polygon></g><g><path d="m2541.7,1333.3c-12.1,12.1-71.3,71.3-83.3,83.3l-41.7-41.7,41.7-41.7-41.7-41.7,41.7-41.7c12.1,12.1,71.3,71.3,83.3,83.3Z" style="fill:#005c92;"></path><rect x="2595.5" y="1095.5" width="58.9" height="58.9" transform="translate(-26.7 2185.7) rotate(-45)" style="fill:#005c92;"></rect><polygon points="2750 1208.3 2625 1333.3 2500 1208.3 2541.7 1166.7 2625 1250 2708.3 1166.7 2750 1208.3" style="fill:#005c92;"></polygon><polygon points="2791.7 1333.3 2833.3 1375 2791.7 1416.7 2708.3 1333.3 2791.7 1250 2833.3 1291.7 2791.7 1333.3" style="fill:#005c92;"></polygon></g><g><path d="m2541.7,1583.3c-12.1,12.1-71.3,71.3-83.3,83.3l-41.7-41.7,41.7-41.7-41.7-41.7,41.7-41.7c12.1,12.1,71.3,71.3,83.3,83.3Z" style="fill:#005c92;"></path><rect x="2595.5" y="1345.5" width="58.9" height="58.9" transform="translate(-203.4 2258.9) rotate(-45)" style="fill:#005c92;"></rect><polygon points="2750 1458.3 2625 1583.3 2500 1458.3 2541.7 1416.7 2625 1500 2708.3 1416.7 2750 1458.3" style="fill:#005c92;"></polygon><polygon points="2791.7 1583.3 2833.3 1625 2791.7 1666.7 2708.3 1583.3 2791.7 1500 2833.3 1541.7 2791.7 1583.3" style="fill:#005c92;"></polygon></g><g><path d="m2541.7,1833.3c-12.1,12.1-71.3,71.3-83.3,83.3l-41.7-41.7,41.7-41.7-41.7-41.7,41.7-41.7c12.1,12.1,71.3,71.3,83.3,83.3Z" style="fill:#005c92;"></path><rect x="2595.5" y="1595.5" width="58.9" height="58.9" transform="translate(-380.2 2332.1) rotate(-45)" style="fill:#005c92;"></rect><polygon points="2750 1708.3 2625 1833.3 2500 1708.3 2541.7 1666.7 2625 1750 2708.3 1666.7 2750 1708.3" style="fill:#005c92;"></polygon><polygon points="2791.7 1833.3 2833.3 1875 2791.7 1916.7 2708.3 1833.3 2791.7 1750 2833.3 1791.7 2791.7 1833.3" style="fill:#005c92;"></polygon></g><g><rect x="2595.5" y="1845.5" width="58.9" height="58.9" transform="translate(-557 2405.3) rotate(-45)" style="fill:#005c92;"></rect><polygon points="2541.7 1916.7 2500 1958.3 2541.7 2000 2625 2000 2541.7 1916.7" style="fill:#005c92;"></polygon><polygon points="2708.3 1916.7 2625 2000 2708.3 2000 2750 1958.3 2708.3 1916.7" style="fill:#005c92;"></polygon></g><polygon points="208.3 0 125 0 166.7 41.7 208.3 0" style="fill:#005c92;"></polygon><g><polygon points="0 0 0 41.7 41.7 0 0 0" style="fill:#005c92;"></polygon><polygon points="83.3 41.7 0 125 0 208.3 125 83.3 83.3 41.7" style="fill:#005c92;"></polygon><polygon points="166.7 208.3 208.3 250 166.7 291.7 83.3 208.3 166.7 125 208.3 166.7 166.7 208.3" style="fill:#005c92;"></polygon></g><g><polygon points="0 208.3 0 291.7 41.7 250 0 208.3" style="fill:#005c92;"></polygon><polygon points="83.3 291.7 0 375 0 458.3 125 333.3 83.3 291.7" style="fill:#005c92;"></polygon><polygon points="166.7 458.3 208.3 500 166.7 541.7 83.3 458.3 166.7 375 208.3 416.7 166.7 458.3" style="fill:#005c92;"></polygon></g><g><polygon points="0 458.3 0 541.7 41.7 500 0 458.3" style="fill:#005c92;"></polygon><polygon points="83.3 541.7 0 625 0 708.3 125 583.3 83.3 541.7" style="fill:#005c92;"></polygon><polygon points="166.7 708.3 208.3 750 166.7 791.7 83.3 708.3 166.7 625 208.3 666.7 166.7 708.3" style="fill:#005c92;"></polygon></g><g><polygon points="0 708.3 0 791.7 41.7 750 0 708.3" style="fill:#005c92;"></polygon><polygon points="83.3 791.7 0 875 0 958.3 125 833.3 83.3 791.7" style="fill:#005c92;"></polygon><polygon points="166.7 958.3 208.3 1000 166.7 1041.7 83.3 958.3 166.7 875 208.3 916.7 166.7 958.3" style="fill:#005c92;"></polygon></g><g><polygon points="0 958.3 0 1041.7 41.7 1000 0 958.3" style="fill:#005c92;"></polygon><polygon points="83.3 1041.7 0 1125 0 1208.3 125 1083.3 83.3 1041.7" style="fill:#005c92;"></polygon><polygon points="166.7 1208.3 208.3 1250 166.7 1291.7 83.3 1208.3 166.7 1125 208.3 1166.7 166.7 1208.3" style="fill:#005c92;"></polygon></g><g><polygon points="0 1208.3 0 1291.7 41.7 1250 0 1208.3" style="fill:#005c92;"></polygon><polygon points="83.3 1291.7 0 1375 0 1458.3 125 1333.3 83.3 1291.7" style="fill:#005c92;"></polygon><polygon points="166.7 1458.3 208.3 1500 166.7 1541.7 83.3 1458.3 166.7 1375 208.3 1416.7 166.7 1458.3" style="fill:#005c92;"></polygon></g><g><polygon points="0 1458.3 0 1541.7 41.7 1500 0 1458.3" style="fill:#005c92;"></polygon><polygon points="83.3 1541.7 0 1625 0 1708.3 125 1583.3 83.3 1541.7" style="fill:#005c92;"></polygon><polygon points="166.7 1708.3 208.3 1750 166.7 1791.7 83.3 1708.3 166.7 1625 208.3 1666.7 166.7 1708.3" style="fill:#005c92;"></polygon></g><g><polygon points="0 1708.3 0 1791.7 41.7 1750 0 1708.3" style="fill:#005c92;"></polygon><polygon points="83.3 1791.7 0 1875 0 1958.3 125 1833.3 83.3 1791.7" style="fill:#005c92;"></polygon><polygon points="208.3 1916.7 166.7 1875 83.3 1958.3 125 2000 208.3 2000 166.7 1958.3 208.3 1916.7" style="fill:#005c92;"></polygon></g><polygon points="0 2000 41.7 2000 0 1958.3 0 2000" style="fill:#005c92;"></polygon><g><path d="m625,0h-83.3l41.7,41.7c6-6,23.9-23.9,41.7-41.7Z" style="fill:#005c92;"></path><polygon points="958.3 0 875 0 916.7 41.7 958.3 0" style="fill:#005c92;"></polygon></g><g><path d="m666.7,208.3c-12.1,12.1-71.3,71.3-83.3,83.3l-41.7-41.7,41.7-41.7-41.7-41.7,41.7-41.7c12.1,12.1,71.3,71.3,83.3,83.3Z" style="fill:#005c92;"></path><polygon points="791.7 0 708.3 0 750 41.7 791.7 0" style="fill:#005c92;"></polygon><polygon points="875 83.3 750 208.3 625 83.3 666.7 41.7 750 125 833.3 41.7 875 83.3" style="fill:#005c92;"></polygon><polygon points="916.7 208.3 958.3 250 916.7 291.7 833.3 208.3 916.7 125 958.3 166.7 916.7 208.3" style="fill:#005c92;"></polygon></g><g><path d="m666.7,458.3c-12.1,12.1-71.3,71.3-83.3,83.3l-41.7-41.7,41.7-41.7-41.7-41.7,41.7-41.7c12.1,12.1,71.3,71.3,83.3,83.3Z" style="fill:#005c92;"></path><rect x="720.5" y="220.5" width="58.9" height="58.9" transform="translate(42.9 603.6) rotate(-45)" style="fill:#005c92;"></rect><polygon points="875 333.3 750 458.3 625 333.3 666.7 291.7 750 375 833.3 291.7 875 333.3" style="fill:#005c92;"></polygon><polygon points="916.7 458.3 958.3 500 916.7 541.7 833.3 458.3 916.7 375 958.3 416.7 916.7 458.3" style="fill:#005c92;"></polygon></g><g><path d="m666.7,708.3c-12.1,12.1-71.3,71.3-83.3,83.3l-41.7-41.7,41.7-41.7-41.7-41.7,41.7-41.7c12.1,12.1,71.3,71.3,83.3,83.3Z" style="fill:#005c92;"></path><rect x="720.5" y="470.5" width="58.9" height="58.9" transform="translate(-133.9 676.8) rotate(-45)" style="fill:#005c92;"></rect><polygon points="875 583.3 750 708.3 625 583.3 666.7 541.7 750 625 833.3 541.7 875 583.3" style="fill:#005c92;"></polygon><polygon points="916.7 708.3 958.3 750 916.7 791.7 833.3 708.3 916.7 625 958.3 666.7 916.7 708.3" style="fill:#005c92;"></polygon></g><g><path d="m666.7,958.3c-12.1,12.1-71.3,71.3-83.3,83.3l-41.7-41.7,41.7-41.7-41.7-41.7,41.7-41.7c12.1,12.1,71.3,71.3,83.3,83.3Z" style="fill:#005c92;"></path><rect x="720.5" y="720.5" width="58.9" height="58.9" transform="translate(-310.7 750) rotate(-45)" style="fill:#005c92;"></rect><polygon points="875 833.3 750 958.3 625 833.3 666.7 791.7 750 875 833.3 791.7 875 833.3" style="fill:#005c92;"></polygon><polygon points="916.7 958.3 958.3 1000 916.7 1041.7 833.3 958.3 916.7 875 958.3 916.7 916.7 958.3" style="fill:#005c92;"></polygon></g><g><path d="m666.7,1208.3c-12.1,12.1-71.3,71.3-83.3,83.3l-41.7-41.7,41.7-41.7-41.7-41.7,41.7-41.7c12.1,12.1,71.3,71.3,83.3,83.3Z" style="fill:#005c92;"></path><rect x="720.5" y="970.5" width="58.9" height="58.9" transform="translate(-487.4 823.2) rotate(-45)" style="fill:#005c92;"></rect><polygon points="875 1083.3 750 1208.3 625 1083.3 666.7 1041.7 750 1125 833.3 1041.7 875 1083.3" style="fill:#005c92;"></polygon><polygon points="916.7 1208.3 958.3 1250 916.7 1291.7 833.3 1208.3 916.7 1125 958.3 1166.7 916.7 1208.3" style="fill:#005c92;"></polygon></g><g><path d="m666.7,1458.3c-12.1,12.1-71.3,71.3-83.3,83.3l-41.7-41.7,41.7-41.7-41.7-41.7,41.7-41.7c12.1,12.1,71.3,71.3,83.3,83.3Z" style="fill:#005c92;"></path><rect x="720.5" y="1220.5" width="58.9" height="58.9" transform="translate(-664.2 896.4) rotate(-45)" style="fill:#005c92;"></rect><polygon points="875 1333.3 750 1458.3 625 1333.3 666.7 1291.7 750 1375 833.3 1291.7 875 1333.3" style="fill:#005c92;"></polygon><polygon points="916.7 1458.3 958.3 1500 916.7 1541.7 833.3 1458.3 916.7 1375 958.3 1416.7 916.7 1458.3" style="fill:#005c92;"></polygon></g><g><path d="m666.7,1708.3c-12.1,12.1-71.3,71.3-83.3,83.3l-41.7-41.7,41.7-41.7-41.7-41.7,41.7-41.7c12.1,12.1,71.3,71.3,83.3,83.3Z" style="fill:#005c92;"></path><rect x="720.5" y="1470.5" width="58.9" height="58.9" transform="translate(-841 969.7) rotate(-45)" style="fill:#005c92;"></rect><polygon points="875 1583.3 750 1708.3 625 1583.3 666.7 1541.7 750 1625 833.3 1541.7 875 1583.3" style="fill:#005c92;"></polygon><polygon points="916.7 1708.3 958.3 1750 916.7 1791.7 833.3 1708.3 916.7 1625 958.3 1666.7 916.7 1708.3" style="fill:#005c92;"></polygon></g><g><path d="m583.3,1875l-41.7,41.7,41.7,41.7-41.7,41.7h83.3c17.8-17.8,35.6-35.6,41.7-41.7-12.1-12.1-71.2-71.2-83.3-83.3Z" style="fill:#005c92;"></path><rect x="720.5" y="1720.5" width="58.9" height="58.9" transform="translate(-1017.8 1042.9) rotate(-45)" style="fill:#005c92;"></rect><polygon points="875 1833.3 750 1958.3 625 1833.3 666.7 1791.7 750 1875 833.3 1791.7 875 1833.3" style="fill:#005c92;"></polygon><polygon points="958.3 1916.7 916.7 1875 833.3 1958.3 875 2000 958.3 2000 916.7 1958.3 958.3 1916.7" style="fill:#005c92;"></polygon></g><polygon points="708.3 2000 791.7 2000 750 1958.3 708.3 2000" style="fill:#005c92;"></polygon><g><path d="m1375,0h-83.3l41.7,41.7c6-6,23.9-23.9,41.7-41.7Z" style="fill:#005c92;"></path><polygon points="1708.3 0 1625 0 1666.7 41.7 1708.3 0" style="fill:#005c92;"></polygon></g><g><path d="m1416.7,208.3c-12.1,12.1-71.3,71.3-83.3,83.3l-41.7-41.7,41.7-41.7-41.7-41.7,41.7-41.7c12.1,12.1,71.3,71.3,83.3,83.3Z" style="fill:#005c92;"></path><polygon points="1541.7 0 1458.3 0 1500 41.7 1541.7 0" style="fill:#005c92;"></polygon><polygon points="1625 83.3 1500 208.3 1375 83.3 1416.7 41.7 1500 125 1583.3 41.7 1625 83.3" style="fill:#005c92;"></polygon><polygon points="1666.7 208.3 1708.3 250 1666.7 291.7 1583.3 208.3 1666.7 125 1708.3 166.7 1666.7 208.3" style="fill:#005c92;"></polygon></g><g><path d="m1416.7,458.3c-12.1,12.1-71.3,71.3-83.3,83.3l-41.7-41.7,41.7-41.7-41.7-41.7,41.7-41.7c12.1,12.1,71.3,71.3,83.3,83.3Z" style="fill:#005c92;"></path><rect x="1470.5" y="220.5" width="58.9" height="58.9" transform="translate(262.6 1133.9) rotate(-45)" style="fill:#005c92;"></rect><polygon points="1625 333.3 1500 458.3 1375 333.3 1416.7 291.7 1500 375 1583.3 291.7 1625 333.3" style="fill:#005c92;"></polygon><polygon points="1666.7 458.3 1708.3 500 1666.7 541.7 1583.3 458.3 1666.7 375 1708.3 416.7 1666.7 458.3" style="fill:#005c92;"></polygon></g><g><path d="m1416.7,708.3c-12.1,12.1-71.3,71.3-83.3,83.3l-41.7-41.7,41.7-41.7-41.7-41.7,41.7-41.7c12.1,12.1,71.3,71.3,83.3,83.3Z" style="fill:#005c92;"></path><rect x="1470.5" y="470.5" width="58.9" height="58.9" transform="translate(85.8 1207.1) rotate(-45)" style="fill:#005c92;"></rect><polygon points="1625 583.3 1500 708.3 1375 583.3 1416.7 541.7 1500 625 1583.3 541.7 1625 583.3" style="fill:#005c92;"></polygon><polygon points="1666.7 708.3 1708.3 750 1666.7 791.7 1583.3 708.3 1666.7 625 1708.3 666.7 1666.7 708.3" style="fill:#005c92;"></polygon></g><g><path d="m1416.7,958.3c-12.1,12.1-71.3,71.3-83.3,83.3l-41.7-41.7,41.7-41.7-41.7-41.7,41.7-41.7c12.1,12.1,71.3,71.3,83.3,83.3Z" style="fill:#005c92;"></path><rect x="1470.5" y="720.5" width="58.9" height="58.9" transform="translate(-91 1280.3) rotate(-45)" style="fill:#005c92;"></rect><polygon points="1625 833.3 1500 958.3 1375 833.3 1416.7 791.7 1500 875 1583.3 791.7 1625 833.3" style="fill:#005c92;"></polygon><polygon points="1666.7 958.3 1708.3 1000 1666.7 1041.7 1583.3 958.3 1666.7 875 1708.3 916.7 1666.7 958.3" style="fill:#005c92;"></polygon></g><g><path d="m1416.7,1208.3c-12.1,12.1-71.3,71.3-83.3,83.3l-41.7-41.7,41.7-41.7-41.7-41.7,41.7-41.7c12.1,12.1,71.3,71.3,83.3,83.3Z" style="fill:#005c92;"></path><rect x="1470.5" y="970.5" width="58.9" height="58.9" transform="translate(-267.8 1353.6) rotate(-45)" style="fill:#005c92;"></rect><polygon points="1625 1083.3 1500 1208.3 1375 1083.3 1416.7 1041.7 1500 1125 1583.3 1041.7 1625 1083.3" style="fill:#005c92;"></polygon><polygon points="1666.7 1208.3 1708.3 1250 1666.7 1291.7 1583.3 1208.3 1666.7 1125 1708.3 1166.7 1666.7 1208.3" style="fill:#005c92;"></polygon></g><g><path d="m1416.7,1458.3c-12.1,12.1-71.3,71.3-83.3,83.3l-41.7-41.7,41.7-41.7-41.7-41.7,41.7-41.7c12.1,12.1,71.3,71.3,83.3,83.3Z" style="fill:#005c92;"></path><rect x="1470.5" y="1220.5" width="58.9" height="58.9" transform="translate(-444.5 1426.8) rotate(-45)" style="fill:#005c92;"></rect><polygon points="1625 1333.3 1500 1458.3 1375 1333.3 1416.7 1291.7 1500 1375 1583.3 1291.7 1625 1333.3" style="fill:#005c92;"></polygon><polygon points="1666.7 1458.3 1708.3 1500 1666.7 1541.7 1583.3 1458.3 1666.7 1375 1708.3 1416.7 1666.7 1458.3" style="fill:#005c92;"></polygon></g><g><path d="m1416.7,1708.3c-12.1,12.1-71.3,71.3-83.3,83.3l-41.7-41.7,41.7-41.7-41.7-41.7,41.7-41.7c12.1,12.1,71.3,71.3,83.3,83.3Z" style="fill:#005c92;"></path><rect x="1470.5" y="1470.5" width="58.9" height="58.9" transform="translate(-621.3 1500) rotate(-45)" style="fill:#005c92;"></rect><polygon points="1625 1583.3 1500 1708.3 1375 1583.3 1416.7 1541.7 1500 1625 1583.3 1541.7 1625 1583.3" style="fill:#005c92;"></polygon><polygon points="1666.7 1708.3 1708.3 1750 1666.7 1791.7 1583.3 1708.3 1666.7 1625 1708.3 1666.7 1666.7 1708.3" style="fill:#005c92;"></polygon></g><g><path d="m1333.3,1875l-41.7,41.7,41.7,41.7-41.7,41.7h83.3c17.8-17.8,35.6-35.6,41.7-41.7-12.1-12.1-71.2-71.2-83.3-83.3Z" style="fill:#005c92;"></path><rect x="1470.5" y="1720.5" width="58.9" height="58.9" transform="translate(-798.1 1573.2) rotate(-45)" style="fill:#005c92;"></rect><polygon points="1625 1833.3 1500 1958.3 1375 1833.3 1416.7 1791.7 1500 1875 1583.3 1791.7 1625 1833.3" style="fill:#005c92;"></polygon><polygon points="1708.3 1916.7 1666.7 1875 1583.3 1958.3 1625 2000 1708.3 2000 1666.7 1958.3 1708.3 1916.7" style="fill:#005c92;"></polygon></g><polygon points="1458.3 2000 1541.7 2000 1500 1958.3 1458.3 2000" style="fill:#005c92;"></polygon><g><path d="m2125,0h-83.3l41.7,41.7c6-6,23.9-23.9,41.7-41.7Z" style="fill:#005c92;"></path><polygon points="2458.3 0 2375 0 2416.7 41.7 2458.3 0" style="fill:#005c92;"></polygon></g><g><path d="m2166.7,208.3c-12.1,12.1-71.3,71.3-83.3,83.3l-41.7-41.7,41.7-41.7-41.7-41.7,41.7-41.7c12.1,12.1,71.3,71.3,83.3,83.3Z" style="fill:#005c92;"></path><polygon points="2291.7 0 2208.3 0 2250 41.7 2291.7 0" style="fill:#005c92;"></polygon><polygon points="2375 83.3 2250 208.3 2125 83.3 2166.7 41.7 2250 125 2333.3 41.7 2375 83.3" style="fill:#005c92;"></polygon><polygon points="2416.7 208.3 2458.3 250 2416.7 291.7 2333.3 208.3 2416.7 125 2458.3 166.7 2416.7 208.3" style="fill:#005c92;"></polygon></g><g><path d="m2166.7,458.3c-12.1,12.1-71.3,71.3-83.3,83.3l-41.7-41.7,41.7-41.7-41.7-41.7,41.7-41.7c12.1,12.1,71.3,71.3,83.3,83.3Z" style="fill:#005c92;"></path><rect x="2220.5" y="220.5" width="58.9" height="58.9" transform="translate(482.2 1664.2) rotate(-45)" style="fill:#005c92;"></rect><polygon points="2375 333.3 2250 458.3 2125 333.3 2166.7 291.7 2250 375 2333.3 291.7 2375 333.3" style="fill:#005c92;"></polygon><polygon points="2416.7 458.3 2458.3 500 2416.7 541.7 2333.3 458.3 2416.7 375 2458.3 416.7 2416.7 458.3" style="fill:#005c92;"></polygon></g><g><path d="m2166.7,708.3c-12.1,12.1-71.3,71.3-83.3,83.3l-41.7-41.7,41.7-41.7-41.7-41.7,41.7-41.7c12.1,12.1,71.3,71.3,83.3,83.3Z" style="fill:#005c92;"></path><rect x="2220.5" y="470.5" width="58.9" height="58.9" transform="translate(305.5 1737.4) rotate(-45)" style="fill:#005c92;"></rect><polygon points="2375 583.3 2250 708.3 2125 583.3 2166.7 541.7 2250 625 2333.3 541.7 2375 583.3" style="fill:#005c92;"></polygon><polygon points="2416.7 708.3 2458.3 750 2416.7 791.7 2333.3 708.3 2416.7 625 2458.3 666.7 2416.7 708.3" style="fill:#005c92;"></polygon></g><g><path d="m2166.7,958.3c-12.1,12.1-71.3,71.3-83.3,83.3l-41.7-41.7,41.7-41.7-41.7-41.7,41.7-41.7c12.1,12.1,71.3,71.3,83.3,83.3Z" style="fill:#005c92;"></path><rect x="2220.5" y="720.5" width="58.9" height="58.9" transform="translate(128.7 1810.7) rotate(-45)" style="fill:#005c92;"></rect><polygon points="2375 833.3 2250 958.3 2125 833.3 2166.7 791.7 2250 875 2333.3 791.7 2375 833.3" style="fill:#005c92;"></polygon><polygon points="2416.7 958.3 2458.3 1000 2416.7 1041.7 2333.3 958.3 2416.7 875 2458.3 916.7 2416.7 958.3" style="fill:#005c92;"></polygon></g><g><path d="m2166.7,1208.3c-12.1,12.1-71.3,71.3-83.3,83.3l-41.7-41.7,41.7-41.7-41.7-41.7,41.7-41.7c12.1,12.1,71.3,71.3,83.3,83.3Z" style="fill:#005c92;"></path><rect x="2220.5" y="970.5" width="58.9" height="58.9" transform="translate(-48.1 1883.9) rotate(-45)" style="fill:#005c92;"></rect><polygon points="2375 1083.3 2250 1208.3 2125 1083.3 2166.7 1041.7 2250 1125 2333.3 1041.7 2375 1083.3" style="fill:#005c92;"></polygon><polygon points="2416.7 1208.3 2458.3 1250 2416.7 1291.7 2333.3 1208.3 2416.7 1125 2458.3 1166.7 2416.7 1208.3" style="fill:#005c92;"></polygon></g><g><path d="m2166.7,1458.3c-12.1,12.1-71.3,71.3-83.3,83.3l-41.7-41.7,41.7-41.7-41.7-41.7,41.7-41.7c12.1,12.1,71.3,71.3,83.3,83.3Z" style="fill:#005c92;"></path><rect x="2220.5" y="1220.5" width="58.9" height="58.9" transform="translate(-224.9 1957.1) rotate(-45)" style="fill:#005c92;"></rect><polygon points="2375 1333.3 2250 1458.3 2125 1333.3 2166.7 1291.7 2250 1375 2333.3 1291.7 2375 1333.3" style="fill:#005c92;"></polygon><polygon points="2416.7 1458.3 2458.3 1500 2416.7 1541.7 2333.3 1458.3 2416.7 1375 2458.3 1416.7 2416.7 1458.3" style="fill:#005c92;"></polygon></g><g><path d="m2166.7,1708.3c-12.1,12.1-71.3,71.3-83.3,83.3l-41.7-41.7,41.7-41.7-41.7-41.7,41.7-41.7c12.1,12.1,71.3,71.3,83.3,83.3Z" style="fill:#005c92;"></path><rect x="2220.5" y="1470.5" width="58.9" height="58.9" transform="translate(-401.7 2030.3) rotate(-45)" style="fill:#005c92;"></rect><polygon points="2375 1583.3 2250 1708.3 2125 1583.3 2166.7 1541.7 2250 1625 2333.3 1541.7 2375 1583.3" style="fill:#005c92;"></polygon><polygon points="2416.7 1708.3 2458.3 1750 2416.7 1791.7 2333.3 1708.3 2416.7 1625 2458.3 1666.7 2416.7 1708.3" style="fill:#005c92;"></polygon></g><g><path d="m2083.3,1875l-41.7,41.7,41.7,41.7-41.7,41.7h83.3c17.8-17.8,35.6-35.6,41.7-41.7-12.1-12.1-71.2-71.2-83.3-83.3Z" style="fill:#005c92;"></path><rect x="2220.5" y="1720.5" width="58.9" height="58.9" transform="translate(-578.4 2103.6) rotate(-45)" style="fill:#005c92;"></rect><polygon points="2375 1833.3 2250 1958.3 2125 1833.3 2166.7 1791.7 2250 1875 2333.3 1791.7 2375 1833.3" style="fill:#005c92;"></polygon><polygon points="2458.3 1916.7 2416.7 1875 2333.3 1958.3 2375 2000 2458.3 2000 2416.7 1958.3 2458.3 1916.7" style="fill:#005c92;"></polygon></g><polygon points="2208.3 2000 2291.7 2000 2250 1958.3 2208.3 2000" style="fill:#005c92;"></polygon><path d="m2875,0h-83.3l41.7,41.7c6-6,23.9-23.9,41.7-41.7Z" style="fill:#005c92;"></path><g><path d="m2916.7,208.3c-12.1,12.1-71.3,71.3-83.3,83.3l-41.7-41.7,41.7-41.7-41.7-41.7,41.7-41.7c12.1,12.1,71.3,71.3,83.3,83.3Z" style="fill:#005c92;"></path><polygon points="2958.3 0 3000 41.7 3000 0 2958.3 0" style="fill:#005c92;"></polygon><polygon points="2916.7 41.7 2875 83.3 3000 208.3 3000 125 2916.7 41.7" style="fill:#005c92;"></polygon></g><g><path d="m2916.7,458.3c-12.1,12.1-71.3,71.3-83.3,83.3l-41.7-41.7,41.7-41.7-41.7-41.7,41.7-41.7c12.1,12.1,71.3,71.3,83.3,83.3Z" style="fill:#005c92;"></path><polygon points="2958.3 250 3000 291.7 3000 208.3 2958.3 250" style="fill:#005c92;"></polygon><polygon points="2916.7 291.7 2875 333.3 3000 458.3 3000 375 2916.7 291.7" style="fill:#005c92;"></polygon></g><g><path d="m2916.7,708.3c-12.1,12.1-71.3,71.3-83.3,83.3l-41.7-41.7,41.7-41.7-41.7-41.7,41.7-41.7c12.1,12.1,71.3,71.3,83.3,83.3Z" style="fill:#005c92;"></path><polygon points="2958.3 500 3000 541.7 3000 458.3 2958.3 500" style="fill:#005c92;"></polygon><polygon points="2916.7 541.7 2875 583.3 3000 708.3 3000 625 2916.7 541.7" style="fill:#005c92;"></polygon></g><g><path d="m2916.7,958.3c-12.1,12.1-71.3,71.3-83.3,83.3l-41.7-41.7,41.7-41.7-41.7-41.7,41.7-41.7c12.1,12.1,71.3,71.3,83.3,83.3Z" style="fill:#005c92;"></path><polygon points="2958.3 750 3000 791.7 3000 708.3 2958.3 750" style="fill:#005c92;"></polygon><polygon points="2916.7 791.7 2875 833.3 3000 958.3 3000 875 2916.7 791.7" style="fill:#005c92;"></polygon></g><g><path d="m2916.7,1208.3c-12.1,12.1-71.3,71.3-83.3,83.3l-41.7-41.7,41.7-41.7-41.7-41.7,41.7-41.7c12.1,12.1,71.3,71.3,83.3,83.3Z" style="fill:#005c92;"></path><polygon points="2958.3 1000 3000 1041.7 3000 958.3 2958.3 1000" style="fill:#005c92;"></polygon><polygon points="2916.7 1041.7 2875 1083.3 3000 1208.3 3000 1125 2916.7 1041.7" style="fill:#005c92;"></polygon></g><g><path d="m2916.7,1458.3c-12.1,12.1-71.3,71.3-83.3,83.3l-41.7-41.7,41.7-41.7-41.7-41.7,41.7-41.7c12.1,12.1,71.3,71.3,83.3,83.3Z" style="fill:#005c92;"></path><polygon points="2958.3 1250 3000 1291.7 3000 1208.3 2958.3 1250" style="fill:#005c92;"></polygon><polygon points="2916.7 1291.7 2875 1333.3 3000 1458.3 3000 1375 2916.7 1291.7" style="fill:#005c92;"></polygon></g><g><path d="m2916.7,1708.3c-12.1,12.1-71.3,71.3-83.3,83.3l-41.7-41.7,41.7-41.7-41.7-41.7,41.7-41.7c12.1,12.1,71.3,71.3,83.3,83.3Z" style="fill:#005c92;"></path><polygon points="2958.3 1500 3000 1541.7 3000 1458.3 2958.3 1500" style="fill:#005c92;"></polygon><polygon points="2916.7 1541.7 2875 1583.3 3000 1708.3 3000 1625 2916.7 1541.7" style="fill:#005c92;"></polygon></g><g><path d="m2833.3,1875l-41.7,41.7,41.7,41.7-41.7,41.7h83.3c17.8-17.8,35.6-35.6,41.7-41.7-12.1-12.1-71.2-71.2-83.3-83.3Z" style="fill:#005c92;"></path><polygon points="2958.3 1750 3000 1791.7 3000 1708.3 2958.3 1750" style="fill:#005c92;"></polygon><polygon points="2916.7 1791.7 2875 1833.3 3000 1958.3 3000 1875 2916.7 1791.7" style="fill:#005c92;"></polygon></g><polygon points="3000 1958.3 2958.3 2000 3000 2000 3000 1958.3" style="fill:#005c92;"></polygon></g></g></svg> 